M48
;Layer_Color=9474304
;FILE_FORMAT=2:5
INCH,LZ
;TYPE=PLATED
T01F00S00C0.01000
T02F00S00C0.01000
T03F00S00C0.04016
T04F00S00C0.12500
%
T01
X002Y002
X003
X004
X005
Y001
X004
X003Y003
X002
Y004
Y005
X001
Y004
Y003
X009Y004
Y005
X015
X016
X017
X018
X019
Y004
Y003
X018
Y004
X017
Y003
Y002
X018
X017Y001
X016
Y002
Y003
Y004
X015Y003
Y002
Y001
X014
Y002
X013
Y001
X012
Y002
X015Y006
X016
X017
X018
X019
Y007
Y008
Y009
Y01
Y011
Y012
Y013
Y014
Y015
X018
Y014
Y013
X017
Y014
Y015
X016
Y014
Y013
Y012
X017
X018
Y011
Y01
Y009
Y008
Y007
X017
Y008
Y009
Y01
Y011
X016
Y01
Y009
Y008
Y007
X015
Y008
Y009
Y01
Y011
Y012
Y013
Y014
Y015
Y016
X016
X017
X018
X019
X016Y017
X015
X014
Y016
Y015
Y014
Y013
X013
Y014
Y015
Y016
Y017
X012
Y016
Y015
Y014
Y013
Y012
Y011
X013Y01
X014
X0107066Y009938
Y009718
X0105019Y0097718
X0104712Y0099872
X0100611Y0100033
X0100304Y009788
X0098257Y0097341
Y0099541
X00995Y00956
Y00934
Y00912
Y0089
X00975Y009
Y00922
Y00944
X0098257Y0087159
Y0084959
X0100304Y008442
Y008662
X0105019Y0086459
Y0084259
X0107066Y0084798
Y0086997
X0105823Y0088839
Y0091039
Y0093239
Y0095439
X0107823Y0094239
Y0092039
Y0089839
X01Y0082
Y00798
Y007
X009
Y008
X008Y006
X007
Y007
Y01
Y011
Y012
Y013
Y014
Y015
X008
X009
X0095899Y0149111
Y0151311
Y0153511
Y0155711
Y0157911
Y0160111
Y0162311
Y0164511
Y0166711
Y0168911
X0098143Y0167811
Y0165611
Y0163411
Y0161211
Y0159011
Y0156811
Y0154611
Y0152411
Y0150211
Y0148011
Y0145811
Y0143611
Y0141411
X0095899Y0142511
Y0144711
Y0146911
X0095899Y01403
X00975Y0138
X0095931Y0135916
X01035Y0137
X0105027Y0138505
X0105101Y0140713
Y0142913
Y0145113
Y0147313
Y0149513
Y0151713
Y0153913
Y0156113
Y0158313
Y0160513
Y0162713
Y0164913
X01051Y0167145
Y0169344
X0102857Y0168213
Y0166013
Y0163813
Y0161613
Y0159413
Y0157213
Y0155013
Y0152813
Y0150613
Y0148413
Y0146213
Y0144013
Y0141813
X0105058Y0135313
X0105162Y0132074
X0105164Y0129818
Y0127618
X010292Y0126518
Y0128718
Y0130918
X01035Y01335
X011Y013
Y014
Y015
Y016
X009
X008
Y017
X007
Y016
X006
Y017
Y015
Y014
Y013
Y012
Y011
Y01
X0098206Y0126055
X009Y014
X005
Y015
Y016
Y017
X004
Y016
Y015
Y014
Y013
X005
Y012
Y011
Y01
X004
Y011
Y012
X003
Y013
Y014
Y015
Y016
X002
Y015
Y014
Y013
Y012
Y011
X003
Y01
Y009
X002
Y01
X001
Y011
Y012
Y013
Y014
Y015
Y016
Y009
Y008
X002
Y007
Y006
X001
Y007
T02
X0056Y0005
Y00085
Y0017
Y00205
X00575Y0031
X0081Y0041
X00965Y00405
X01
X01035
Y00445
X01
X00965
X0122Y0042335
X01235Y00335
X0132468Y0033442
X0135531
X01435Y0034697
X0147
X01465Y0044
X0132866Y0042921
Y0048921
X0111Y00205
X00885
X0115Y00565
X011Y0069
X01065
X0103
Y0073
X01065
X011
X01105Y00845
X0106Y0109
X01015
Y01135
Y0118
X0106
Y01135
X0097
Y0109
Y0118
X00775Y01135
Y011
X00765Y01045
Y01005
X0125197Y0123
Y01265
X013Y0121197
X0144Y01155
X0139366Y0062421
X0127366
X0112Y0166
X00895
X0055Y00815
X00515
X0048
X00445
X0041
Y00775
X00445
X0048
X00515
X0055
Y00735
X00515
X0048
X00445
X0041
T03
X00785Y0065
X00885
Y00915
X00785
X0077Y01355
X0087
X01245Y0106
X01345
T04
X00125Y00125
X01875Y00125
Y01735
X00125
M30
