G04*
G04 #@! TF.GenerationSoftware,Altium Limited,Altium Designer,23.8.1 (32)*
G04*
G04 Layer_Color=65535*
%FSLAX25Y25*%
%MOIN*%
G70*
G04*
G04 #@! TF.SameCoordinates,C2238681-CFA7-4295-91EC-4EAF016C526F*
G04*
G04*
G04 #@! TF.FilePolarity,Positive*
G04*
G01*
G75*
%ADD10C,0.01000*%
%ADD11C,0.00984*%
%ADD12C,0.00787*%
%ADD13C,0.00500*%
%ADD14C,0.00000*%
%ADD15C,0.00800*%
%ADD16R,0.03937X0.01575*%
%ADD17R,0.01575X0.03937*%
G36*
X34408Y128836D02*
X34511D01*
Y128826D01*
X34584D01*
Y128815D01*
X34635D01*
Y128805D01*
X34687D01*
Y128795D01*
X34728D01*
Y128784D01*
X34769D01*
Y128774D01*
X34800D01*
Y128764D01*
X34831D01*
Y128753D01*
X34862D01*
Y128743D01*
X34883D01*
Y128733D01*
X34914D01*
Y128723D01*
X34934D01*
Y128712D01*
X34955D01*
Y128702D01*
X34975D01*
Y128691D01*
X34996D01*
Y128681D01*
X35017D01*
Y128671D01*
X35027D01*
Y128661D01*
X35048D01*
Y128650D01*
X35068D01*
Y128640D01*
X35079D01*
Y128630D01*
X35089D01*
Y128619D01*
X35109D01*
Y128609D01*
X35120D01*
Y128599D01*
X35130D01*
Y128588D01*
X35140D01*
Y128578D01*
X35151D01*
Y128568D01*
X35161D01*
Y128557D01*
X35171D01*
Y128547D01*
X35182D01*
Y128526D01*
X35192D01*
Y128516D01*
X35202D01*
Y128506D01*
X35213D01*
Y128485D01*
X35223D01*
Y128465D01*
X35233D01*
Y128444D01*
X35244D01*
Y128423D01*
X35254D01*
Y128403D01*
X35264D01*
Y128372D01*
X35274D01*
Y128341D01*
X35285D01*
Y128310D01*
X35295D01*
Y128258D01*
X35306D01*
Y128207D01*
Y128197D01*
Y128186D01*
X35316D01*
Y127970D01*
X35306D01*
Y127877D01*
X35295D01*
Y127805D01*
X35285D01*
Y127753D01*
X35274D01*
Y127701D01*
X35264D01*
Y127650D01*
X35254D01*
Y127609D01*
X35244D01*
Y127567D01*
X35233D01*
Y127526D01*
X35223D01*
Y127485D01*
X35213D01*
Y127444D01*
X35202D01*
Y127402D01*
X35192D01*
Y127361D01*
X35182D01*
Y127330D01*
X35171D01*
Y127289D01*
X35161D01*
Y127248D01*
X35151D01*
Y127206D01*
X35140D01*
Y127165D01*
X35130D01*
Y127124D01*
X35120D01*
Y127083D01*
X35109D01*
Y127041D01*
X35099D01*
Y127000D01*
X35089D01*
Y126959D01*
X35079D01*
Y126918D01*
X35068D01*
Y126876D01*
X35058D01*
Y126835D01*
X35048D01*
Y126794D01*
X35037D01*
Y126752D01*
X35027D01*
Y126711D01*
X35017D01*
Y126670D01*
X35006D01*
Y126629D01*
X34996D01*
Y126587D01*
X34986D01*
Y126546D01*
X34975D01*
Y126505D01*
X34965D01*
Y126464D01*
X34955D01*
Y126422D01*
X34944D01*
Y126381D01*
X34934D01*
Y126340D01*
X34924D01*
Y126299D01*
X34914D01*
Y126257D01*
X34903D01*
Y126216D01*
X34893D01*
Y126175D01*
X34883D01*
Y126134D01*
X34872D01*
Y126092D01*
X34862D01*
Y126051D01*
X34852D01*
Y126010D01*
X34841D01*
Y125969D01*
X34831D01*
Y125927D01*
X34821D01*
Y125886D01*
X34810D01*
Y125845D01*
X34800D01*
Y125804D01*
X34790D01*
Y125762D01*
X34779D01*
Y125721D01*
X34769D01*
Y125680D01*
X34759D01*
Y125638D01*
X34749D01*
Y125597D01*
X34738D01*
Y125556D01*
X34728D01*
Y125515D01*
X34718D01*
Y125473D01*
X34707D01*
Y125432D01*
X34697D01*
Y125391D01*
X34687D01*
Y125350D01*
X34676D01*
Y125309D01*
X34666D01*
Y125267D01*
X34656D01*
Y125226D01*
X34645D01*
Y125185D01*
X34635D01*
Y125144D01*
X34625D01*
Y125112D01*
X34614D01*
Y125082D01*
X34604D01*
Y125051D01*
X34594D01*
Y125020D01*
X34584D01*
Y124999D01*
X34573D01*
Y124978D01*
X34563D01*
Y124958D01*
X34552D01*
Y124937D01*
X34542D01*
Y124917D01*
X34532D01*
Y124896D01*
X34522D01*
Y124875D01*
X34511D01*
Y124865D01*
X34501D01*
Y124844D01*
X34491D01*
Y124834D01*
X34480D01*
Y124813D01*
X34470D01*
Y124803D01*
X34460D01*
Y124793D01*
X34449D01*
Y124782D01*
X34439D01*
Y124762D01*
X34429D01*
Y124751D01*
X34418D01*
Y124741D01*
X34408D01*
Y124731D01*
X34398D01*
Y124721D01*
X34387D01*
Y124710D01*
X34377D01*
Y124700D01*
X34367D01*
Y124690D01*
X34357D01*
Y124679D01*
X34346D01*
Y124669D01*
X34336D01*
Y124659D01*
X34326D01*
Y124648D01*
X34315D01*
Y124638D01*
X34305D01*
Y124628D01*
X34295D01*
Y124617D01*
X34284D01*
Y124607D01*
X34264D01*
Y124597D01*
X34253D01*
Y124586D01*
X34243D01*
Y124576D01*
X34222D01*
Y124566D01*
X34212D01*
Y124556D01*
X34192D01*
Y124545D01*
X34181D01*
Y124535D01*
X34161D01*
Y124525D01*
X34150D01*
Y124514D01*
X34130D01*
Y124504D01*
X34109D01*
Y124494D01*
X34099D01*
Y124483D01*
X34078D01*
Y124473D01*
X34058D01*
Y124463D01*
X34037D01*
Y124452D01*
X34006D01*
Y124442D01*
X33985D01*
Y124432D01*
X33965D01*
Y124422D01*
X33934D01*
Y124411D01*
X33903D01*
Y124401D01*
X33872D01*
Y124390D01*
X33841D01*
Y124380D01*
X33800D01*
Y124370D01*
X33758D01*
Y124360D01*
X33696D01*
Y124349D01*
X33614D01*
Y124339D01*
X32789D01*
Y124349D01*
X32799D01*
Y124390D01*
X32809D01*
Y124432D01*
X32820D01*
Y124473D01*
X32830D01*
Y124514D01*
X32840D01*
Y124556D01*
X32851D01*
Y124597D01*
X32861D01*
Y124638D01*
X32871D01*
Y124679D01*
X32882D01*
Y124721D01*
X32892D01*
Y124762D01*
X32902D01*
Y124803D01*
X32913D01*
Y124844D01*
X32923D01*
Y124886D01*
X32933D01*
Y124927D01*
X32943D01*
Y124968D01*
X32954D01*
Y125009D01*
X32964D01*
Y125051D01*
X32974D01*
Y125092D01*
X32985D01*
Y125133D01*
X32995D01*
Y125174D01*
X33005D01*
Y125216D01*
X33016D01*
Y125257D01*
X33026D01*
Y125298D01*
X33036D01*
Y125339D01*
X33047D01*
Y125381D01*
X33057D01*
Y125422D01*
X33067D01*
Y125463D01*
X33078D01*
Y125504D01*
X33088D01*
Y125546D01*
X33098D01*
Y125587D01*
X33108D01*
Y125628D01*
X33119D01*
Y125670D01*
X33129D01*
Y125711D01*
X33140D01*
Y125752D01*
X33150D01*
Y125793D01*
X33160D01*
Y125835D01*
X33170D01*
Y125876D01*
X33181D01*
Y125917D01*
X33191D01*
Y125958D01*
X33201D01*
Y125999D01*
X33212D01*
Y126041D01*
X33222D01*
Y126082D01*
X33232D01*
Y126123D01*
X33243D01*
Y126165D01*
X33253D01*
Y126206D01*
X33263D01*
Y126247D01*
X33274D01*
Y126288D01*
X33284D01*
Y126330D01*
X33294D01*
Y126371D01*
X33305D01*
Y126412D01*
X33315D01*
Y126453D01*
X33325D01*
Y126495D01*
X33335D01*
Y126536D01*
X33346D01*
Y126577D01*
X33356D01*
Y126618D01*
X33366D01*
Y126660D01*
X33377D01*
Y126701D01*
X33387D01*
Y126742D01*
X33397D01*
Y126783D01*
X33408D01*
Y126825D01*
X33418D01*
Y126866D01*
X33428D01*
Y126907D01*
X33439D01*
Y126948D01*
X33449D01*
Y126990D01*
X33459D01*
Y127031D01*
X33470D01*
Y127072D01*
X33480D01*
Y127113D01*
X33490D01*
Y127155D01*
X33500D01*
Y127196D01*
X33511D01*
Y127237D01*
X33521D01*
Y127278D01*
X33531D01*
Y127330D01*
X33542D01*
Y127402D01*
X33552D01*
Y127505D01*
X33542D01*
Y127557D01*
X33531D01*
Y127588D01*
X33521D01*
Y127609D01*
X33511D01*
Y127629D01*
X33500D01*
Y127639D01*
X33490D01*
Y127660D01*
X33480D01*
Y127670D01*
X33470D01*
Y127681D01*
X33459D01*
Y127691D01*
X33439D01*
Y127701D01*
X33428D01*
Y127712D01*
X33408D01*
Y127722D01*
X33377D01*
Y127732D01*
X33346D01*
Y127743D01*
X33294D01*
Y127753D01*
X33067D01*
Y127743D01*
X33016D01*
Y127732D01*
X32974D01*
Y127722D01*
X32943D01*
Y127712D01*
X32913D01*
Y127701D01*
X32892D01*
Y127691D01*
X32871D01*
Y127681D01*
X32861D01*
Y127670D01*
X32840D01*
Y127660D01*
X32820D01*
Y127650D01*
X32809D01*
Y127639D01*
X32799D01*
Y127629D01*
X32789D01*
Y127619D01*
X32768D01*
Y127609D01*
X32758D01*
Y127598D01*
X32748D01*
Y127588D01*
X32737D01*
Y127578D01*
X32727D01*
Y127557D01*
X32717D01*
Y127547D01*
X32706D01*
Y127536D01*
X32696D01*
Y127526D01*
X32686D01*
Y127505D01*
X32675D01*
Y127495D01*
X32665D01*
Y127474D01*
X32655D01*
Y127454D01*
X32644D01*
Y127433D01*
X32634D01*
Y127413D01*
X32624D01*
Y127392D01*
X32614D01*
Y127371D01*
X32603D01*
Y127340D01*
X32593D01*
Y127309D01*
X32583D01*
Y127278D01*
X32572D01*
Y127248D01*
X32562D01*
Y127206D01*
X32552D01*
Y127165D01*
X32541D01*
Y127124D01*
X32531D01*
Y127083D01*
X32521D01*
Y127041D01*
X32510D01*
Y127000D01*
X32500D01*
Y126959D01*
X32490D01*
Y126918D01*
X32479D01*
Y126876D01*
X32469D01*
Y126835D01*
X32459D01*
Y126794D01*
X32448D01*
Y126752D01*
X32438D01*
Y126711D01*
X32428D01*
Y126670D01*
X32418D01*
Y126629D01*
X32407D01*
Y126587D01*
X32397D01*
Y126546D01*
X32386D01*
Y126505D01*
X32376D01*
Y126464D01*
X32366D01*
Y126422D01*
X32356D01*
Y126381D01*
X32345D01*
Y126340D01*
X32335D01*
Y126299D01*
X32325D01*
Y126257D01*
X32314D01*
Y126216D01*
X32304D01*
Y126175D01*
X32294D01*
Y126134D01*
X32283D01*
Y126092D01*
X32273D01*
Y126051D01*
X32263D01*
Y126010D01*
X32252D01*
Y125969D01*
X32242D01*
Y125927D01*
X32232D01*
Y125886D01*
X32221D01*
Y125845D01*
X32211D01*
Y125804D01*
X32201D01*
Y125762D01*
X32191D01*
Y125731D01*
X32180D01*
Y125690D01*
X32170D01*
Y125649D01*
X32160D01*
Y125608D01*
X32149D01*
Y125566D01*
X32139D01*
Y125525D01*
X32129D01*
Y125484D01*
X32118D01*
Y125443D01*
X32108D01*
Y125401D01*
X32098D01*
Y125360D01*
X32087D01*
Y125319D01*
X32077D01*
Y125277D01*
X32067D01*
Y125236D01*
X32056D01*
Y125195D01*
X32046D01*
Y125154D01*
X32036D01*
Y125112D01*
X32026D01*
Y125071D01*
X32015D01*
Y125030D01*
X32005D01*
Y124989D01*
X31995D01*
Y124948D01*
X31984D01*
Y124906D01*
X31974D01*
Y124865D01*
X31964D01*
Y124824D01*
X31953D01*
Y124782D01*
X31943D01*
Y124741D01*
X31933D01*
Y124700D01*
X31922D01*
Y124659D01*
X31912D01*
Y124617D01*
X31902D01*
Y124576D01*
X31892D01*
Y124535D01*
X31881D01*
Y124494D01*
X31871D01*
Y124452D01*
X31861D01*
Y124411D01*
X31850D01*
Y124370D01*
X31840D01*
Y124339D01*
X30200D01*
Y124349D01*
X30210D01*
Y124390D01*
X30221D01*
Y124432D01*
X30231D01*
Y124473D01*
X30241D01*
Y124514D01*
X30252D01*
Y124556D01*
X30262D01*
Y124597D01*
X30272D01*
Y124638D01*
X30283D01*
Y124679D01*
X30293D01*
Y124721D01*
X30303D01*
Y124762D01*
X30313D01*
Y124803D01*
X30324D01*
Y124844D01*
X30334D01*
Y124886D01*
X30344D01*
Y124927D01*
X30355D01*
Y124968D01*
X30365D01*
Y124999D01*
X30375D01*
Y125040D01*
X30386D01*
Y125082D01*
X30396D01*
Y125123D01*
X30406D01*
Y125164D01*
X30417D01*
Y125205D01*
X30427D01*
Y125247D01*
X30437D01*
Y125288D01*
X30448D01*
Y125329D01*
X30458D01*
Y125370D01*
X30468D01*
Y125412D01*
X30478D01*
Y125453D01*
X30489D01*
Y125494D01*
X30499D01*
Y125535D01*
X30509D01*
Y125577D01*
X30520D01*
Y125618D01*
X30530D01*
Y125659D01*
X30540D01*
Y125700D01*
X30551D01*
Y125742D01*
X30561D01*
Y125783D01*
X30571D01*
Y125824D01*
X30582D01*
Y125865D01*
X30592D01*
Y125907D01*
X30602D01*
Y125948D01*
X30612D01*
Y125989D01*
X30623D01*
Y126031D01*
X30633D01*
Y126072D01*
X30643D01*
Y126113D01*
X30654D01*
Y126154D01*
X30664D01*
Y126196D01*
X30674D01*
Y126237D01*
X30685D01*
Y126278D01*
X30695D01*
Y126319D01*
X30705D01*
Y126360D01*
X30716D01*
Y126402D01*
X30726D01*
Y126443D01*
X30736D01*
Y126484D01*
X30747D01*
Y126525D01*
X30757D01*
Y126567D01*
X30767D01*
Y126608D01*
X30777D01*
Y126649D01*
X30788D01*
Y126691D01*
X30798D01*
Y126732D01*
X30808D01*
Y126773D01*
X30819D01*
Y126814D01*
X30829D01*
Y126856D01*
X30839D01*
Y126897D01*
X30850D01*
Y126938D01*
X30860D01*
Y126979D01*
X30870D01*
Y127021D01*
X30881D01*
Y127052D01*
X30891D01*
Y127093D01*
X30901D01*
Y127134D01*
X30912D01*
Y127175D01*
X30922D01*
Y127217D01*
X30932D01*
Y127268D01*
X30943D01*
Y127309D01*
X30953D01*
Y127382D01*
X30963D01*
Y127516D01*
X30953D01*
Y127557D01*
X30943D01*
Y127588D01*
X30932D01*
Y127609D01*
X30922D01*
Y127629D01*
X30912D01*
Y127650D01*
X30901D01*
Y127660D01*
X30891D01*
Y127670D01*
X30881D01*
Y127681D01*
X30870D01*
Y127691D01*
X30850D01*
Y127701D01*
X30839D01*
Y127712D01*
X30819D01*
Y127722D01*
X30788D01*
Y127732D01*
X30757D01*
Y127743D01*
X30705D01*
Y127753D01*
X30489D01*
Y127743D01*
X30427D01*
Y127732D01*
X30396D01*
Y127722D01*
X30365D01*
Y127712D01*
X30334D01*
Y127701D01*
X30313D01*
Y127691D01*
X30293D01*
Y127681D01*
X30283D01*
Y127670D01*
X30262D01*
Y127660D01*
X30252D01*
Y127650D01*
X30231D01*
Y127639D01*
X30221D01*
Y127629D01*
X30210D01*
Y127619D01*
X30200D01*
Y127609D01*
X30190D01*
Y127598D01*
X30179D01*
Y127588D01*
X30169D01*
Y127578D01*
X30159D01*
Y127567D01*
X30148D01*
Y127557D01*
X30138D01*
Y127547D01*
X30128D01*
Y127526D01*
X30117D01*
Y127516D01*
X30107D01*
Y127495D01*
X30097D01*
Y127485D01*
X30086D01*
Y127464D01*
X30076D01*
Y127444D01*
X30066D01*
Y127423D01*
X30055D01*
Y127402D01*
X30045D01*
Y127382D01*
X30035D01*
Y127351D01*
X30025D01*
Y127320D01*
X30014D01*
Y127289D01*
X30004D01*
Y127258D01*
X29994D01*
Y127217D01*
X29983D01*
Y127175D01*
X29973D01*
Y127134D01*
X29963D01*
Y127093D01*
X29952D01*
Y127052D01*
X29942D01*
Y127010D01*
X29932D01*
Y126969D01*
X29921D01*
Y126928D01*
X29911D01*
Y126887D01*
X29901D01*
Y126845D01*
X29890D01*
Y126804D01*
X29880D01*
Y126763D01*
X29870D01*
Y126722D01*
X29860D01*
Y126680D01*
X29849D01*
Y126639D01*
X29839D01*
Y126598D01*
X29829D01*
Y126557D01*
X29818D01*
Y126515D01*
X29808D01*
Y126474D01*
X29798D01*
Y126433D01*
X29787D01*
Y126391D01*
X29777D01*
Y126350D01*
X29767D01*
Y126309D01*
X29756D01*
Y126268D01*
X29746D01*
Y126237D01*
X29736D01*
Y126196D01*
X29726D01*
Y126154D01*
X29715D01*
Y126113D01*
X29705D01*
Y126072D01*
X29695D01*
Y126031D01*
X29684D01*
Y125989D01*
X29674D01*
Y125948D01*
X29664D01*
Y125907D01*
X29653D01*
Y125865D01*
X29643D01*
Y125824D01*
X29633D01*
Y125783D01*
X29622D01*
Y125742D01*
X29612D01*
Y125700D01*
X29602D01*
Y125659D01*
X29591D01*
Y125618D01*
X29581D01*
Y125577D01*
X29571D01*
Y125535D01*
X29561D01*
Y125494D01*
X29550D01*
Y125453D01*
X29540D01*
Y125412D01*
X29530D01*
Y125370D01*
X29519D01*
Y125329D01*
X29509D01*
Y125288D01*
X29499D01*
Y125247D01*
X29488D01*
Y125205D01*
X29478D01*
Y125164D01*
X29468D01*
Y125123D01*
X29457D01*
Y125082D01*
X29447D01*
Y125040D01*
X29437D01*
Y124999D01*
X29426D01*
Y124958D01*
X29416D01*
Y124917D01*
X29406D01*
Y124875D01*
X29395D01*
Y124834D01*
X29385D01*
Y124793D01*
X29375D01*
Y124751D01*
X29364D01*
Y124710D01*
X29354D01*
Y124669D01*
X29344D01*
Y124628D01*
X29334D01*
Y124586D01*
X29323D01*
Y124545D01*
X29313D01*
Y124504D01*
X29303D01*
Y124463D01*
X29292D01*
Y124422D01*
X29282D01*
Y124380D01*
X29272D01*
Y124339D01*
X27632D01*
Y124380D01*
X27642D01*
Y124422D01*
X27652D01*
Y124463D01*
X27663D01*
Y124504D01*
X27673D01*
Y124545D01*
X27683D01*
Y124586D01*
X27694D01*
Y124628D01*
X27704D01*
Y124669D01*
X27714D01*
Y124710D01*
X27724D01*
Y124751D01*
X27735D01*
Y124793D01*
X27745D01*
Y124834D01*
X27755D01*
Y124875D01*
X27766D01*
Y124917D01*
X27776D01*
Y124958D01*
X27786D01*
Y124999D01*
X27797D01*
Y125040D01*
X27807D01*
Y125082D01*
X27817D01*
Y125123D01*
X27828D01*
Y125164D01*
X27838D01*
Y125205D01*
X27848D01*
Y125236D01*
X27859D01*
Y125277D01*
X27869D01*
Y125319D01*
X27879D01*
Y125360D01*
X27890D01*
Y125401D01*
X27900D01*
Y125443D01*
X27910D01*
Y125484D01*
X27920D01*
Y125525D01*
X27931D01*
Y125566D01*
X27941D01*
Y125608D01*
X27951D01*
Y125649D01*
X27962D01*
Y125690D01*
X27972D01*
Y125731D01*
X27982D01*
Y125773D01*
X27993D01*
Y125814D01*
X28003D01*
Y125855D01*
X28013D01*
Y125896D01*
X28024D01*
Y125938D01*
X28034D01*
Y125979D01*
X28044D01*
Y126020D01*
X28055D01*
Y126061D01*
X28065D01*
Y126103D01*
X28075D01*
Y126144D01*
X28086D01*
Y126185D01*
X28096D01*
Y126226D01*
X28106D01*
Y126268D01*
X28117D01*
Y126309D01*
X28127D01*
Y126350D01*
X28137D01*
Y126391D01*
X28147D01*
Y126433D01*
X28158D01*
Y126474D01*
X28168D01*
Y126515D01*
X28178D01*
Y126557D01*
X28189D01*
Y126598D01*
X28199D01*
Y126639D01*
X28209D01*
Y126680D01*
X28220D01*
Y126722D01*
X28230D01*
Y126763D01*
X28240D01*
Y126804D01*
X28251D01*
Y126845D01*
X28261D01*
Y126887D01*
X28271D01*
Y126928D01*
X28282D01*
Y126969D01*
X28292D01*
Y127010D01*
X28302D01*
Y127052D01*
X28312D01*
Y127093D01*
X28323D01*
Y127134D01*
X28333D01*
Y127175D01*
X28343D01*
Y127217D01*
X28354D01*
Y127258D01*
X28364D01*
Y127299D01*
X28374D01*
Y127340D01*
X28385D01*
Y127382D01*
X28395D01*
Y127423D01*
X28405D01*
Y127464D01*
X28416D01*
Y127505D01*
X28426D01*
Y127547D01*
X28436D01*
Y127588D01*
X28446D01*
Y127629D01*
X28457D01*
Y127670D01*
X28467D01*
Y127701D01*
X28477D01*
Y127743D01*
X28488D01*
Y127784D01*
X28498D01*
Y127825D01*
X28508D01*
Y127866D01*
X28519D01*
Y127908D01*
X28529D01*
Y127949D01*
X28539D01*
Y127990D01*
X28550D01*
Y128031D01*
X28560D01*
Y128073D01*
X28570D01*
Y128114D01*
X28581D01*
Y128155D01*
X28591D01*
Y128197D01*
X28601D01*
Y128238D01*
X28612D01*
Y128279D01*
X28622D01*
Y128320D01*
X28632D01*
Y128361D01*
X28642D01*
Y128403D01*
X28653D01*
Y128444D01*
X28663D01*
Y128485D01*
X28673D01*
Y128526D01*
X28684D01*
Y128568D01*
X28694D01*
Y128609D01*
X28704D01*
Y128650D01*
X28715D01*
Y128691D01*
X28725D01*
Y128723D01*
X28735D01*
Y128733D01*
X30375D01*
Y128681D01*
X30365D01*
Y128640D01*
X30355D01*
Y128599D01*
X30344D01*
Y128557D01*
X30334D01*
Y128516D01*
X30324D01*
Y128475D01*
X30313D01*
Y128434D01*
X30303D01*
Y128392D01*
X30293D01*
Y128351D01*
X30283D01*
Y128310D01*
X30272D01*
Y128269D01*
X30262D01*
Y128217D01*
X30252D01*
Y128197D01*
X30272D01*
Y128207D01*
X30283D01*
Y128217D01*
X30293D01*
Y128227D01*
X30303D01*
Y128238D01*
X30313D01*
Y128258D01*
X30324D01*
Y128269D01*
X30334D01*
Y128279D01*
X30344D01*
Y128289D01*
X30355D01*
Y128300D01*
X30365D01*
Y128310D01*
X30375D01*
Y128320D01*
X30386D01*
Y128341D01*
X30396D01*
Y128351D01*
X30406D01*
Y128361D01*
X30417D01*
Y128372D01*
X30427D01*
Y128382D01*
X30437D01*
Y128392D01*
X30448D01*
Y128403D01*
X30468D01*
Y128413D01*
X30478D01*
Y128423D01*
X30489D01*
Y128434D01*
X30499D01*
Y128444D01*
X30509D01*
Y128454D01*
X30520D01*
Y128465D01*
X30530D01*
Y128475D01*
X30540D01*
Y128485D01*
X30561D01*
Y128496D01*
X30571D01*
Y128506D01*
X30582D01*
Y128516D01*
X30602D01*
Y128526D01*
X30612D01*
Y128537D01*
X30623D01*
Y128547D01*
X30643D01*
Y128557D01*
X30654D01*
Y128568D01*
X30674D01*
Y128578D01*
X30685D01*
Y128588D01*
X30705D01*
Y128599D01*
X30726D01*
Y128609D01*
X30736D01*
Y128619D01*
X30757D01*
Y128630D01*
X30777D01*
Y128640D01*
X30798D01*
Y128650D01*
X30808D01*
Y128661D01*
X30829D01*
Y128671D01*
X30850D01*
Y128681D01*
X30870D01*
Y128691D01*
X30901D01*
Y128702D01*
X30922D01*
Y128712D01*
X30943D01*
Y128723D01*
X30974D01*
Y128733D01*
X31005D01*
Y128743D01*
X31035D01*
Y128753D01*
X31066D01*
Y128764D01*
X31097D01*
Y128774D01*
X31128D01*
Y128784D01*
X31170D01*
Y128795D01*
X31211D01*
Y128805D01*
X31262D01*
Y128815D01*
X31324D01*
Y128826D01*
X31396D01*
Y128836D01*
X31510D01*
Y128846D01*
X31850D01*
Y128836D01*
X31964D01*
Y128826D01*
X32046D01*
Y128815D01*
X32108D01*
Y128805D01*
X32149D01*
Y128795D01*
X32191D01*
Y128784D01*
X32232D01*
Y128774D01*
X32263D01*
Y128764D01*
X32294D01*
Y128753D01*
X32314D01*
Y128743D01*
X32345D01*
Y128733D01*
X32366D01*
Y128723D01*
X32386D01*
Y128712D01*
X32407D01*
Y128702D01*
X32428D01*
Y128691D01*
X32438D01*
Y128681D01*
X32459D01*
Y128671D01*
X32469D01*
Y128661D01*
X32479D01*
Y128650D01*
X32500D01*
Y128640D01*
X32510D01*
Y128630D01*
X32521D01*
Y128619D01*
X32531D01*
Y128609D01*
X32541D01*
Y128599D01*
X32552D01*
Y128588D01*
X32562D01*
Y128578D01*
X32572D01*
Y128568D01*
X32583D01*
Y128557D01*
X32593D01*
Y128547D01*
X32603D01*
Y128526D01*
X32614D01*
Y128516D01*
X32624D01*
Y128506D01*
X32634D01*
Y128485D01*
X32644D01*
Y128475D01*
X32655D01*
Y128454D01*
X32665D01*
Y128434D01*
X32675D01*
Y128413D01*
X32686D01*
Y128392D01*
X32696D01*
Y128372D01*
X32706D01*
Y128341D01*
X32717D01*
Y128310D01*
X32727D01*
Y128279D01*
X32737D01*
Y128248D01*
X32748D01*
Y128197D01*
X32758D01*
Y128176D01*
X32768D01*
Y128186D01*
X32778D01*
Y128197D01*
X32789D01*
Y128217D01*
X32799D01*
Y128227D01*
X32809D01*
Y128238D01*
X32820D01*
Y128248D01*
X32830D01*
Y128258D01*
X32840D01*
Y128269D01*
X32851D01*
Y128279D01*
X32861D01*
Y128289D01*
X32871D01*
Y128300D01*
X32882D01*
Y128310D01*
X32892D01*
Y128320D01*
X32902D01*
Y128331D01*
X32913D01*
Y128341D01*
X32923D01*
Y128351D01*
X32933D01*
Y128361D01*
X32943D01*
Y128372D01*
X32954D01*
Y128382D01*
X32964D01*
Y128392D01*
X32974D01*
Y128403D01*
X32985D01*
Y128413D01*
X32995D01*
Y128423D01*
X33005D01*
Y128434D01*
X33016D01*
Y128444D01*
X33036D01*
Y128454D01*
X33047D01*
Y128465D01*
X33057D01*
Y128475D01*
X33067D01*
Y128485D01*
X33088D01*
Y128496D01*
X33098D01*
Y128506D01*
X33108D01*
Y128516D01*
X33129D01*
Y128526D01*
X33140D01*
Y128537D01*
X33160D01*
Y128547D01*
X33170D01*
Y128557D01*
X33191D01*
Y128568D01*
X33201D01*
Y128578D01*
X33222D01*
Y128588D01*
X33243D01*
Y128599D01*
X33253D01*
Y128609D01*
X33274D01*
Y128619D01*
X33294D01*
Y128630D01*
X33315D01*
Y128640D01*
X33335D01*
Y128650D01*
X33356D01*
Y128661D01*
X33377D01*
Y128671D01*
X33397D01*
Y128681D01*
X33418D01*
Y128691D01*
X33449D01*
Y128702D01*
X33480D01*
Y128712D01*
X33500D01*
Y128723D01*
X33531D01*
Y128733D01*
X33562D01*
Y128743D01*
X33593D01*
Y128753D01*
X33624D01*
Y128764D01*
X33665D01*
Y128774D01*
X33696D01*
Y128784D01*
X33738D01*
Y128795D01*
X33779D01*
Y128805D01*
X33830D01*
Y128815D01*
X33892D01*
Y128826D01*
X33965D01*
Y128836D01*
X34068D01*
Y128846D01*
X34408D01*
Y128836D01*
D02*
G37*
G36*
X27920Y128702D02*
X27910D01*
Y128661D01*
X27900D01*
Y128619D01*
X27890D01*
Y128578D01*
X27879D01*
Y128537D01*
X27869D01*
Y128496D01*
X27859D01*
Y128454D01*
X27848D01*
Y128413D01*
X27838D01*
Y128372D01*
X27828D01*
Y128331D01*
X27817D01*
Y128289D01*
X27807D01*
Y128248D01*
X27797D01*
Y128207D01*
X27786D01*
Y128165D01*
X27776D01*
Y128124D01*
X27766D01*
Y128083D01*
X27755D01*
Y128042D01*
X27745D01*
Y128000D01*
X27735D01*
Y127959D01*
X27724D01*
Y127918D01*
X27714D01*
Y127877D01*
X27704D01*
Y127835D01*
X27694D01*
Y127794D01*
X27683D01*
Y127753D01*
X27673D01*
Y127712D01*
X27663D01*
Y127670D01*
X27652D01*
Y127629D01*
X27642D01*
Y127588D01*
X27632D01*
Y127547D01*
X27621D01*
Y127505D01*
X27611D01*
Y127464D01*
X27601D01*
Y127423D01*
X27590D01*
Y127382D01*
X27580D01*
Y127340D01*
X27570D01*
Y127299D01*
X27560D01*
Y127258D01*
X27549D01*
Y127217D01*
X27539D01*
Y127175D01*
X27529D01*
Y127134D01*
X27518D01*
Y127093D01*
X27508D01*
Y127052D01*
X27498D01*
Y127010D01*
X27487D01*
Y126969D01*
X27477D01*
Y126928D01*
X27467D01*
Y126887D01*
X27456D01*
Y126845D01*
X27446D01*
Y126804D01*
X27436D01*
Y126763D01*
X27425D01*
Y126722D01*
X27415D01*
Y126680D01*
X27405D01*
Y126639D01*
X27395D01*
Y126598D01*
X27384D01*
Y126557D01*
X27374D01*
Y126515D01*
X27363D01*
Y126474D01*
X27353D01*
Y126433D01*
X27343D01*
Y126391D01*
X27333D01*
Y126350D01*
X27322D01*
Y126309D01*
X27312D01*
Y126268D01*
X27302D01*
Y126226D01*
X27291D01*
Y126185D01*
X27281D01*
Y126144D01*
X27271D01*
Y126103D01*
X27260D01*
Y126061D01*
X27250D01*
Y126020D01*
X27240D01*
Y125979D01*
X27229D01*
Y125938D01*
X27219D01*
Y125896D01*
X27209D01*
Y125855D01*
X27198D01*
Y125814D01*
X27188D01*
Y125773D01*
X27178D01*
Y125731D01*
X27168D01*
Y125690D01*
X27157D01*
Y125649D01*
X27147D01*
Y125608D01*
X27137D01*
Y125566D01*
X27126D01*
Y125525D01*
X27116D01*
Y125484D01*
X27106D01*
Y125443D01*
X27095D01*
Y125401D01*
X27085D01*
Y125360D01*
X27075D01*
Y125319D01*
X27064D01*
Y125277D01*
X27054D01*
Y125236D01*
X27044D01*
Y125195D01*
X27033D01*
Y125154D01*
X27023D01*
Y125112D01*
X27013D01*
Y125071D01*
X27003D01*
Y125030D01*
X26992D01*
Y124989D01*
X26982D01*
Y124948D01*
X26972D01*
Y124906D01*
X26961D01*
Y124865D01*
X26951D01*
Y124824D01*
X26941D01*
Y124782D01*
X26930D01*
Y124741D01*
X26920D01*
Y124700D01*
X26910D01*
Y124659D01*
X26899D01*
Y124617D01*
X26889D01*
Y124576D01*
X26879D01*
Y124535D01*
X26869D01*
Y124494D01*
X26858D01*
Y124452D01*
X26848D01*
Y124411D01*
X26838D01*
Y124370D01*
X26827D01*
Y124339D01*
X25198D01*
Y124380D01*
X25208D01*
Y124422D01*
X25218D01*
Y124473D01*
X25229D01*
Y124514D01*
X25239D01*
Y124556D01*
X25249D01*
Y124597D01*
X25259D01*
Y124638D01*
X25270D01*
Y124679D01*
X25280D01*
Y124721D01*
X25290D01*
Y124762D01*
X25301D01*
Y124803D01*
X25311D01*
Y124855D01*
X25321D01*
Y124865D01*
X25290D01*
Y124844D01*
X25280D01*
Y124834D01*
X25270D01*
Y124824D01*
X25259D01*
Y124813D01*
X25249D01*
Y124793D01*
X25239D01*
Y124782D01*
X25229D01*
Y124772D01*
X25218D01*
Y124762D01*
X25208D01*
Y124751D01*
X25198D01*
Y124741D01*
X25187D01*
Y124731D01*
X25177D01*
Y124721D01*
X25167D01*
Y124710D01*
X25156D01*
Y124700D01*
X25146D01*
Y124690D01*
X25136D01*
Y124679D01*
X25125D01*
Y124669D01*
X25115D01*
Y124659D01*
X25105D01*
Y124648D01*
X25094D01*
Y124638D01*
X25084D01*
Y124628D01*
X25074D01*
Y124617D01*
X25053D01*
Y124607D01*
X25043D01*
Y124597D01*
X25032D01*
Y124586D01*
X25022D01*
Y124576D01*
X25002D01*
Y124566D01*
X24991D01*
Y124556D01*
X24981D01*
Y124545D01*
X24960D01*
Y124535D01*
X24950D01*
Y124525D01*
X24940D01*
Y124514D01*
X24919D01*
Y124504D01*
X24909D01*
Y124494D01*
X24888D01*
Y124483D01*
X24878D01*
Y124473D01*
X24857D01*
Y124463D01*
X24837D01*
Y124452D01*
X24816D01*
Y124442D01*
X24806D01*
Y124432D01*
X24785D01*
Y124422D01*
X24764D01*
Y124411D01*
X24744D01*
Y124401D01*
X24723D01*
Y124390D01*
X24702D01*
Y124380D01*
X24671D01*
Y124370D01*
X24651D01*
Y124360D01*
X24620D01*
Y124349D01*
X24599D01*
Y124339D01*
X24568D01*
Y124329D01*
X24538D01*
Y124318D01*
X24507D01*
Y124308D01*
X24465D01*
Y124298D01*
X24434D01*
Y124287D01*
X24393D01*
Y124277D01*
X24341D01*
Y124267D01*
X24290D01*
Y124256D01*
X24228D01*
Y124246D01*
X24135D01*
Y124236D01*
X23939D01*
Y124225D01*
X23826D01*
Y124236D01*
X23661D01*
Y124246D01*
X23578D01*
Y124256D01*
X23527D01*
Y124267D01*
X23475D01*
Y124277D01*
X23434D01*
Y124287D01*
X23393D01*
Y124298D01*
X23362D01*
Y124308D01*
X23331D01*
Y124318D01*
X23300D01*
Y124329D01*
X23279D01*
Y124339D01*
X23258D01*
Y124349D01*
X23238D01*
Y124360D01*
X23207D01*
Y124370D01*
X23197D01*
Y124380D01*
X23176D01*
Y124390D01*
X23155D01*
Y124401D01*
X23135D01*
Y124411D01*
X23124D01*
Y124422D01*
X23104D01*
Y124432D01*
X23094D01*
Y124442D01*
X23083D01*
Y124452D01*
X23063D01*
Y124463D01*
X23052D01*
Y124473D01*
X23042D01*
Y124483D01*
X23032D01*
Y124494D01*
X23021D01*
Y124504D01*
X23001D01*
Y124514D01*
X22990D01*
Y124525D01*
X22980D01*
Y124535D01*
X22970D01*
Y124556D01*
X22959D01*
Y124566D01*
X22949D01*
Y124576D01*
X22939D01*
Y124597D01*
X22928D01*
Y124607D01*
X22918D01*
Y124628D01*
X22908D01*
Y124648D01*
X22897D01*
Y124669D01*
X22887D01*
Y124690D01*
X22877D01*
Y124721D01*
X22867D01*
Y124751D01*
X22856D01*
Y124793D01*
X22846D01*
Y124844D01*
X22836D01*
Y124948D01*
X22825D01*
Y125061D01*
X22836D01*
Y125185D01*
X22846D01*
Y125257D01*
X22856D01*
Y125319D01*
X22867D01*
Y125370D01*
X22877D01*
Y125412D01*
X22887D01*
Y125453D01*
X22897D01*
Y125494D01*
X22908D01*
Y125535D01*
X22918D01*
Y125577D01*
X22928D01*
Y125618D01*
X22939D01*
Y125659D01*
X22949D01*
Y125700D01*
X22959D01*
Y125742D01*
X22970D01*
Y125783D01*
X22980D01*
Y125824D01*
X22990D01*
Y125865D01*
X23001D01*
Y125907D01*
X23011D01*
Y125948D01*
X23021D01*
Y125989D01*
X23032D01*
Y126031D01*
X23042D01*
Y126072D01*
X23052D01*
Y126113D01*
X23063D01*
Y126154D01*
X23073D01*
Y126196D01*
X23083D01*
Y126237D01*
X23094D01*
Y126278D01*
X23104D01*
Y126319D01*
X23114D01*
Y126360D01*
X23124D01*
Y126402D01*
X23135D01*
Y126443D01*
X23145D01*
Y126484D01*
X23155D01*
Y126525D01*
X23166D01*
Y126567D01*
X23176D01*
Y126608D01*
X23186D01*
Y126649D01*
X23197D01*
Y126691D01*
X23207D01*
Y126732D01*
X23217D01*
Y126773D01*
X23227D01*
Y126814D01*
X23238D01*
Y126856D01*
X23248D01*
Y126897D01*
X23258D01*
Y126938D01*
X23269D01*
Y126979D01*
X23279D01*
Y127021D01*
X23289D01*
Y127062D01*
X23300D01*
Y127103D01*
X23310D01*
Y127144D01*
X23320D01*
Y127186D01*
X23331D01*
Y127227D01*
X23341D01*
Y127268D01*
X23351D01*
Y127309D01*
X23362D01*
Y127351D01*
X23372D01*
Y127392D01*
X23382D01*
Y127433D01*
X23393D01*
Y127474D01*
X23403D01*
Y127516D01*
X23413D01*
Y127557D01*
X23424D01*
Y127598D01*
X23434D01*
Y127639D01*
X23444D01*
Y127681D01*
X23455D01*
Y127722D01*
X23465D01*
Y127763D01*
X23475D01*
Y127805D01*
X23485D01*
Y127846D01*
X23496D01*
Y127887D01*
X23506D01*
Y127928D01*
X23516D01*
Y127970D01*
X23527D01*
Y128011D01*
X23537D01*
Y128052D01*
X23547D01*
Y128093D01*
X23558D01*
Y128135D01*
X23568D01*
Y128176D01*
X23578D01*
Y128217D01*
X23589D01*
Y128258D01*
X23599D01*
Y128300D01*
X23609D01*
Y128341D01*
X23619D01*
Y128382D01*
X23630D01*
Y128423D01*
X23640D01*
Y128465D01*
X23650D01*
Y128506D01*
X23661D01*
Y128547D01*
X23671D01*
Y128588D01*
X23681D01*
Y128630D01*
X23692D01*
Y128671D01*
X23702D01*
Y128712D01*
X23712D01*
Y128723D01*
X25342D01*
Y128681D01*
X25332D01*
Y128640D01*
X25321D01*
Y128599D01*
X25311D01*
Y128557D01*
X25301D01*
Y128516D01*
X25290D01*
Y128475D01*
X25280D01*
Y128434D01*
X25270D01*
Y128392D01*
X25259D01*
Y128351D01*
X25249D01*
Y128310D01*
X25239D01*
Y128269D01*
X25229D01*
Y128227D01*
X25218D01*
Y128186D01*
X25208D01*
Y128145D01*
X25198D01*
Y128104D01*
X25187D01*
Y128062D01*
X25177D01*
Y128021D01*
X25167D01*
Y127980D01*
X25156D01*
Y127939D01*
X25146D01*
Y127897D01*
X25136D01*
Y127856D01*
X25125D01*
Y127815D01*
X25115D01*
Y127774D01*
X25105D01*
Y127732D01*
X25094D01*
Y127691D01*
X25084D01*
Y127650D01*
X25074D01*
Y127609D01*
X25063D01*
Y127567D01*
X25053D01*
Y127526D01*
X25043D01*
Y127485D01*
X25032D01*
Y127444D01*
X25022D01*
Y127402D01*
X25012D01*
Y127361D01*
X25002D01*
Y127320D01*
X24991D01*
Y127278D01*
X24981D01*
Y127237D01*
X24971D01*
Y127196D01*
X24960D01*
Y127155D01*
X24950D01*
Y127113D01*
X24940D01*
Y127072D01*
X24929D01*
Y127031D01*
X24919D01*
Y126990D01*
X24909D01*
Y126948D01*
X24898D01*
Y126907D01*
X24888D01*
Y126876D01*
Y126866D01*
X24878D01*
Y126825D01*
X24868D01*
Y126783D01*
X24857D01*
Y126742D01*
X24847D01*
Y126701D01*
X24837D01*
Y126660D01*
X24826D01*
Y126618D01*
X24816D01*
Y126577D01*
X24806D01*
Y126536D01*
X24795D01*
Y126505D01*
X24785D01*
Y126464D01*
X24775D01*
Y126422D01*
X24764D01*
Y126381D01*
X24754D01*
Y126340D01*
X24744D01*
Y126299D01*
X24733D01*
Y126257D01*
X24723D01*
Y126216D01*
X24713D01*
Y126175D01*
X24702D01*
Y126134D01*
X24692D01*
Y126092D01*
X24682D01*
Y126051D01*
X24671D01*
Y126010D01*
X24661D01*
Y125969D01*
X24651D01*
Y125927D01*
X24641D01*
Y125886D01*
X24630D01*
Y125845D01*
X24620D01*
Y125804D01*
X24610D01*
Y125752D01*
X24599D01*
Y125690D01*
X24589D01*
Y125546D01*
X24599D01*
Y125504D01*
X24610D01*
Y125473D01*
X24620D01*
Y125453D01*
X24630D01*
Y125432D01*
X24641D01*
Y125412D01*
X24651D01*
Y125401D01*
X24661D01*
Y125391D01*
X24671D01*
Y125381D01*
X24682D01*
Y125370D01*
X24702D01*
Y125360D01*
X24713D01*
Y125350D01*
X24733D01*
Y125339D01*
X24764D01*
Y125329D01*
X24795D01*
Y125319D01*
X24847D01*
Y125309D01*
X25053D01*
Y125319D01*
X25115D01*
Y125329D01*
X25146D01*
Y125339D01*
X25177D01*
Y125350D01*
X25208D01*
Y125360D01*
X25229D01*
Y125370D01*
X25249D01*
Y125381D01*
X25270D01*
Y125391D01*
X25280D01*
Y125401D01*
X25301D01*
Y125412D01*
X25311D01*
Y125422D01*
X25321D01*
Y125432D01*
X25342D01*
Y125443D01*
X25352D01*
Y125453D01*
X25363D01*
Y125463D01*
X25373D01*
Y125473D01*
X25383D01*
Y125484D01*
X25394D01*
Y125494D01*
X25404D01*
Y125515D01*
X25414D01*
Y125525D01*
X25425D01*
Y125535D01*
X25435D01*
Y125556D01*
X25445D01*
Y125566D01*
X25455D01*
Y125587D01*
X25466D01*
Y125608D01*
X25476D01*
Y125628D01*
X25486D01*
Y125649D01*
X25497D01*
Y125670D01*
X25507D01*
Y125690D01*
X25517D01*
Y125721D01*
X25528D01*
Y125742D01*
X25538D01*
Y125783D01*
X25548D01*
Y125814D01*
X25559D01*
Y125855D01*
X25569D01*
Y125896D01*
X25579D01*
Y125938D01*
X25589D01*
Y125979D01*
X25600D01*
Y126020D01*
X25610D01*
Y126061D01*
X25620D01*
Y126103D01*
X25631D01*
Y126144D01*
X25641D01*
Y126185D01*
X25651D01*
Y126226D01*
X25662D01*
Y126268D01*
X25672D01*
Y126309D01*
X25682D01*
Y126350D01*
X25693D01*
Y126391D01*
X25703D01*
Y126433D01*
X25713D01*
Y126464D01*
X25724D01*
Y126505D01*
X25734D01*
Y126546D01*
X25744D01*
Y126587D01*
X25754D01*
Y126629D01*
X25765D01*
Y126670D01*
X25775D01*
Y126711D01*
X25785D01*
Y126752D01*
X25796D01*
Y126794D01*
X25806D01*
Y126835D01*
X25816D01*
Y126876D01*
X25827D01*
Y126918D01*
X25837D01*
Y126959D01*
X25847D01*
Y127000D01*
X25858D01*
Y127041D01*
X25868D01*
Y127083D01*
X25878D01*
Y127124D01*
X25889D01*
Y127165D01*
X25899D01*
Y127206D01*
X25909D01*
Y127248D01*
X25919D01*
Y127289D01*
X25930D01*
Y127330D01*
X25940D01*
Y127371D01*
X25951D01*
Y127413D01*
X25961D01*
Y127454D01*
X25971D01*
Y127495D01*
X25981D01*
Y127536D01*
X25992D01*
Y127578D01*
X26002D01*
Y127619D01*
X26012D01*
Y127660D01*
X26023D01*
Y127701D01*
X26033D01*
Y127743D01*
X26043D01*
Y127784D01*
X26054D01*
Y127825D01*
X26064D01*
Y127866D01*
X26074D01*
Y127908D01*
X26085D01*
Y127949D01*
X26095D01*
Y127990D01*
X26105D01*
Y128031D01*
X26116D01*
Y128073D01*
X26126D01*
Y128114D01*
X26136D01*
Y128155D01*
X26147D01*
Y128197D01*
X26157D01*
Y128238D01*
X26167D01*
Y128279D01*
X26177D01*
Y128320D01*
X26188D01*
Y128361D01*
X26198D01*
Y128403D01*
X26208D01*
Y128444D01*
X26219D01*
Y128485D01*
X26229D01*
Y128526D01*
X26239D01*
Y128568D01*
X26250D01*
Y128609D01*
X26260D01*
Y128650D01*
X26270D01*
Y128691D01*
X26281D01*
Y128723D01*
X27920D01*
Y128702D01*
D02*
G37*
G36*
X22970Y128712D02*
X22959D01*
Y128691D01*
Y128681D01*
Y128671D01*
X22949D01*
Y128630D01*
X22939D01*
Y128588D01*
X22928D01*
Y128547D01*
X22918D01*
Y128506D01*
X22908D01*
Y128465D01*
X22897D01*
Y128423D01*
X22887D01*
Y128382D01*
X22877D01*
Y128341D01*
X22867D01*
Y128300D01*
X22856D01*
Y128258D01*
X22846D01*
Y128217D01*
X22836D01*
Y128176D01*
X22825D01*
Y128135D01*
X22815D01*
Y128093D01*
X22805D01*
Y128052D01*
X22794D01*
Y128011D01*
X22784D01*
Y127970D01*
X22774D01*
Y127928D01*
X22763D01*
Y127887D01*
X22753D01*
Y127846D01*
X22743D01*
Y127805D01*
X22733D01*
Y127763D01*
X22722D01*
Y127722D01*
X22712D01*
Y127691D01*
X22702D01*
Y127650D01*
X22691D01*
Y127609D01*
X22681D01*
Y127567D01*
X22671D01*
Y127526D01*
X22660D01*
Y127485D01*
X22650D01*
Y127444D01*
X22640D01*
Y127402D01*
X22629D01*
Y127361D01*
X22619D01*
Y127320D01*
X22609D01*
Y127278D01*
X22598D01*
Y127237D01*
X22588D01*
Y127196D01*
X22578D01*
Y127155D01*
X22567D01*
Y127113D01*
X22557D01*
Y127072D01*
X22547D01*
Y127031D01*
X22536D01*
Y126990D01*
X22526D01*
Y126948D01*
X22516D01*
Y126907D01*
X22506D01*
Y126866D01*
X22495D01*
Y126825D01*
X22485D01*
Y126783D01*
X22475D01*
Y126742D01*
X22464D01*
Y126701D01*
X22454D01*
Y126660D01*
X22444D01*
Y126618D01*
X22433D01*
Y126577D01*
X22423D01*
Y126536D01*
X22413D01*
Y126495D01*
X22402D01*
Y126453D01*
X22392D01*
Y126412D01*
X22382D01*
Y126371D01*
X22372D01*
Y126330D01*
X22361D01*
Y126288D01*
X22351D01*
Y126247D01*
X22341D01*
Y126206D01*
X22330D01*
Y126165D01*
X22320D01*
Y126123D01*
X22310D01*
Y126082D01*
X22299D01*
Y126041D01*
X22289D01*
Y125999D01*
X22279D01*
Y125958D01*
X22268D01*
Y125917D01*
X22258D01*
Y125876D01*
X22248D01*
Y125835D01*
X22237D01*
Y125793D01*
X22227D01*
Y125752D01*
X22217D01*
Y125711D01*
X22207D01*
Y125670D01*
X22196D01*
Y125628D01*
X22186D01*
Y125587D01*
X22175D01*
Y125546D01*
X22165D01*
Y125504D01*
X22155D01*
Y125463D01*
X22145D01*
Y125422D01*
X22134D01*
Y125391D01*
X22124D01*
Y125350D01*
X22114D01*
Y125309D01*
X22103D01*
Y125267D01*
X22093D01*
Y125226D01*
X22083D01*
Y125185D01*
X22072D01*
Y125144D01*
X22062D01*
Y125102D01*
X22052D01*
Y125061D01*
X22041D01*
Y125020D01*
X22031D01*
Y124978D01*
X22021D01*
Y124937D01*
X22011D01*
Y124896D01*
X22000D01*
Y124855D01*
X21990D01*
Y124813D01*
X21980D01*
Y124772D01*
X21969D01*
Y124731D01*
X21959D01*
Y124690D01*
X21949D01*
Y124648D01*
X21938D01*
Y124607D01*
X21928D01*
Y124566D01*
X21918D01*
Y124525D01*
X21907D01*
Y124483D01*
X21897D01*
Y124442D01*
X21887D01*
Y124401D01*
X21876D01*
Y124360D01*
X21866D01*
Y124339D01*
X20236D01*
Y124370D01*
X20247D01*
Y124411D01*
X20257D01*
Y124452D01*
X20267D01*
Y124494D01*
X20278D01*
Y124535D01*
X20288D01*
Y124576D01*
X20298D01*
Y124617D01*
X20309D01*
Y124659D01*
X20319D01*
Y124700D01*
X20329D01*
Y124741D01*
X20340D01*
Y124782D01*
X20350D01*
Y124824D01*
X20360D01*
Y124865D01*
X20370D01*
Y124906D01*
X20381D01*
Y124948D01*
X20391D01*
Y124989D01*
X20402D01*
Y125030D01*
X20412D01*
Y125071D01*
X20422D01*
Y125112D01*
X20432D01*
Y125154D01*
X20443D01*
Y125195D01*
X20453D01*
Y125236D01*
X20463D01*
Y125277D01*
X20474D01*
Y125319D01*
X20484D01*
Y125360D01*
X20494D01*
Y125401D01*
X20505D01*
Y125443D01*
X20515D01*
Y125484D01*
X20525D01*
Y125525D01*
X20536D01*
Y125566D01*
X20546D01*
Y125608D01*
X20556D01*
Y125649D01*
X20567D01*
Y125690D01*
X20577D01*
Y125731D01*
X20587D01*
Y125773D01*
X20597D01*
Y125814D01*
X20608D01*
Y125855D01*
X20618D01*
Y125896D01*
X20628D01*
Y125938D01*
X20639D01*
Y125979D01*
X20649D01*
Y126020D01*
X20659D01*
Y126061D01*
X20670D01*
Y126103D01*
X20680D01*
Y126144D01*
X20690D01*
Y126185D01*
X20701D01*
Y126226D01*
X20711D01*
Y126268D01*
X20721D01*
Y126309D01*
X20731D01*
Y126350D01*
X20742D01*
Y126391D01*
X20752D01*
Y126433D01*
X20763D01*
Y126474D01*
X20773D01*
Y126515D01*
X20783D01*
Y126557D01*
X20793D01*
Y126598D01*
X20804D01*
Y126639D01*
X20814D01*
Y126680D01*
X20824D01*
Y126722D01*
X20835D01*
Y126763D01*
X20845D01*
Y126804D01*
X20855D01*
Y126845D01*
X20866D01*
Y126887D01*
X20876D01*
Y126928D01*
X20886D01*
Y126969D01*
X20897D01*
Y127010D01*
X20907D01*
Y127052D01*
X20917D01*
Y127093D01*
X20928D01*
Y127134D01*
X20938D01*
Y127175D01*
X20948D01*
Y127217D01*
X20958D01*
Y127258D01*
X20969D01*
Y127299D01*
X20979D01*
Y127340D01*
X20989D01*
Y127382D01*
X21000D01*
Y127423D01*
X21010D01*
Y127464D01*
X21020D01*
Y127505D01*
X21031D01*
Y127547D01*
X21041D01*
Y127588D01*
X21051D01*
Y127629D01*
X21062D01*
Y127670D01*
X21072D01*
Y127712D01*
X21082D01*
Y127753D01*
X21092D01*
Y127794D01*
X21103D01*
Y127835D01*
X21113D01*
Y127877D01*
X21124D01*
Y127918D01*
X21134D01*
Y127959D01*
X21144D01*
Y128000D01*
X21154D01*
Y128042D01*
X21165D01*
Y128083D01*
X21175D01*
Y128124D01*
X21185D01*
Y128165D01*
X21196D01*
Y128207D01*
X21206D01*
Y128248D01*
X21216D01*
Y128289D01*
X21227D01*
Y128331D01*
X21237D01*
Y128372D01*
X21247D01*
Y128413D01*
X21258D01*
Y128454D01*
X21268D01*
Y128496D01*
X21278D01*
Y128537D01*
X21289D01*
Y128578D01*
X21299D01*
Y128619D01*
X21309D01*
Y128661D01*
X21319D01*
Y128702D01*
X21330D01*
Y128723D01*
X22970D01*
Y128712D01*
D02*
G37*
G36*
X17978Y130084D02*
X17967D01*
Y130043D01*
X17957D01*
Y130001D01*
X17947D01*
Y129960D01*
X17936D01*
Y129919D01*
X17926D01*
Y129878D01*
X17916D01*
Y129836D01*
X17905D01*
Y129795D01*
X17895D01*
Y129754D01*
X17885D01*
Y129713D01*
X17875D01*
Y129671D01*
X17864D01*
Y129630D01*
X17854D01*
Y129589D01*
X17843D01*
Y129548D01*
X17833D01*
Y129506D01*
X17823D01*
Y129465D01*
X17813D01*
Y129434D01*
X17802D01*
Y129393D01*
X17792D01*
Y129352D01*
X17782D01*
Y129310D01*
X17771D01*
Y129269D01*
X17761D01*
Y129228D01*
X17751D01*
Y129187D01*
X17740D01*
Y129145D01*
X17730D01*
Y129104D01*
X17720D01*
Y129063D01*
X17709D01*
Y129022D01*
X17699D01*
Y128980D01*
X17689D01*
Y128939D01*
X17679D01*
Y128898D01*
X17668D01*
Y128857D01*
X17658D01*
Y128815D01*
X17648D01*
Y128774D01*
X17637D01*
Y128733D01*
X17627D01*
Y128691D01*
X17617D01*
Y128650D01*
X17606D01*
Y128609D01*
X17596D01*
Y128568D01*
X17586D01*
Y128526D01*
X17575D01*
Y128485D01*
X17565D01*
Y128444D01*
X17555D01*
Y128403D01*
X17544D01*
Y128361D01*
X17534D01*
Y128320D01*
X17524D01*
Y128279D01*
X17514D01*
Y128238D01*
X17503D01*
Y128197D01*
X17493D01*
Y128155D01*
X17483D01*
Y128114D01*
X17472D01*
Y128073D01*
X17462D01*
Y128031D01*
X17452D01*
Y127990D01*
X17441D01*
Y127949D01*
X17431D01*
Y127908D01*
X17421D01*
Y127866D01*
X17410D01*
Y127825D01*
X17400D01*
Y127784D01*
X17390D01*
Y127743D01*
X17379D01*
Y127701D01*
X17369D01*
Y127660D01*
X17359D01*
Y127619D01*
X17348D01*
Y127578D01*
X17338D01*
Y127536D01*
X17328D01*
Y127495D01*
X17318D01*
Y127454D01*
X17307D01*
Y127413D01*
X17297D01*
Y127371D01*
X17287D01*
Y127330D01*
X17276D01*
Y127289D01*
X17266D01*
Y127248D01*
X17256D01*
Y127217D01*
X17245D01*
Y127175D01*
X17235D01*
Y127134D01*
X17225D01*
Y127093D01*
X17214D01*
Y127052D01*
X17204D01*
Y127010D01*
X17194D01*
Y126969D01*
X17183D01*
Y126928D01*
X17173D01*
Y126887D01*
X17163D01*
Y126845D01*
X17153D01*
Y126804D01*
X17142D01*
Y126763D01*
X17132D01*
Y126722D01*
X17121D01*
Y126680D01*
X17111D01*
Y126639D01*
X17101D01*
Y126598D01*
X17091D01*
Y126557D01*
X17080D01*
Y126515D01*
X17070D01*
Y126474D01*
X17060D01*
Y126433D01*
X17049D01*
Y126391D01*
X17039D01*
Y126350D01*
X17029D01*
Y126309D01*
X17018D01*
Y126268D01*
X17008D01*
Y126226D01*
X16998D01*
Y126185D01*
X16987D01*
Y126144D01*
X16977D01*
Y126103D01*
X16967D01*
Y126061D01*
X16957D01*
Y126020D01*
X16946D01*
Y125979D01*
X16936D01*
Y125938D01*
X16926D01*
Y125896D01*
X16915D01*
Y125855D01*
X16905D01*
Y125814D01*
X16895D01*
Y125773D01*
X16884D01*
Y125731D01*
X16874D01*
Y125690D01*
X16864D01*
Y125649D01*
X16853D01*
Y125608D01*
X16843D01*
Y125566D01*
X16833D01*
Y125525D01*
X16822D01*
Y125484D01*
X16812D01*
Y125443D01*
X16802D01*
Y125401D01*
X16792D01*
Y125360D01*
X16781D01*
Y125319D01*
X16771D01*
Y125277D01*
X16761D01*
Y125236D01*
X16750D01*
Y125195D01*
X16740D01*
Y125154D01*
X16730D01*
Y125112D01*
X16719D01*
Y125071D01*
X16709D01*
Y125040D01*
X16699D01*
Y124999D01*
X16688D01*
Y124958D01*
X16678D01*
Y124917D01*
X16668D01*
Y124875D01*
X16657D01*
Y124834D01*
X16647D01*
Y124793D01*
X16637D01*
Y124751D01*
X16626D01*
Y124710D01*
X16616D01*
Y124669D01*
X16606D01*
Y124628D01*
X16596D01*
Y124586D01*
X16585D01*
Y124545D01*
X16575D01*
Y124504D01*
X16565D01*
Y124463D01*
X16554D01*
Y124422D01*
X16544D01*
Y124380D01*
X16534D01*
Y124339D01*
X14894D01*
Y124360D01*
X14904D01*
Y124390D01*
X14914D01*
Y124432D01*
X14925D01*
Y124473D01*
X14935D01*
Y124514D01*
X14945D01*
Y124556D01*
X14956D01*
Y124597D01*
X14966D01*
Y124638D01*
X14976D01*
Y124679D01*
X14987D01*
Y124721D01*
X14997D01*
Y124762D01*
X15007D01*
Y124803D01*
X15018D01*
Y124844D01*
X15028D01*
Y124886D01*
X15038D01*
Y124927D01*
X15048D01*
Y124968D01*
X15059D01*
Y125009D01*
X15069D01*
Y125051D01*
X15079D01*
Y125092D01*
X15090D01*
Y125133D01*
X15100D01*
Y125174D01*
X15110D01*
Y125216D01*
X15121D01*
Y125257D01*
X15131D01*
Y125298D01*
X15141D01*
Y125339D01*
X15152D01*
Y125381D01*
X15162D01*
Y125422D01*
X15172D01*
Y125463D01*
X15182D01*
Y125504D01*
X15193D01*
Y125546D01*
X15203D01*
Y125587D01*
X15213D01*
Y125628D01*
X15224D01*
Y125670D01*
X15234D01*
Y125711D01*
X15244D01*
Y125752D01*
X15255D01*
Y125793D01*
X15265D01*
Y125835D01*
X15275D01*
Y125876D01*
X15286D01*
Y125917D01*
X15296D01*
Y125958D01*
X15306D01*
Y125999D01*
X15317D01*
Y126041D01*
X15327D01*
Y126082D01*
X15337D01*
Y126123D01*
X15348D01*
Y126165D01*
X15358D01*
Y126206D01*
X15368D01*
Y126247D01*
X15379D01*
Y126288D01*
X15389D01*
Y126330D01*
X15399D01*
Y126371D01*
X15409D01*
Y126412D01*
X15420D01*
Y126453D01*
X15430D01*
Y126495D01*
X15440D01*
Y126536D01*
X15451D01*
Y126577D01*
X15461D01*
Y126618D01*
X15471D01*
Y126660D01*
X15482D01*
Y126701D01*
X15492D01*
Y126742D01*
X15502D01*
Y126783D01*
X15513D01*
Y126825D01*
X15523D01*
Y126866D01*
X15533D01*
Y126907D01*
X15543D01*
Y126948D01*
X15554D01*
Y126990D01*
X15564D01*
Y127031D01*
X15574D01*
Y127072D01*
X15585D01*
Y127113D01*
X15595D01*
Y127155D01*
X15605D01*
Y127196D01*
X15616D01*
Y127237D01*
X15626D01*
Y127278D01*
X15636D01*
Y127320D01*
X15647D01*
Y127361D01*
X15657D01*
Y127402D01*
X15667D01*
Y127444D01*
X15678D01*
Y127485D01*
X15688D01*
Y127526D01*
X15698D01*
Y127567D01*
X15709D01*
Y127609D01*
X15719D01*
Y127650D01*
X15729D01*
Y127691D01*
X15739D01*
Y127732D01*
X15750D01*
Y127774D01*
X15760D01*
Y127815D01*
X15770D01*
Y127856D01*
X15781D01*
Y127897D01*
X15791D01*
Y127939D01*
X15801D01*
Y127980D01*
X15812D01*
Y128021D01*
X15822D01*
Y128062D01*
X15832D01*
Y128104D01*
X15843D01*
Y128145D01*
X15853D01*
Y128186D01*
X15863D01*
Y128227D01*
X15874D01*
Y128269D01*
X15884D01*
Y128310D01*
X15894D01*
Y128351D01*
X15904D01*
Y128392D01*
X15915D01*
Y128434D01*
X15925D01*
Y128475D01*
X15935D01*
Y128516D01*
X15946D01*
Y128557D01*
X15956D01*
Y128599D01*
X15966D01*
Y128640D01*
X15977D01*
Y128681D01*
X15987D01*
Y128723D01*
X15997D01*
Y128764D01*
X16008D01*
Y128805D01*
X16018D01*
Y128846D01*
X16028D01*
Y128887D01*
X16039D01*
Y128929D01*
X16049D01*
Y128970D01*
X16059D01*
Y129011D01*
X16070D01*
Y129052D01*
X16080D01*
Y129094D01*
X16090D01*
Y129135D01*
X16101D01*
Y129176D01*
X16111D01*
Y129218D01*
X16121D01*
Y129259D01*
X16131D01*
Y129300D01*
X16142D01*
Y129341D01*
X16152D01*
Y129383D01*
X16162D01*
Y129424D01*
X16173D01*
Y129465D01*
X16183D01*
Y129506D01*
X16193D01*
Y129548D01*
X16204D01*
Y129589D01*
X16214D01*
Y129630D01*
X16224D01*
Y129671D01*
X16235D01*
Y129713D01*
X16245D01*
Y129754D01*
X16255D01*
Y129795D01*
X16265D01*
Y129836D01*
X16276D01*
Y129878D01*
X16286D01*
Y129919D01*
X16296D01*
Y129960D01*
X16307D01*
Y130001D01*
X16317D01*
Y130043D01*
X16327D01*
Y130084D01*
X16338D01*
Y130125D01*
X17978D01*
Y130084D01*
D02*
G37*
G36*
X14326Y130094D02*
X14337D01*
Y129826D01*
X14347D01*
Y129548D01*
X14357D01*
Y129279D01*
X14368D01*
Y129001D01*
X14378D01*
Y128733D01*
X14388D01*
Y128454D01*
X14399D01*
Y128186D01*
X14409D01*
Y127908D01*
X14419D01*
Y127639D01*
X14430D01*
Y127361D01*
X14440D01*
Y127093D01*
X14450D01*
Y126814D01*
X14460D01*
Y126546D01*
X14471D01*
Y126268D01*
X14481D01*
Y125999D01*
X14491D01*
Y125721D01*
X14502D01*
Y125453D01*
X14512D01*
Y125174D01*
X14522D01*
Y124906D01*
X14533D01*
Y124628D01*
X14543D01*
Y124360D01*
X14553D01*
Y124339D01*
X12666D01*
Y124483D01*
X12676D01*
Y124679D01*
X12686D01*
Y124865D01*
X12697D01*
Y125061D01*
X12707D01*
Y125247D01*
X12717D01*
Y125339D01*
X11304D01*
Y125319D01*
X11294D01*
Y125298D01*
X11284D01*
Y125277D01*
X11273D01*
Y125257D01*
X11263D01*
Y125226D01*
X11253D01*
Y125205D01*
X11242D01*
Y125185D01*
X11232D01*
Y125164D01*
X11222D01*
Y125133D01*
X11212D01*
Y125112D01*
X11201D01*
Y125092D01*
X11191D01*
Y125061D01*
X11181D01*
Y125040D01*
X11170D01*
Y125020D01*
X11160D01*
Y124999D01*
X11150D01*
Y124968D01*
X11139D01*
Y124948D01*
X11129D01*
Y124927D01*
X11119D01*
Y124906D01*
X11108D01*
Y124875D01*
X11098D01*
Y124855D01*
X11088D01*
Y124834D01*
X11077D01*
Y124803D01*
X11067D01*
Y124782D01*
X11057D01*
Y124762D01*
X11046D01*
Y124741D01*
X11036D01*
Y124710D01*
X11026D01*
Y124690D01*
X11016D01*
Y124669D01*
X11005D01*
Y124648D01*
X10995D01*
Y124617D01*
X10985D01*
Y124597D01*
X10974D01*
Y124576D01*
X10964D01*
Y124545D01*
X10954D01*
Y124525D01*
X10943D01*
Y124504D01*
X10933D01*
Y124483D01*
X10923D01*
Y124452D01*
X10912D01*
Y124432D01*
X10902D01*
Y124411D01*
X10892D01*
Y124390D01*
X10881D01*
Y124360D01*
X10871D01*
Y124339D01*
X8984D01*
Y124349D01*
X8994D01*
Y124370D01*
X9004D01*
Y124390D01*
X9015D01*
Y124411D01*
X9025D01*
Y124432D01*
X9035D01*
Y124442D01*
X9046D01*
Y124463D01*
X9056D01*
Y124483D01*
X9066D01*
Y124504D01*
X9076D01*
Y124525D01*
X9087D01*
Y124545D01*
X9097D01*
Y124566D01*
X9107D01*
Y124576D01*
X9118D01*
Y124597D01*
X9128D01*
Y124617D01*
X9138D01*
Y124638D01*
X9149D01*
Y124659D01*
X9159D01*
Y124679D01*
X9169D01*
Y124700D01*
X9180D01*
Y124721D01*
X9190D01*
Y124731D01*
X9200D01*
Y124751D01*
X9211D01*
Y124772D01*
X9221D01*
Y124793D01*
X9231D01*
Y124813D01*
X9241D01*
Y124834D01*
X9252D01*
Y124855D01*
X9262D01*
Y124865D01*
X9273D01*
Y124886D01*
X9283D01*
Y124906D01*
X9293D01*
Y124927D01*
X9303D01*
Y124948D01*
X9314D01*
Y124968D01*
X9324D01*
Y124989D01*
X9334D01*
Y124999D01*
X9345D01*
Y125020D01*
X9355D01*
Y125040D01*
X9365D01*
Y125061D01*
X9376D01*
Y125082D01*
X9386D01*
Y125102D01*
X9396D01*
Y125123D01*
X9407D01*
Y125144D01*
X9417D01*
Y125154D01*
X9427D01*
Y125174D01*
X9437D01*
Y125195D01*
X9448D01*
Y125216D01*
X9458D01*
Y125236D01*
X9468D01*
Y125257D01*
X9479D01*
Y125277D01*
X9489D01*
Y125288D01*
X9499D01*
Y125309D01*
X9510D01*
Y125329D01*
X9520D01*
Y125350D01*
X9530D01*
Y125370D01*
X9541D01*
Y125391D01*
X9551D01*
Y125412D01*
X9561D01*
Y125422D01*
X9572D01*
Y125443D01*
X9582D01*
Y125463D01*
X9592D01*
Y125484D01*
X9602D01*
Y125504D01*
X9613D01*
Y125525D01*
X9623D01*
Y125546D01*
X9634D01*
Y125556D01*
X9644D01*
Y125577D01*
X9654D01*
Y125597D01*
X9664D01*
Y125618D01*
X9675D01*
Y125638D01*
X9685D01*
Y125659D01*
X9695D01*
Y125680D01*
X9706D01*
Y125700D01*
X9716D01*
Y125711D01*
X9726D01*
Y125731D01*
X9737D01*
Y125752D01*
X9747D01*
Y125773D01*
X9757D01*
Y125793D01*
X9768D01*
Y125814D01*
X9778D01*
Y125835D01*
X9788D01*
Y125845D01*
X9798D01*
Y125865D01*
X9809D01*
Y125886D01*
X9819D01*
Y125907D01*
X9829D01*
Y125927D01*
X9840D01*
Y125948D01*
X9850D01*
Y125969D01*
X9860D01*
Y125979D01*
X9871D01*
Y125999D01*
X9881D01*
Y126020D01*
X9891D01*
Y126041D01*
X9902D01*
Y126061D01*
X9912D01*
Y126082D01*
X9922D01*
Y126103D01*
X9933D01*
Y126123D01*
X9943D01*
Y126134D01*
X9953D01*
Y126154D01*
X9963D01*
Y126175D01*
X9974D01*
Y126196D01*
X9984D01*
Y126216D01*
X9995D01*
Y126237D01*
X10005D01*
Y126257D01*
X10015D01*
Y126268D01*
X10025D01*
Y126288D01*
X10036D01*
Y126309D01*
X10046D01*
Y126330D01*
X10056D01*
Y126350D01*
X10067D01*
Y126371D01*
X10077D01*
Y126391D01*
X10087D01*
Y126402D01*
X10098D01*
Y126422D01*
X10108D01*
Y126443D01*
X10118D01*
Y126464D01*
X10129D01*
Y126484D01*
X10139D01*
Y126505D01*
X10149D01*
Y126525D01*
X10159D01*
Y126536D01*
X10170D01*
Y126557D01*
X10180D01*
Y126577D01*
X10190D01*
Y126598D01*
X10201D01*
Y126618D01*
X10211D01*
Y126639D01*
X10221D01*
Y126660D01*
X10232D01*
Y126680D01*
X10242D01*
Y126691D01*
X10252D01*
Y126711D01*
X10263D01*
Y126732D01*
X10273D01*
Y126752D01*
X10283D01*
Y126773D01*
X10294D01*
Y126794D01*
X10304D01*
Y126814D01*
X10314D01*
Y126825D01*
X10324D01*
Y126845D01*
X10335D01*
Y126866D01*
X10345D01*
Y126887D01*
X10355D01*
Y126907D01*
X10366D01*
Y126928D01*
X10376D01*
Y126948D01*
X10386D01*
Y126959D01*
X10397D01*
Y126979D01*
X10407D01*
Y127000D01*
X10417D01*
Y127021D01*
X10428D01*
Y127041D01*
X10438D01*
Y127062D01*
X10448D01*
Y127083D01*
X10459D01*
Y127103D01*
X10469D01*
Y127113D01*
X10479D01*
Y127134D01*
X10490D01*
Y127155D01*
X10500D01*
Y127175D01*
X10510D01*
Y127196D01*
X10520D01*
Y127217D01*
X10531D01*
Y127237D01*
X10541D01*
Y127248D01*
X10551D01*
Y127268D01*
X10562D01*
Y127289D01*
X10572D01*
Y127309D01*
X10582D01*
Y127330D01*
X10593D01*
Y127351D01*
X10603D01*
Y127371D01*
X10613D01*
Y127382D01*
X10624D01*
Y127402D01*
X10634D01*
Y127423D01*
X10644D01*
Y127444D01*
X10655D01*
Y127464D01*
X10665D01*
Y127485D01*
X10675D01*
Y127505D01*
X10685D01*
Y127516D01*
X10696D01*
Y127536D01*
X10706D01*
Y127557D01*
X10716D01*
Y127578D01*
X10727D01*
Y127598D01*
X10737D01*
Y127619D01*
X10747D01*
Y127639D01*
X10758D01*
Y127660D01*
X10768D01*
Y127670D01*
X10778D01*
Y127691D01*
X10789D01*
Y127712D01*
X10799D01*
Y127732D01*
X10809D01*
Y127753D01*
X10820D01*
Y127774D01*
X10830D01*
Y127794D01*
X10840D01*
Y127805D01*
X10851D01*
Y127825D01*
X10861D01*
Y127846D01*
X10871D01*
Y127866D01*
X10881D01*
Y127887D01*
X10892D01*
Y127908D01*
X10902D01*
Y127928D01*
X10912D01*
Y127939D01*
X10923D01*
Y127959D01*
X10933D01*
Y127980D01*
X10943D01*
Y128000D01*
X10954D01*
Y128021D01*
X10964D01*
Y128042D01*
X10974D01*
Y128062D01*
X10985D01*
Y128083D01*
X10995D01*
Y128093D01*
X11005D01*
Y128114D01*
X11016D01*
Y128135D01*
X11026D01*
Y128155D01*
X11036D01*
Y128176D01*
X11046D01*
Y128197D01*
X11057D01*
Y128217D01*
X11067D01*
Y128227D01*
X11077D01*
Y128248D01*
X11088D01*
Y128269D01*
X11098D01*
Y128289D01*
X11108D01*
Y128310D01*
X11119D01*
Y128331D01*
X11129D01*
Y128351D01*
X11139D01*
Y128361D01*
X11150D01*
Y128382D01*
X11160D01*
Y128403D01*
X11170D01*
Y128423D01*
X11181D01*
Y128444D01*
X11191D01*
Y128465D01*
X11201D01*
Y128485D01*
X11212D01*
Y128496D01*
X11222D01*
Y128516D01*
X11232D01*
Y128537D01*
X11242D01*
Y128557D01*
X11253D01*
Y128578D01*
X11263D01*
Y128599D01*
X11273D01*
Y128619D01*
X11284D01*
Y128640D01*
X11294D01*
Y128650D01*
X11304D01*
Y128671D01*
X11315D01*
Y128691D01*
X11325D01*
Y128712D01*
X11335D01*
Y128733D01*
X11346D01*
Y128753D01*
X11356D01*
Y128774D01*
X11366D01*
Y128784D01*
X11377D01*
Y128805D01*
X11387D01*
Y128826D01*
X11397D01*
Y128846D01*
X11407D01*
Y128867D01*
X11418D01*
Y128887D01*
X11428D01*
Y128908D01*
X11438D01*
Y128918D01*
X11449D01*
Y128939D01*
X11459D01*
Y128960D01*
X11469D01*
Y128980D01*
X11480D01*
Y129001D01*
X11490D01*
Y129011D01*
X11500D01*
Y129032D01*
X11511D01*
Y129052D01*
X11521D01*
Y129063D01*
X11531D01*
Y129084D01*
X11542D01*
Y129094D01*
X11552D01*
Y129114D01*
X11562D01*
Y129125D01*
X11573D01*
Y129145D01*
X11583D01*
Y129156D01*
X11593D01*
Y129176D01*
X11603D01*
Y129187D01*
X11614D01*
Y129207D01*
X11624D01*
Y129218D01*
X11634D01*
Y129228D01*
X11645D01*
Y129248D01*
X11655D01*
Y129259D01*
X11665D01*
Y129269D01*
X11676D01*
Y129279D01*
X11686D01*
Y129300D01*
X11696D01*
Y129310D01*
X11707D01*
Y129321D01*
X11717D01*
Y129331D01*
X11727D01*
Y129341D01*
X11738D01*
Y129362D01*
X11748D01*
Y129372D01*
X11758D01*
Y129383D01*
X11768D01*
Y129393D01*
X11779D01*
Y129403D01*
X11789D01*
Y129413D01*
X11799D01*
Y129424D01*
X11810D01*
Y129434D01*
X11820D01*
Y129445D01*
X11830D01*
Y129455D01*
X11841D01*
Y129465D01*
X11851D01*
Y129475D01*
X11861D01*
Y129486D01*
X11872D01*
Y129496D01*
X11882D01*
Y129506D01*
X11892D01*
Y129517D01*
X11903D01*
Y129527D01*
X11913D01*
Y129537D01*
X11923D01*
Y129548D01*
X11934D01*
Y129558D01*
X11944D01*
Y129568D01*
X11954D01*
Y129578D01*
X11964D01*
Y129589D01*
X11985D01*
Y129599D01*
X11995D01*
Y129610D01*
X12006D01*
Y129620D01*
X12016D01*
Y129630D01*
X12026D01*
Y129640D01*
X12047D01*
Y129651D01*
X12057D01*
Y129661D01*
X12068D01*
Y129671D01*
X12078D01*
Y129682D01*
X12099D01*
Y129692D01*
X12109D01*
Y129702D01*
X12129D01*
Y129713D01*
X12140D01*
Y129723D01*
X12150D01*
Y129733D01*
X12171D01*
Y129744D01*
X12181D01*
Y129754D01*
X12202D01*
Y129764D01*
X12212D01*
Y129774D01*
X12233D01*
Y129785D01*
X12243D01*
Y129795D01*
X12264D01*
Y129806D01*
X12284D01*
Y129816D01*
X12295D01*
Y129826D01*
X12315D01*
Y129836D01*
X12336D01*
Y129847D01*
X12356D01*
Y129857D01*
X12367D01*
Y129867D01*
X12387D01*
Y129878D01*
X12408D01*
Y129888D01*
X12429D01*
Y129898D01*
X12449D01*
Y129909D01*
X12470D01*
Y129919D01*
X12490D01*
Y129929D01*
X12521D01*
Y129940D01*
X12542D01*
Y129950D01*
X12563D01*
Y129960D01*
X12594D01*
Y129971D01*
X12614D01*
Y129981D01*
X12645D01*
Y129991D01*
X12676D01*
Y130001D01*
X12697D01*
Y130012D01*
X12728D01*
Y130022D01*
X12769D01*
Y130032D01*
X12800D01*
Y130043D01*
X12831D01*
Y130053D01*
X12872D01*
Y130063D01*
X12913D01*
Y130074D01*
X12965D01*
Y130084D01*
X13016D01*
Y130094D01*
X13078D01*
Y130105D01*
X13151D01*
Y130115D01*
X13243D01*
Y130125D01*
X14326D01*
Y130094D01*
D02*
G37*
G36*
X20391Y130043D02*
X20381D01*
Y130001D01*
X20370D01*
Y129960D01*
X20360D01*
Y129919D01*
X20350D01*
Y129888D01*
X20340D01*
Y129847D01*
X20329D01*
Y129806D01*
X20319D01*
Y129764D01*
X20309D01*
Y129723D01*
X20298D01*
Y129682D01*
X20288D01*
Y129640D01*
X20278D01*
Y129599D01*
X20267D01*
Y129568D01*
X20257D01*
Y129527D01*
X20247D01*
Y129486D01*
X20236D01*
Y129445D01*
X20226D01*
Y129403D01*
X20216D01*
Y129362D01*
X20206D01*
Y129321D01*
X20195D01*
Y129290D01*
X20185D01*
Y129248D01*
X20175D01*
Y129207D01*
X20164D01*
Y129166D01*
X20154D01*
Y129125D01*
X20144D01*
Y129084D01*
X20133D01*
Y129042D01*
X20123D01*
Y129001D01*
X20113D01*
Y128970D01*
X20102D01*
Y128929D01*
X20092D01*
Y128887D01*
X20082D01*
Y128846D01*
X20071D01*
Y128805D01*
X20061D01*
Y128764D01*
X20051D01*
Y128723D01*
X20721D01*
Y128681D01*
X20711D01*
Y128640D01*
X20701D01*
Y128599D01*
X20690D01*
Y128557D01*
X20680D01*
Y128516D01*
X20670D01*
Y128475D01*
X20659D01*
Y128434D01*
X20649D01*
Y128392D01*
X20639D01*
Y128351D01*
X20628D01*
Y128310D01*
X20618D01*
Y128269D01*
X20608D01*
Y128227D01*
X20597D01*
Y128186D01*
X20587D01*
Y128145D01*
X20577D01*
Y128104D01*
X20567D01*
Y128062D01*
X20556D01*
Y128021D01*
X20546D01*
Y127980D01*
X20536D01*
Y127939D01*
X20525D01*
Y127897D01*
X20515D01*
Y127856D01*
X20505D01*
Y127815D01*
X20494D01*
Y127774D01*
X20484D01*
Y127743D01*
X19793D01*
Y127712D01*
X19783D01*
Y127670D01*
X19772D01*
Y127629D01*
X19762D01*
Y127588D01*
X19752D01*
Y127547D01*
X19741D01*
Y127495D01*
X19731D01*
Y127454D01*
X19721D01*
Y127413D01*
X19710D01*
Y127371D01*
X19700D01*
Y127330D01*
X19690D01*
Y127289D01*
X19680D01*
Y127248D01*
X19669D01*
Y127206D01*
X19659D01*
Y127165D01*
X19648D01*
Y127124D01*
X19638D01*
Y127083D01*
X19628D01*
Y127041D01*
X19618D01*
Y127000D01*
X19607D01*
Y126959D01*
X19597D01*
Y126918D01*
X19587D01*
Y126876D01*
X19576D01*
Y126835D01*
X19566D01*
Y126794D01*
X19556D01*
Y126752D01*
X19545D01*
Y126711D01*
X19535D01*
Y126670D01*
X19525D01*
Y126629D01*
X19514D01*
Y126587D01*
X19504D01*
Y126546D01*
X19494D01*
Y126505D01*
X19484D01*
Y126464D01*
X19473D01*
Y126422D01*
X19463D01*
Y126381D01*
X19453D01*
Y126340D01*
X19442D01*
Y126299D01*
X19432D01*
Y126257D01*
X19422D01*
Y126216D01*
X19411D01*
Y126175D01*
X19401D01*
Y126134D01*
X19391D01*
Y126092D01*
X19380D01*
Y126051D01*
X19370D01*
Y126010D01*
X19360D01*
Y125969D01*
X19349D01*
Y125927D01*
X19339D01*
Y125886D01*
X19329D01*
Y125845D01*
X19319D01*
Y125804D01*
X19308D01*
Y125762D01*
X19298D01*
Y125721D01*
X19287D01*
Y125680D01*
X19277D01*
Y125638D01*
X19267D01*
Y125556D01*
X19257D01*
Y125525D01*
X19267D01*
Y125463D01*
X19277D01*
Y125443D01*
X19287D01*
Y125422D01*
X19298D01*
Y125412D01*
X19308D01*
Y125391D01*
X19319D01*
Y125381D01*
X19329D01*
Y125370D01*
X19349D01*
Y125360D01*
X19360D01*
Y125350D01*
X19380D01*
Y125339D01*
X19411D01*
Y125329D01*
X19442D01*
Y125319D01*
X19504D01*
Y125309D01*
X19875D01*
Y125298D01*
X19865D01*
Y125257D01*
X19855D01*
Y125216D01*
X19845D01*
Y125174D01*
X19834D01*
Y125133D01*
X19824D01*
Y125092D01*
X19814D01*
Y125051D01*
X19803D01*
Y125009D01*
X19793D01*
Y124968D01*
X19783D01*
Y124927D01*
X19772D01*
Y124886D01*
X19762D01*
Y124844D01*
X19752D01*
Y124803D01*
X19741D01*
Y124762D01*
X19731D01*
Y124721D01*
X19721D01*
Y124679D01*
X19710D01*
Y124638D01*
X19700D01*
Y124597D01*
X19690D01*
Y124556D01*
X19680D01*
Y124525D01*
X19669D01*
Y124483D01*
X19659D01*
Y124442D01*
X19648D01*
Y124401D01*
X19638D01*
Y124360D01*
X19628D01*
Y124339D01*
X19607D01*
Y124329D01*
X19473D01*
Y124318D01*
X19308D01*
Y124308D01*
X19112D01*
Y124298D01*
X18370D01*
Y124308D01*
X18256D01*
Y124318D01*
X18174D01*
Y124329D01*
X18101D01*
Y124339D01*
X18050D01*
Y124349D01*
X18009D01*
Y124360D01*
X17967D01*
Y124370D01*
X17926D01*
Y124380D01*
X17895D01*
Y124390D01*
X17864D01*
Y124401D01*
X17843D01*
Y124411D01*
X17813D01*
Y124422D01*
X17792D01*
Y124432D01*
X17771D01*
Y124442D01*
X17751D01*
Y124452D01*
X17740D01*
Y124463D01*
X17720D01*
Y124473D01*
X17709D01*
Y124483D01*
X17689D01*
Y124494D01*
X17679D01*
Y124504D01*
X17668D01*
Y124514D01*
X17648D01*
Y124525D01*
X17637D01*
Y124535D01*
X17627D01*
Y124545D01*
X17617D01*
Y124566D01*
X17606D01*
Y124576D01*
X17596D01*
Y124586D01*
X17586D01*
Y124607D01*
X17575D01*
Y124628D01*
X17565D01*
Y124648D01*
X17555D01*
Y124669D01*
X17544D01*
Y124700D01*
X17534D01*
Y124731D01*
X17524D01*
Y124782D01*
X17514D01*
Y124865D01*
X17503D01*
Y125020D01*
X17514D01*
Y125112D01*
X17524D01*
Y125185D01*
X17534D01*
Y125236D01*
X17544D01*
Y125288D01*
X17555D01*
Y125329D01*
X17565D01*
Y125370D01*
X17575D01*
Y125412D01*
X17586D01*
Y125453D01*
X17596D01*
Y125494D01*
X17606D01*
Y125535D01*
X17617D01*
Y125577D01*
X17627D01*
Y125618D01*
X17637D01*
Y125659D01*
X17648D01*
Y125700D01*
X17658D01*
Y125742D01*
X17668D01*
Y125783D01*
X17679D01*
Y125824D01*
X17689D01*
Y125865D01*
X17699D01*
Y125907D01*
X17709D01*
Y125948D01*
X17720D01*
Y125989D01*
X17730D01*
Y126031D01*
X17740D01*
Y126072D01*
X17751D01*
Y126113D01*
X17761D01*
Y126154D01*
X17771D01*
Y126185D01*
X17782D01*
Y126226D01*
X17792D01*
Y126268D01*
X17802D01*
Y126309D01*
X17813D01*
Y126350D01*
X17823D01*
Y126391D01*
X17833D01*
Y126433D01*
X17843D01*
Y126474D01*
X17854D01*
Y126515D01*
X17864D01*
Y126557D01*
X17875D01*
Y126598D01*
X17885D01*
Y126639D01*
X17895D01*
Y126680D01*
X17905D01*
Y126722D01*
X17916D01*
Y126763D01*
X17926D01*
Y126804D01*
X17936D01*
Y126845D01*
X17947D01*
Y126887D01*
X17957D01*
Y126928D01*
X17967D01*
Y126969D01*
X17978D01*
Y127010D01*
X17988D01*
Y127052D01*
X17998D01*
Y127093D01*
X18009D01*
Y127134D01*
X18019D01*
Y127175D01*
X18029D01*
Y127217D01*
X18040D01*
Y127248D01*
X18050D01*
Y127289D01*
X18060D01*
Y127330D01*
X18070D01*
Y127371D01*
X18081D01*
Y127413D01*
X18091D01*
Y127454D01*
X18101D01*
Y127495D01*
X18112D01*
Y127536D01*
X18122D01*
Y127578D01*
X18132D01*
Y127619D01*
X18143D01*
Y127660D01*
X18153D01*
Y127701D01*
X18163D01*
Y127743D01*
X18174D01*
Y127784D01*
X18184D01*
Y127825D01*
X18194D01*
Y127866D01*
X18204D01*
Y127908D01*
X18215D01*
Y127949D01*
X18225D01*
Y127990D01*
X18236D01*
Y128031D01*
X18246D01*
Y128073D01*
X18256D01*
Y128114D01*
X18266D01*
Y128155D01*
X18277D01*
Y128197D01*
X18287D01*
Y128238D01*
X18297D01*
Y128269D01*
X18308D01*
Y128310D01*
X18318D01*
Y128351D01*
X18328D01*
Y128392D01*
X18339D01*
Y128434D01*
X18349D01*
Y128475D01*
X18359D01*
Y128516D01*
X18370D01*
Y128557D01*
X18380D01*
Y128599D01*
X18390D01*
Y128640D01*
X18401D01*
Y128681D01*
X18411D01*
Y128723D01*
X18421D01*
Y128764D01*
X18431D01*
Y128805D01*
X18442D01*
Y128846D01*
X18452D01*
Y128887D01*
X18462D01*
Y128929D01*
X18473D01*
Y128970D01*
X18483D01*
Y129011D01*
X18493D01*
Y129052D01*
X18504D01*
Y129094D01*
X18514D01*
Y129135D01*
X18524D01*
Y129176D01*
X18535D01*
Y129218D01*
X18545D01*
Y129259D01*
X18555D01*
Y129300D01*
X18565D01*
Y129331D01*
X18576D01*
Y129372D01*
X18586D01*
Y129413D01*
X18597D01*
Y129455D01*
X18607D01*
Y129496D01*
X18617D01*
Y129537D01*
X18627D01*
Y129578D01*
X18638D01*
Y129620D01*
X18648D01*
Y129661D01*
X18658D01*
Y129702D01*
X18669D01*
Y129744D01*
X18679D01*
Y129785D01*
X18689D01*
Y129826D01*
X18700D01*
Y129867D01*
X18710D01*
Y129909D01*
X18720D01*
Y129950D01*
X18731D01*
Y129991D01*
X18741D01*
Y130032D01*
X18751D01*
Y130063D01*
X18762D01*
Y130074D01*
X20391D01*
Y130043D01*
D02*
G37*
G36*
X11416Y122623D02*
X11351D01*
Y122688D01*
X11416D01*
Y122623D01*
D02*
G37*
G36*
X12463D02*
X12660D01*
Y122558D01*
X12791D01*
Y122492D01*
X12922D01*
Y122427D01*
X12987D01*
Y122361D01*
X12922D01*
Y122427D01*
X12791D01*
Y122296D01*
X12660D01*
Y122230D01*
X12332D01*
Y122296D01*
X12267D01*
Y122492D01*
X12202D01*
Y122361D01*
X12071D01*
Y122427D01*
X11613D01*
Y122361D01*
X11678D01*
Y122034D01*
X11613D01*
Y121903D01*
X11678D01*
Y121838D01*
X11744D01*
Y121314D01*
X11678D01*
Y121118D01*
X11613D01*
Y121052D01*
Y120987D01*
X11547D01*
Y120856D01*
X11482D01*
Y120725D01*
X11416D01*
Y120594D01*
X11351D01*
Y120202D01*
X11416D01*
Y120071D01*
X11482D01*
Y120005D01*
X11547D01*
Y119940D01*
X11613D01*
Y119809D01*
X11678D01*
Y119744D01*
X11809D01*
Y119678D01*
X12332D01*
Y119744D01*
X12463D01*
Y119613D01*
X12725D01*
Y119285D01*
X12791D01*
Y119220D01*
X12856D01*
Y118958D01*
X12922D01*
Y118827D01*
X12856D01*
Y118696D01*
X12791D01*
Y118500D01*
X12856D01*
Y118107D01*
X12922D01*
Y117976D01*
X13052D01*
Y118042D01*
X13183D01*
Y118107D01*
X13314D01*
Y118173D01*
X13380D01*
Y118238D01*
X13445D01*
Y118369D01*
X13510D01*
Y118435D01*
X13576D01*
Y118631D01*
X13641D01*
Y118696D01*
X13707D01*
Y118762D01*
X13772D01*
Y118827D01*
X13838D01*
Y118893D01*
X13903D01*
Y119351D01*
X13969D01*
Y119482D01*
X14034D01*
Y119547D01*
X14099D01*
Y119678D01*
X14165D01*
Y119744D01*
X14230D01*
Y120005D01*
X14296D01*
Y120136D01*
X14230D01*
Y120463D01*
X14296D01*
Y120856D01*
X14230D01*
Y120987D01*
X14165D01*
Y121052D01*
X14230D01*
Y120987D01*
X14296D01*
Y120922D01*
X14361D01*
Y120725D01*
X14427D01*
Y120463D01*
X14492D01*
Y119482D01*
X14427D01*
Y119220D01*
X14361D01*
Y119024D01*
X14296D01*
Y118893D01*
X14230D01*
Y118762D01*
X14165D01*
Y118631D01*
X14099D01*
Y118500D01*
X14034D01*
Y118435D01*
X13969D01*
Y118304D01*
X13903D01*
Y118238D01*
X13838D01*
Y118173D01*
X13772D01*
Y118107D01*
X13707D01*
Y118042D01*
X13641D01*
Y117976D01*
X13576D01*
Y117911D01*
X13510D01*
Y117845D01*
X13445D01*
Y117780D01*
X13314D01*
Y117715D01*
X13249D01*
Y117649D01*
X13118D01*
Y117584D01*
X12987D01*
Y117518D01*
X12791D01*
Y117453D01*
X12660D01*
Y117387D01*
X12463D01*
Y117322D01*
X12071D01*
Y117256D01*
X11547D01*
Y117322D01*
X11220D01*
Y117387D01*
X11024D01*
Y117453D01*
X10893D01*
Y117518D01*
X10696D01*
Y117584D01*
X10565D01*
Y117649D01*
X10435D01*
Y117715D01*
X10369D01*
Y117780D01*
X10238D01*
Y117845D01*
X10173D01*
Y117976D01*
X10107D01*
Y118042D01*
X10173D01*
Y118173D01*
X10238D01*
Y118369D01*
X10369D01*
Y118435D01*
X10435D01*
Y118500D01*
X10500D01*
Y118762D01*
X10565D01*
Y119024D01*
X10631D01*
Y119154D01*
X10565D01*
Y119285D01*
X10435D01*
Y119351D01*
X10369D01*
Y119416D01*
X10173D01*
Y119482D01*
X10042D01*
Y119547D01*
X9976D01*
Y119351D01*
X9845D01*
Y119285D01*
X9780D01*
Y119220D01*
X9649D01*
Y119154D01*
X9584D01*
Y119089D01*
X9387D01*
Y119024D01*
X9453D01*
Y118958D01*
X9518D01*
Y118827D01*
X9584D01*
Y118631D01*
X9649D01*
Y118500D01*
X9715D01*
Y118435D01*
X9649D01*
Y118500D01*
X9584D01*
Y118631D01*
X9518D01*
Y118696D01*
X9453D01*
Y118827D01*
X9387D01*
Y118958D01*
Y119024D01*
X9322D01*
Y119154D01*
X9257D01*
Y119416D01*
X9191D01*
Y119809D01*
X9126D01*
Y120267D01*
X9191D01*
Y120594D01*
X9257D01*
Y120856D01*
X9322D01*
Y121052D01*
X9387D01*
Y121183D01*
X9453D01*
Y121314D01*
X9518D01*
Y121445D01*
X9584D01*
Y121511D01*
X9649D01*
Y121576D01*
X9715D01*
Y121707D01*
X9780D01*
Y121772D01*
X9845D01*
Y121707D01*
X9976D01*
Y121772D01*
X9911D01*
Y121903D01*
X9976D01*
Y121969D01*
X10042D01*
Y122099D01*
X10173D01*
Y122165D01*
X10238D01*
Y122230D01*
X10369D01*
Y122296D01*
X10435D01*
Y122361D01*
X10565D01*
Y122427D01*
X10696D01*
Y122492D01*
X10827D01*
Y122558D01*
X11024D01*
Y122492D01*
X11089D01*
Y122558D01*
X11154D01*
Y122623D01*
X11351D01*
Y122558D01*
X11285D01*
Y122492D01*
X11154D01*
Y122427D01*
X11089D01*
Y122296D01*
X11154D01*
Y122361D01*
X11285D01*
Y122427D01*
X11482D01*
Y122492D01*
X11613D01*
Y122558D01*
X11678D01*
Y122623D01*
X11744D01*
Y122688D01*
X12463D01*
Y122623D01*
D02*
G37*
G36*
X35042Y122230D02*
X35435D01*
Y122034D01*
X35369D01*
Y121707D01*
X35304D01*
Y121445D01*
X35173D01*
Y121511D01*
X34911D01*
Y121576D01*
X33602D01*
Y121511D01*
X33471D01*
Y121445D01*
X33406D01*
Y121380D01*
X33340D01*
Y121314D01*
X33275D01*
Y120987D01*
X33340D01*
Y120922D01*
X33406D01*
Y120856D01*
X33471D01*
Y120791D01*
X33537D01*
Y120725D01*
X33668D01*
Y120660D01*
X33864D01*
Y120594D01*
X33995D01*
Y120529D01*
X34191D01*
Y120463D01*
X34322D01*
Y120398D01*
X34518D01*
Y120333D01*
X34649D01*
Y120267D01*
X34780D01*
Y120202D01*
X34911D01*
Y120136D01*
X35042D01*
Y120071D01*
X35107D01*
Y120005D01*
X35173D01*
Y119940D01*
X35304D01*
Y119874D01*
X35369D01*
Y119809D01*
X35435D01*
Y119678D01*
X35500D01*
Y119613D01*
X35566D01*
Y119482D01*
X35631D01*
Y119220D01*
X35696D01*
Y118762D01*
X35631D01*
Y118500D01*
X35566D01*
Y118369D01*
X35500D01*
Y118238D01*
X35435D01*
Y118173D01*
X35369D01*
Y118107D01*
X35304D01*
Y118042D01*
X35173D01*
Y117976D01*
X35107D01*
Y117911D01*
X34977D01*
Y117845D01*
X34780D01*
Y117780D01*
X34584D01*
Y117715D01*
X34191D01*
Y117649D01*
X32948D01*
Y117715D01*
X32490D01*
Y117780D01*
X32228D01*
Y118042D01*
X32293D01*
Y118304D01*
X32359D01*
Y118565D01*
X32555D01*
Y118500D01*
X32817D01*
Y118435D01*
X33209D01*
Y118369D01*
X33995D01*
Y118435D01*
X34322D01*
Y118500D01*
X34518D01*
Y118565D01*
X34584D01*
Y118631D01*
X34649D01*
Y118696D01*
X34715D01*
Y119024D01*
X34649D01*
Y119089D01*
X34584D01*
Y119220D01*
X34453D01*
Y119285D01*
X34387D01*
Y119351D01*
X34257D01*
Y119416D01*
X34126D01*
Y119482D01*
X33995D01*
Y119547D01*
X33864D01*
Y119613D01*
X33668D01*
Y119678D01*
X33537D01*
Y119744D01*
X33340D01*
Y119809D01*
X33209D01*
Y119874D01*
X33079D01*
Y119940D01*
X32948D01*
Y120005D01*
X32882D01*
Y120071D01*
X32751D01*
Y120136D01*
X32686D01*
Y120202D01*
X32620D01*
Y120267D01*
X32555D01*
Y120333D01*
X32490D01*
Y120463D01*
X32424D01*
Y120594D01*
X32359D01*
Y120791D01*
X32293D01*
Y121314D01*
X32359D01*
Y121511D01*
X32424D01*
Y121641D01*
X32490D01*
Y121772D01*
X32555D01*
Y121838D01*
X32620D01*
Y121903D01*
X32686D01*
Y121969D01*
X32817D01*
Y122034D01*
X32882D01*
Y122099D01*
X33079D01*
Y122165D01*
X33275D01*
Y122230D01*
X33537D01*
Y122296D01*
X35042D01*
Y122230D01*
D02*
G37*
G36*
X31442Y121511D02*
X31377D01*
Y121445D01*
X31312D01*
Y121511D01*
X29348D01*
Y120463D01*
X29414D01*
Y120398D01*
X30461D01*
Y120463D01*
X31115D01*
Y119744D01*
X29348D01*
Y118696D01*
X29414D01*
Y118500D01*
X31442D01*
Y118565D01*
X31639D01*
Y117780D01*
X28367D01*
Y118238D01*
X28432D01*
Y121838D01*
X28367D01*
Y122230D01*
X31442D01*
Y121511D01*
D02*
G37*
G36*
X13052Y121314D02*
X13118D01*
Y121249D01*
X12987D01*
Y121314D01*
Y121380D01*
X13052D01*
Y121314D01*
D02*
G37*
G36*
X13380Y119744D02*
X13445D01*
Y119547D01*
X13380D01*
Y119613D01*
X13314D01*
Y119809D01*
X13380D01*
Y119744D01*
D02*
G37*
G36*
X13641Y119154D02*
X13576D01*
Y119220D01*
X13641D01*
Y119154D01*
D02*
G37*
G36*
X20120Y121838D02*
X20055D01*
Y118238D01*
X20120D01*
Y117780D01*
X19204D01*
Y117845D01*
X19139D01*
Y117976D01*
X19073D01*
Y118042D01*
X19008D01*
Y118173D01*
X18942D01*
Y118238D01*
X18877D01*
Y118304D01*
X18812D01*
Y118435D01*
X18746D01*
Y118500D01*
X18681D01*
Y118565D01*
X18615D01*
Y118696D01*
X18550D01*
Y118762D01*
X18484D01*
Y118827D01*
X18419D01*
Y118958D01*
X18353D01*
Y119024D01*
X18288D01*
Y119089D01*
X18223D01*
Y119220D01*
X18157D01*
Y119285D01*
X18092D01*
Y119351D01*
X18026D01*
Y119416D01*
X17961D01*
Y119547D01*
X17895D01*
Y119613D01*
X17830D01*
Y119678D01*
X17764D01*
Y119809D01*
X17699D01*
Y119874D01*
X17634D01*
Y120005D01*
X17568D01*
Y120071D01*
X17503D01*
Y120136D01*
X17437D01*
Y120267D01*
X17372D01*
Y120333D01*
X17306D01*
Y120463D01*
X17241D01*
Y120529D01*
Y120594D01*
X17175D01*
Y120660D01*
X17110D01*
Y120791D01*
X17044D01*
Y120922D01*
X16979D01*
Y121052D01*
X16914D01*
Y121118D01*
X16848D01*
Y120660D01*
X16914D01*
Y118762D01*
X16979D01*
Y117780D01*
X16063D01*
Y122230D01*
X17175D01*
Y122165D01*
X17241D01*
Y122034D01*
X17306D01*
Y121903D01*
X17372D01*
Y121772D01*
X17437D01*
Y121707D01*
X17503D01*
Y121576D01*
X17568D01*
Y121511D01*
X17634D01*
Y121380D01*
X17699D01*
Y121314D01*
X17764D01*
Y121249D01*
X17830D01*
Y121118D01*
X17895D01*
Y121052D01*
X17961D01*
Y120922D01*
X18026D01*
Y120856D01*
X18092D01*
Y120791D01*
X18157D01*
Y120660D01*
X18223D01*
Y120594D01*
X18288D01*
Y120529D01*
X18353D01*
Y120398D01*
X18419D01*
Y120333D01*
X18484D01*
Y120267D01*
X18550D01*
Y120136D01*
X18615D01*
Y120071D01*
X18681D01*
Y119940D01*
X18746D01*
Y119874D01*
X18812D01*
Y119744D01*
X18877D01*
Y119678D01*
X18942D01*
Y119547D01*
X19008D01*
Y119416D01*
X19073D01*
Y119351D01*
X19139D01*
Y119154D01*
X19204D01*
Y119024D01*
X19270D01*
Y119809D01*
X19204D01*
Y122230D01*
X20120D01*
Y121838D01*
D02*
G37*
G36*
X27777Y122034D02*
X27712D01*
Y121772D01*
X27647D01*
Y121576D01*
X27581D01*
Y121380D01*
X27516D01*
Y121183D01*
X27450D01*
Y120987D01*
X27385D01*
Y120856D01*
X27319D01*
Y120660D01*
X27254D01*
Y120463D01*
X27189D01*
Y120333D01*
X27123D01*
Y120136D01*
X27058D01*
Y120005D01*
X26992D01*
Y119809D01*
X26927D01*
Y119678D01*
X26861D01*
Y119482D01*
X26796D01*
Y119285D01*
X26730D01*
Y119154D01*
X26665D01*
Y118958D01*
X26599D01*
Y118762D01*
X26534D01*
Y118631D01*
X26469D01*
Y118435D01*
X26403D01*
Y118238D01*
X26338D01*
Y118042D01*
X26272D01*
Y117780D01*
X25225D01*
Y118107D01*
X25160D01*
Y118304D01*
X25094D01*
Y118500D01*
X25029D01*
Y118696D01*
X24963D01*
Y118893D01*
X24898D01*
Y119089D01*
X24833D01*
Y119285D01*
X24767D01*
Y119482D01*
X24702D01*
Y119613D01*
X24636D01*
Y119809D01*
X24571D01*
Y120005D01*
X24505D01*
Y120202D01*
X24440D01*
Y120398D01*
X24374D01*
Y120594D01*
X24309D01*
Y120856D01*
X24243D01*
Y121052D01*
X24178D01*
Y120922D01*
X24113D01*
Y120660D01*
X24047D01*
Y120398D01*
X23982D01*
Y120202D01*
X23916D01*
Y120005D01*
X23851D01*
Y119809D01*
X23785D01*
Y119613D01*
X23720D01*
Y119351D01*
X23654D01*
Y119154D01*
X23589D01*
Y118958D01*
X23524D01*
Y118762D01*
X23458D01*
Y118565D01*
X23393D01*
Y118369D01*
X23327D01*
Y118107D01*
X23262D01*
Y117780D01*
X22215D01*
Y117976D01*
X22149D01*
Y118238D01*
X22084D01*
Y118435D01*
X22018D01*
Y118631D01*
X21953D01*
Y118762D01*
X21888D01*
Y118958D01*
X21822D01*
Y119154D01*
X21757D01*
Y119351D01*
X21691D01*
Y119482D01*
X21626D01*
Y119678D01*
X21560D01*
Y119874D01*
X21495D01*
Y120071D01*
X21429D01*
Y120267D01*
X21364D01*
Y120398D01*
X21298D01*
Y120529D01*
X21233D01*
Y120725D01*
X21168D01*
Y120922D01*
X21102D01*
Y121052D01*
X21037D01*
Y121249D01*
X20971D01*
Y121445D01*
X20906D01*
Y121641D01*
X20840D01*
Y121838D01*
X20775D01*
Y122034D01*
X20709D01*
Y122230D01*
X21888D01*
Y122099D01*
X21953D01*
Y121838D01*
X22018D01*
Y121576D01*
X22084D01*
Y121314D01*
X22149D01*
Y121118D01*
X22215D01*
Y120856D01*
X22280D01*
Y120660D01*
X22346D01*
Y120398D01*
X22411D01*
Y120202D01*
X22477D01*
Y119940D01*
X22542D01*
Y119678D01*
X22607D01*
Y119482D01*
X22673D01*
Y119154D01*
X22738D01*
Y118893D01*
X22804D01*
Y118762D01*
X22869D01*
Y119089D01*
X22935D01*
Y119351D01*
X23000D01*
Y119613D01*
X23065D01*
Y119809D01*
X23131D01*
Y120071D01*
X23196D01*
Y120202D01*
X23262D01*
Y120398D01*
X23327D01*
Y120594D01*
X23393D01*
Y120856D01*
X23458D01*
Y121052D01*
X23524D01*
Y121314D01*
X23589D01*
Y121511D01*
X23654D01*
Y121772D01*
X23720D01*
Y122099D01*
X23785D01*
Y122230D01*
X24898D01*
Y121838D01*
X24963D01*
Y121576D01*
X25029D01*
Y121314D01*
X25094D01*
Y121118D01*
X25160D01*
Y120856D01*
X25225D01*
Y120791D01*
Y120725D01*
X25291D01*
Y120529D01*
X25356D01*
Y120267D01*
X25422D01*
Y120071D01*
X25487D01*
Y119809D01*
X25552D01*
Y119613D01*
X25618D01*
Y119351D01*
X25683D01*
Y119089D01*
X25749D01*
Y118762D01*
X25880D01*
Y119024D01*
X25945D01*
Y119351D01*
X26011D01*
Y119547D01*
X26076D01*
Y119809D01*
X26141D01*
Y120071D01*
X26207D01*
Y120267D01*
X26272D01*
Y120529D01*
X26338D01*
Y120725D01*
X26403D01*
Y120922D01*
X26469D01*
Y121183D01*
X26534D01*
Y121445D01*
X26599D01*
Y121707D01*
X26665D01*
Y122099D01*
X26730D01*
Y122230D01*
X27777D01*
Y122034D01*
D02*
G37*
G36*
X9780Y118304D02*
X9715D01*
Y118369D01*
X9780D01*
Y118304D01*
D02*
G37*
%LPC*%
G36*
X12913Y128857D02*
X12903D01*
Y128836D01*
X12893D01*
Y128815D01*
X12882D01*
Y128795D01*
X12872D01*
Y128774D01*
X12862D01*
Y128753D01*
X12852D01*
Y128723D01*
X12841D01*
Y128702D01*
X12831D01*
Y128681D01*
X12821D01*
Y128661D01*
X12810D01*
Y128640D01*
X12800D01*
Y128619D01*
X12790D01*
Y128588D01*
X12779D01*
Y128568D01*
X12769D01*
Y128547D01*
X12759D01*
Y128526D01*
X12748D01*
Y128506D01*
X12738D01*
Y128485D01*
X12728D01*
Y128454D01*
X12717D01*
Y128434D01*
X12707D01*
Y128413D01*
X12697D01*
Y128392D01*
X12686D01*
Y128372D01*
X12676D01*
Y128351D01*
X12666D01*
Y128320D01*
X12655D01*
Y128300D01*
X12645D01*
Y128279D01*
X12635D01*
Y128258D01*
X12625D01*
Y128238D01*
X12614D01*
Y128217D01*
X12604D01*
Y128186D01*
X12594D01*
Y128165D01*
X12583D01*
Y128145D01*
X12573D01*
Y128124D01*
X12563D01*
Y128104D01*
X12552D01*
Y128083D01*
X12542D01*
Y128062D01*
X12532D01*
Y128031D01*
X12521D01*
Y128011D01*
X12511D01*
Y127990D01*
X12501D01*
Y127970D01*
X12490D01*
Y127949D01*
X12480D01*
Y127928D01*
X12470D01*
Y127897D01*
X12460D01*
Y127877D01*
X12449D01*
Y127856D01*
X12439D01*
Y127835D01*
X12429D01*
Y127815D01*
X12418D01*
Y127794D01*
X12408D01*
Y127763D01*
X12398D01*
Y127743D01*
X12387D01*
Y127722D01*
X12377D01*
Y127701D01*
X12367D01*
Y127681D01*
X12356D01*
Y127660D01*
X12346D01*
Y127629D01*
X12336D01*
Y127609D01*
X12325D01*
Y127588D01*
X12315D01*
Y127567D01*
X12305D01*
Y127547D01*
X12295D01*
Y127526D01*
X12284D01*
Y127495D01*
X12274D01*
Y127474D01*
X12264D01*
Y127454D01*
X12253D01*
Y127433D01*
X12243D01*
Y127413D01*
X12233D01*
Y127392D01*
X12222D01*
Y127361D01*
X12212D01*
Y127340D01*
X12202D01*
Y127320D01*
X12191D01*
Y127299D01*
X12181D01*
Y127278D01*
X12171D01*
Y127258D01*
X12160D01*
Y127248D01*
Y127237D01*
Y127227D01*
X12150D01*
Y127206D01*
X12140D01*
Y127186D01*
X12129D01*
Y127165D01*
X12119D01*
Y127144D01*
X12109D01*
Y127124D01*
X12099D01*
Y127103D01*
X12088D01*
Y127072D01*
X12078D01*
Y127052D01*
X12068D01*
Y127031D01*
X12057D01*
Y127010D01*
X12047D01*
Y126990D01*
X12037D01*
Y126969D01*
X12026D01*
Y126938D01*
X12016D01*
Y126918D01*
X12006D01*
Y126897D01*
X11995D01*
Y126876D01*
X11985D01*
Y126856D01*
X11975D01*
Y126835D01*
X11964D01*
Y126804D01*
X11954D01*
Y126783D01*
X11944D01*
Y126763D01*
X11934D01*
Y126742D01*
X11923D01*
Y126722D01*
X11913D01*
Y126701D01*
X11903D01*
Y126670D01*
X11892D01*
Y126649D01*
X11882D01*
Y126629D01*
X11872D01*
Y126608D01*
X11861D01*
Y126587D01*
X11851D01*
Y126567D01*
X11841D01*
Y126536D01*
X11830D01*
Y126515D01*
X11820D01*
Y126495D01*
X11810D01*
Y126474D01*
X11799D01*
Y126453D01*
X12779D01*
Y126577D01*
X12790D01*
Y126763D01*
X12800D01*
Y126948D01*
X12810D01*
Y127134D01*
X12821D01*
Y127320D01*
X12831D01*
Y127505D01*
X12841D01*
Y127691D01*
X12852D01*
Y127877D01*
X12862D01*
Y128062D01*
X12872D01*
Y128248D01*
X12882D01*
Y128434D01*
X12893D01*
Y128619D01*
X12903D01*
Y128805D01*
X12913D01*
Y128857D01*
D02*
G37*
G36*
X10696Y122361D02*
X10631D01*
Y122296D01*
X10565D01*
Y122230D01*
X10500D01*
Y122165D01*
X10631D01*
Y122230D01*
X10696D01*
Y122361D01*
D02*
G37*
G36*
X10500Y122165D02*
X10435D01*
Y122099D01*
X10500D01*
Y122165D01*
D02*
G37*
G36*
X10042Y121838D02*
X9976D01*
Y121772D01*
X10042D01*
Y121838D01*
D02*
G37*
G36*
X9584Y120202D02*
X9453D01*
Y120071D01*
X9584D01*
Y120202D01*
D02*
G37*
G36*
X9387Y120071D02*
X9322D01*
Y120005D01*
X9257D01*
Y119940D01*
X9387D01*
Y120071D01*
D02*
G37*
G36*
X9649Y119874D02*
X9584D01*
Y119809D01*
X9649D01*
Y119874D01*
D02*
G37*
G36*
X9911Y119547D02*
X9845D01*
Y119482D01*
X9911D01*
Y119547D01*
D02*
G37*
G36*
X14034Y118827D02*
X13969D01*
Y118762D01*
X14034D01*
Y118827D01*
D02*
G37*
%LPD*%
D10*
X140983Y41000D02*
G03*
X140983Y41000I-600J0D01*
G01*
X119000Y180998D02*
Y175000D01*
Y180998D02*
X121571D01*
X122428Y180713D01*
X122713Y180427D01*
X122999Y179856D01*
Y179284D01*
X122713Y178713D01*
X122428Y178427D01*
X121571Y178142D01*
X119000D01*
X121000D02*
X122999Y175000D01*
X124342Y180998D02*
Y175000D01*
Y180998D02*
X128055D01*
X124342Y178142D02*
X126627D01*
X128741Y173000D02*
X133311D01*
X135796Y180998D02*
X135225Y180713D01*
X134654Y180141D01*
X134368Y179570D01*
X134082Y178713D01*
Y177285D01*
X134368Y176428D01*
X134654Y175856D01*
X135225Y175285D01*
X135796Y175000D01*
X136939D01*
X137510Y175285D01*
X138082Y175856D01*
X138367Y176428D01*
X138653Y177285D01*
Y178713D01*
X138367Y179570D01*
X138082Y180141D01*
X137510Y180713D01*
X136939Y180998D01*
X135796D01*
X140053D02*
Y176714D01*
X140338Y175856D01*
X140910Y175285D01*
X141767Y175000D01*
X142338D01*
X143195Y175285D01*
X143766Y175856D01*
X144052Y176714D01*
Y180998D01*
X147708D02*
Y175000D01*
X145709Y180998D02*
X149708D01*
X91071Y29142D02*
Y24000D01*
X88500Y26571D02*
X93642D01*
X95413Y28856D02*
X95984Y29142D01*
X96841Y29999D01*
Y24000D01*
X100098Y28570D02*
Y28856D01*
X100383Y29427D01*
X100669Y29713D01*
X101240Y29999D01*
X102383D01*
X102954Y29713D01*
X103240Y29427D01*
X103525Y28856D01*
Y28285D01*
X103240Y27714D01*
X102668Y26856D01*
X99812Y24000D01*
X103811D01*
X105154Y29999D02*
X107439Y24000D01*
X109724Y29999D02*
X107439Y24000D01*
D11*
X100492Y18350D02*
G03*
X100492Y18350I-492J0D01*
G01*
X69008Y135500D02*
G03*
X69008Y135500I-492J0D01*
G01*
X95150Y98567D02*
G03*
X95150Y98567I-492J0D01*
G01*
X77732Y47358D02*
G03*
X77732Y47358I-492J0D01*
G01*
X100992Y167650D02*
G03*
X100992Y167650I-492J0D01*
G01*
X70508Y65000D02*
G03*
X70508Y65000I-492J0D01*
G01*
X143476Y106000D02*
G03*
X143476Y106000I-492J0D01*
G01*
X70508Y91500D02*
G03*
X70508Y91500I-492J0D01*
G01*
D12*
X100398Y59583D02*
Y65095D01*
X102362Y18311D02*
X115354D01*
Y3153D02*
Y18311D01*
X84646Y3153D02*
Y18311D01*
X97638D01*
X31858Y34858D02*
X64142D01*
Y67043D02*
Y67142D01*
Y44996D02*
Y57004D01*
Y34858D02*
Y34957D01*
X31858Y67142D02*
X64142D01*
X31858Y67043D02*
Y67142D01*
Y44996D02*
Y57004D01*
Y34858D02*
Y34957D01*
X71016Y130303D02*
Y140697D01*
Y130303D02*
X92984D01*
Y140697D01*
X71016D02*
X92984D01*
X111390Y122213D02*
Y123197D01*
X110406D02*
X111390D01*
X91705Y122213D02*
Y123197D01*
X92689D01*
X111390Y103512D02*
Y104496D01*
X110406Y103512D02*
X111390D01*
X91705D02*
Y104496D01*
Y103512D02*
X92689D01*
X80193Y32988D02*
Y44012D01*
X66807Y32988D02*
Y44012D01*
X71587Y57642D02*
X81265D01*
X71587Y50720D02*
X81265D01*
X67319Y22346D02*
X69681D01*
X67319Y15654D02*
X69681D01*
X30909Y79827D02*
X32091D01*
X30909Y83173D02*
X32091D01*
X30909Y71327D02*
X32091D01*
X30909Y74673D02*
X32091D01*
X67319Y10346D02*
X69681D01*
X67319Y3653D02*
X69681D01*
X102862Y167689D02*
X115854D01*
Y182846D01*
X85146Y167689D02*
Y182846D01*
Y167689D02*
X98138D01*
X72516Y70197D02*
X94484D01*
Y59803D02*
Y70197D01*
X72516Y59803D02*
X94484D01*
X72516D02*
Y70197D01*
X140484Y100803D02*
Y111197D01*
X118516D02*
X140484D01*
X118516Y100803D02*
Y111197D01*
Y100803D02*
X140484D01*
X72516Y86303D02*
Y96697D01*
Y86303D02*
X94484D01*
Y96697D01*
X72516D02*
X94484D01*
D13*
X130429Y40016D02*
X135132D01*
X130429Y51827D02*
X135132D01*
X140469Y119500D02*
Y120500D01*
X136531Y119500D02*
Y120500D01*
X142500Y119700D02*
Y120300D01*
X145500Y119700D02*
Y120300D01*
X120200Y124500D02*
X120800D01*
X120200Y121500D02*
X120800D01*
X128500Y116200D02*
Y116800D01*
X131500Y116200D02*
Y116800D01*
X123000Y116200D02*
Y116800D01*
X126000Y116200D02*
Y116800D01*
X117000Y116200D02*
Y116800D01*
X120000Y116200D02*
Y116800D01*
X81700Y103000D02*
X82300D01*
X81700Y106000D02*
X82300D01*
X81700Y99000D02*
X82300D01*
X81700Y102000D02*
X82300D01*
X104161Y91200D02*
Y91800D01*
X101161Y91200D02*
Y91800D01*
X144500Y53700D02*
Y54300D01*
X141500Y53700D02*
Y54300D01*
X109700Y55000D02*
X110300D01*
X109700Y58000D02*
X110300D01*
X145500Y45865D02*
Y46465D01*
X142500Y45865D02*
Y46465D01*
X125000Y37700D02*
Y38300D01*
X122000Y37700D02*
Y38300D01*
Y47700D02*
Y48300D01*
X125000Y47700D02*
Y48300D01*
X140500Y57700D02*
Y58300D01*
X137500Y57700D02*
Y58300D01*
X82700Y108500D02*
X83300D01*
X82700Y111500D02*
X83300D01*
X82700Y112000D02*
X83300D01*
X82700Y115000D02*
X83300D01*
X120200Y128000D02*
X120800D01*
X120200Y125000D02*
X120800D01*
X79000Y78531D02*
X80000D01*
X79000Y82468D02*
X80000D01*
X130200Y38500D02*
X130800D01*
X130200Y35500D02*
X130800D01*
X137200D02*
X137800D01*
X137200Y38500D02*
X137800D01*
X142000Y38700D02*
Y39300D01*
X145000Y38700D02*
Y39300D01*
X79700Y77500D02*
X80300D01*
X79700Y74500D02*
X80300D01*
X148500Y38700D02*
Y39300D01*
X145500Y38700D02*
Y39300D01*
X128866Y57621D02*
Y58221D01*
X125866Y57621D02*
Y58221D01*
X132066Y54421D02*
X132666D01*
X132066Y57421D02*
X132666D01*
D14*
X99000Y135700D02*
Y136300D01*
X102000Y135700D02*
Y136300D01*
D15*
X177796Y48800D02*
Y50514D01*
X177605Y51085D01*
X177415Y51276D01*
X177034Y51466D01*
X176463D01*
X176082Y51276D01*
X175891Y51085D01*
X175701Y50514D01*
Y48800D01*
X179700D01*
X175701Y52361D02*
X179700D01*
X175701D02*
X179700Y55027D01*
X175701D02*
X179700D01*
X177034Y56322D02*
X177224Y56132D01*
X177415Y56322D01*
X177224Y56513D01*
X177034Y56322D01*
X179319D02*
X179509Y56132D01*
X179700Y56322D01*
X179509Y56513D01*
X179319Y56322D01*
X177796Y60531D02*
Y62245D01*
X177605Y62816D01*
X177415Y63007D01*
X177034Y63197D01*
X176463D01*
X176082Y63007D01*
X175891Y62816D01*
X175701Y62245D01*
Y60531D01*
X179700D01*
X175701Y64092D02*
X179700Y65044D01*
X175701Y65996D02*
X179700Y65044D01*
X175701Y65996D02*
X179700Y66948D01*
X175701Y67901D02*
X179700Y66948D01*
X175701Y68700D02*
X179700D01*
X175701D02*
Y70414D01*
X175891Y70986D01*
X176082Y71176D01*
X176463Y71367D01*
X176844D01*
X177224Y71176D01*
X177415Y70986D01*
X177605Y70414D01*
Y68700D01*
Y70034D02*
X179700Y71367D01*
X175701Y72262D02*
X179700D01*
X175701D02*
X179700Y73785D01*
X175701Y75309D02*
X179700Y73785D01*
X175701Y75309D02*
X179700D01*
X175701Y77594D02*
X175891Y77213D01*
X176272Y76832D01*
X176653Y76642D01*
X177224Y76451D01*
X178176D01*
X178748Y76642D01*
X179129Y76832D01*
X179509Y77213D01*
X179700Y77594D01*
Y78356D01*
X179509Y78737D01*
X179129Y79117D01*
X178748Y79308D01*
X178176Y79498D01*
X177224D01*
X176653Y79308D01*
X176272Y79117D01*
X175891Y78737D01*
X175701Y78356D01*
Y77594D01*
Y80431D02*
X179700D01*
X175701D02*
Y81764D01*
X175891Y82336D01*
X176272Y82717D01*
X176653Y82907D01*
X177224Y83097D01*
X178176D01*
X178748Y82907D01*
X179129Y82717D01*
X179509Y82336D01*
X179700Y81764D01*
Y80431D01*
X177986Y83992D02*
Y87420D01*
X175701Y89744D02*
X175891Y89172D01*
X176463Y88792D01*
X177415Y88601D01*
X177986D01*
X178938Y88792D01*
X179509Y89172D01*
X179700Y89744D01*
Y90124D01*
X179509Y90696D01*
X178938Y91077D01*
X177986Y91267D01*
X177415D01*
X176463Y91077D01*
X175891Y90696D01*
X175701Y90124D01*
Y89744D01*
Y93305D02*
X175891Y92734D01*
X176463Y92353D01*
X177415Y92162D01*
X177986D01*
X178938Y92353D01*
X179509Y92734D01*
X179700Y93305D01*
Y93686D01*
X179509Y94257D01*
X178938Y94638D01*
X177986Y94828D01*
X177415D01*
X176463Y94638D01*
X175891Y94257D01*
X175701Y93686D01*
Y93305D01*
X176463Y95723D02*
X176272Y96104D01*
X175701Y96675D01*
X179700D01*
X175701Y101798D02*
X179700D01*
X175701D02*
Y103512D01*
X175891Y104083D01*
X176082Y104274D01*
X176463Y104464D01*
X176844D01*
X177224Y104274D01*
X177415Y104083D01*
X177605Y103512D01*
Y101798D01*
Y103131D02*
X179700Y104464D01*
X178176Y105359D02*
Y107645D01*
X177796D01*
X177415Y107454D01*
X177224Y107264D01*
X177034Y106883D01*
Y106312D01*
X177224Y105931D01*
X177605Y105550D01*
X178176Y105359D01*
X178557D01*
X179129Y105550D01*
X179509Y105931D01*
X179700Y106312D01*
Y106883D01*
X179509Y107264D01*
X179129Y107645D01*
X177034Y108502D02*
X179700Y109644D01*
X177034Y110787D02*
X179700Y109644D01*
X179319Y111625D02*
X179509Y111434D01*
X179700Y111625D01*
X179509Y111815D01*
X179319Y111625D01*
X179700Y118880D02*
X175701Y117357D01*
X179700Y115833D01*
X178367Y116405D02*
Y118309D01*
X52514Y138228D02*
Y134800D01*
X50800Y136514D02*
X54228D01*
X55409Y138037D02*
X55789Y138228D01*
X56361Y138799D01*
Y134800D01*
X58532Y137847D02*
Y138037D01*
X58722Y138418D01*
X58913Y138609D01*
X59293Y138799D01*
X60055D01*
X60436Y138609D01*
X60627Y138418D01*
X60817Y138037D01*
Y137656D01*
X60627Y137276D01*
X60246Y136704D01*
X58341Y134800D01*
X61007D01*
X61902Y138799D02*
X63426Y134800D01*
X64949Y138799D02*
X63426Y134800D01*
X54014Y94228D02*
Y90800D01*
X52300Y92514D02*
X55728D01*
X59194Y94799D02*
X57289D01*
X57099Y93085D01*
X57289Y93276D01*
X57861Y93466D01*
X58432D01*
X59003Y93276D01*
X59384Y92895D01*
X59575Y92323D01*
Y91943D01*
X59384Y91371D01*
X59003Y90990D01*
X58432Y90800D01*
X57861D01*
X57289Y90990D01*
X57099Y91181D01*
X56909Y91562D01*
X60470Y94799D02*
X61993Y90800D01*
X63517Y94799D02*
X61993Y90800D01*
X65173Y94799D02*
X64602Y94609D01*
X64221Y94037D01*
X64031Y93085D01*
Y92514D01*
X64221Y91562D01*
X64602Y90990D01*
X65173Y90800D01*
X65554D01*
X66126Y90990D01*
X66506Y91562D01*
X66697Y92514D01*
Y93085D01*
X66506Y94037D01*
X66126Y94609D01*
X65554Y94799D01*
X65173D01*
X139300Y96514D02*
X142728D01*
X144099Y97847D02*
Y98037D01*
X144289Y98418D01*
X144480Y98609D01*
X144861Y98799D01*
X145623D01*
X146003Y98609D01*
X146194Y98418D01*
X146384Y98037D01*
Y97657D01*
X146194Y97276D01*
X145813Y96704D01*
X143909Y94800D01*
X146575D01*
X147470Y98799D02*
X148993Y94800D01*
X150517Y98799D02*
X148993Y94800D01*
X152173Y98799D02*
X151602Y98609D01*
X151221Y98037D01*
X151031Y97085D01*
Y96514D01*
X151221Y95562D01*
X151602Y94990D01*
X152173Y94800D01*
X152554D01*
X153126Y94990D01*
X153507Y95562D01*
X153697Y96514D01*
Y97085D01*
X153507Y98037D01*
X153126Y98609D01*
X152554Y98799D01*
X152173D01*
X84186Y41000D02*
Y38143D01*
X84377Y37572D01*
X84758Y37191D01*
X85329Y37000D01*
X85710D01*
X86281Y37191D01*
X86662Y37572D01*
X86853Y38143D01*
Y41000D01*
X89861D02*
X87957Y38333D01*
X90814D01*
X89861Y41000D02*
Y37000D01*
X145782Y58500D02*
Y55643D01*
X145972Y55072D01*
X146353Y54691D01*
X146924Y54500D01*
X147305D01*
X147876Y54691D01*
X148257Y55072D01*
X148448Y55643D01*
Y58500D01*
X149933D02*
X152028D01*
X150885Y56976D01*
X151457D01*
X151838Y56786D01*
X152028Y56595D01*
X152218Y56024D01*
Y55643D01*
X152028Y55072D01*
X151647Y54691D01*
X151076Y54500D01*
X150504D01*
X149933Y54691D01*
X149743Y54881D01*
X149552Y55262D01*
X114782Y72500D02*
Y69643D01*
X114972Y69072D01*
X115353Y68691D01*
X115924Y68500D01*
X116305D01*
X116876Y68691D01*
X117257Y69072D01*
X117448Y69643D01*
Y72500D01*
X118743Y71547D02*
Y71738D01*
X118933Y72119D01*
X119124Y72309D01*
X119504Y72500D01*
X120266D01*
X120647Y72309D01*
X120837Y72119D01*
X121028Y71738D01*
Y71357D01*
X120837Y70976D01*
X120457Y70405D01*
X118552Y68500D01*
X121218D01*
X81139Y121000D02*
Y118143D01*
X81329Y117572D01*
X81710Y117191D01*
X82281Y117000D01*
X82662D01*
X83233Y117191D01*
X83614Y117572D01*
X83805Y118143D01*
Y121000D01*
X84909Y120238D02*
X85290Y120428D01*
X85861Y121000D01*
Y117000D01*
X45420Y27000D02*
Y23000D01*
Y27000D02*
X47134D01*
X47705Y26809D01*
X47896Y26619D01*
X48086Y26238D01*
Y25857D01*
X47896Y25476D01*
X47705Y25286D01*
X47134Y25095D01*
X45420D01*
X46753D02*
X48086Y23000D01*
X48981Y26238D02*
X49362Y26428D01*
X49933Y27000D01*
Y23000D01*
X53057Y27000D02*
X52485Y26809D01*
X52104Y26238D01*
X51914Y25286D01*
Y24714D01*
X52104Y23762D01*
X52485Y23191D01*
X53057Y23000D01*
X53437D01*
X54009Y23191D01*
X54390Y23762D01*
X54580Y24714D01*
Y25286D01*
X54390Y26238D01*
X54009Y26809D01*
X53437Y27000D01*
X53057D01*
X48482Y33000D02*
Y29000D01*
Y33000D02*
X50195D01*
X50767Y32809D01*
X50957Y32619D01*
X51148Y32238D01*
Y31857D01*
X50957Y31476D01*
X50767Y31286D01*
X50195Y31095D01*
X48482D01*
X49815D02*
X51148Y29000D01*
X54518Y31666D02*
X54328Y31095D01*
X53947Y30714D01*
X53376Y30524D01*
X53185D01*
X52614Y30714D01*
X52233Y31095D01*
X52043Y31666D01*
Y31857D01*
X52233Y32428D01*
X52614Y32809D01*
X53185Y33000D01*
X53376D01*
X53947Y32809D01*
X54328Y32428D01*
X54518Y31666D01*
Y30714D01*
X54328Y29762D01*
X53947Y29191D01*
X53376Y29000D01*
X52995D01*
X52424Y29191D01*
X52233Y29572D01*
X143000Y126386D02*
X147000D01*
X143000D02*
Y128100D01*
X143191Y128672D01*
X143381Y128862D01*
X143762Y129052D01*
X144143D01*
X144524Y128862D01*
X144714Y128672D01*
X144905Y128100D01*
Y126386D01*
Y127719D02*
X147000Y129052D01*
X143000Y130900D02*
X143191Y130328D01*
X143572Y130138D01*
X143953D01*
X144334Y130328D01*
X144524Y130709D01*
X144714Y131471D01*
X144905Y132042D01*
X145286Y132423D01*
X145667Y132614D01*
X146238D01*
X146619Y132423D01*
X146809Y132233D01*
X147000Y131661D01*
Y130900D01*
X146809Y130328D01*
X146619Y130138D01*
X146238Y129947D01*
X145667D01*
X145286Y130138D01*
X144905Y130519D01*
X144714Y131090D01*
X144524Y131852D01*
X144334Y132233D01*
X143953Y132423D01*
X143572D01*
X143191Y132233D01*
X143000Y131661D01*
Y130900D01*
X130386Y63500D02*
Y59500D01*
Y63500D02*
X132100D01*
X132672Y63309D01*
X132862Y63119D01*
X133053Y62738D01*
Y62357D01*
X132862Y61976D01*
X132672Y61786D01*
X132100Y61595D01*
X130386D01*
X131719D02*
X133053Y59500D01*
X136614Y63500D02*
X134709Y59500D01*
X133948Y63500D02*
X136614D01*
X125000Y64982D02*
X129000D01*
X125000D02*
Y66695D01*
X125191Y67267D01*
X125381Y67457D01*
X125762Y67648D01*
X126143D01*
X126524Y67457D01*
X126714Y67267D01*
X126905Y66695D01*
Y64982D01*
Y66315D02*
X129000Y67648D01*
X125572Y70828D02*
X125191Y70638D01*
X125000Y70066D01*
Y69685D01*
X125191Y69114D01*
X125762Y68733D01*
X126714Y68543D01*
X127666D01*
X128428Y68733D01*
X128809Y69114D01*
X129000Y69685D01*
Y69876D01*
X128809Y70447D01*
X128428Y70828D01*
X127857Y71018D01*
X127666D01*
X127095Y70828D01*
X126714Y70447D01*
X126524Y69876D01*
Y69685D01*
X126714Y69114D01*
X127095Y68733D01*
X127666Y68543D01*
X148500Y26386D02*
X152500D01*
X148500D02*
Y28100D01*
X148691Y28672D01*
X148881Y28862D01*
X149262Y29052D01*
X149643D01*
X150024Y28862D01*
X150214Y28672D01*
X150405Y28100D01*
Y26386D01*
Y27719D02*
X152500Y29052D01*
X148500Y32233D02*
Y30328D01*
X150214Y30138D01*
X150024Y30328D01*
X149834Y30900D01*
Y31471D01*
X150024Y32042D01*
X150405Y32423D01*
X150976Y32614D01*
X151357D01*
X151928Y32423D01*
X152309Y32042D01*
X152500Y31471D01*
Y30900D01*
X152309Y30328D01*
X152119Y30138D01*
X151738Y29948D01*
X86291Y77500D02*
Y73500D01*
Y77500D02*
X88005D01*
X88576Y77309D01*
X88767Y77119D01*
X88957Y76738D01*
Y76357D01*
X88767Y75976D01*
X88576Y75786D01*
X88005Y75595D01*
X86291D01*
X87624D02*
X88957Y73500D01*
X91757Y77500D02*
X89852Y74834D01*
X92709D01*
X91757Y77500D02*
Y73500D01*
X142500Y26386D02*
X146500D01*
X142500D02*
Y28100D01*
X142691Y28672D01*
X142881Y28862D01*
X143262Y29052D01*
X143643D01*
X144024Y28862D01*
X144214Y28672D01*
X144405Y28100D01*
Y26386D01*
Y27719D02*
X146500Y29052D01*
X142500Y30328D02*
Y32423D01*
X144024Y31281D01*
Y31852D01*
X144214Y32233D01*
X144405Y32423D01*
X144976Y32614D01*
X145357D01*
X145928Y32423D01*
X146309Y32042D01*
X146500Y31471D01*
Y30900D01*
X146309Y30328D01*
X146119Y30138D01*
X145738Y29948D01*
X134386Y32500D02*
Y28500D01*
Y32500D02*
X136100D01*
X136672Y32309D01*
X136862Y32119D01*
X137053Y31738D01*
Y31357D01*
X136862Y30976D01*
X136672Y30786D01*
X136100Y30595D01*
X134386D01*
X135719D02*
X137053Y28500D01*
X138138Y31547D02*
Y31738D01*
X138328Y32119D01*
X138519Y32309D01*
X138900Y32500D01*
X139661D01*
X140042Y32309D01*
X140233Y32119D01*
X140423Y31738D01*
Y31357D01*
X140233Y30976D01*
X139852Y30405D01*
X137947Y28500D01*
X140614D01*
X127243Y32500D02*
Y28500D01*
Y32500D02*
X128957D01*
X129529Y32309D01*
X129719Y32119D01*
X129909Y31738D01*
Y31357D01*
X129719Y30976D01*
X129529Y30786D01*
X128957Y30595D01*
X127243D01*
X128576D02*
X129909Y28500D01*
X130805Y31738D02*
X131185Y31928D01*
X131757Y32500D01*
Y28500D01*
X23051Y37354D02*
X27051D01*
Y39639D01*
X24004Y40267D02*
X23813D01*
X23432Y40458D01*
X23242Y40648D01*
X23051Y41029D01*
Y41791D01*
X23242Y42172D01*
X23432Y42362D01*
X23813Y42553D01*
X24194D01*
X24575Y42362D01*
X25146Y41981D01*
X27051Y40077D01*
Y42743D01*
X109162Y133000D02*
Y129000D01*
X111448D01*
X111885Y132238D02*
X112266Y132428D01*
X112838Y133000D01*
Y129000D01*
X120105Y11500D02*
Y8453D01*
X119914Y7881D01*
X119724Y7691D01*
X119343Y7500D01*
X118962D01*
X118581Y7691D01*
X118391Y7881D01*
X118201Y8453D01*
Y8833D01*
X121324Y10547D02*
Y10738D01*
X121514Y11119D01*
X121705Y11309D01*
X122085Y11500D01*
X122847D01*
X123228Y11309D01*
X123418Y11119D01*
X123609Y10738D01*
Y10357D01*
X123418Y9976D01*
X123038Y9405D01*
X121133Y7500D01*
X123799D01*
X64605Y132500D02*
Y129453D01*
X64415Y128881D01*
X64224Y128691D01*
X63843Y128500D01*
X63462D01*
X63082Y128691D01*
X62891Y128881D01*
X62701Y129453D01*
Y129833D01*
X67918Y132500D02*
X66014D01*
X65824Y130786D01*
X66014Y130976D01*
X66585Y131167D01*
X67157D01*
X67728Y130976D01*
X68109Y130595D01*
X68299Y130024D01*
Y129643D01*
X68109Y129072D01*
X67728Y128691D01*
X67157Y128500D01*
X66585D01*
X66014Y128691D01*
X65824Y128881D01*
X65633Y129262D01*
X66510Y88500D02*
Y85453D01*
X66319Y84881D01*
X66129Y84691D01*
X65748Y84500D01*
X65367D01*
X64986Y84691D01*
X64796Y84881D01*
X64605Y85453D01*
Y85834D01*
X69442Y88500D02*
X67538Y85834D01*
X70395D01*
X69442Y88500D02*
Y84500D01*
X144605Y112500D02*
Y109453D01*
X144414Y108881D01*
X144224Y108691D01*
X143843Y108500D01*
X143462D01*
X143081Y108691D01*
X142891Y108881D01*
X142701Y109453D01*
Y109834D01*
X146014Y112500D02*
X148109D01*
X146966Y110976D01*
X147538D01*
X147918Y110786D01*
X148109Y110595D01*
X148299Y110024D01*
Y109643D01*
X148109Y109072D01*
X147728Y108691D01*
X147157Y108500D01*
X146586D01*
X146014Y108691D01*
X145824Y108881D01*
X145633Y109262D01*
X66700Y73500D02*
Y70453D01*
X66510Y69881D01*
X66319Y69691D01*
X65938Y69500D01*
X65558D01*
X65177Y69691D01*
X64986Y69881D01*
X64796Y70453D01*
Y70833D01*
X70014Y72928D02*
X69823Y73309D01*
X69252Y73500D01*
X68871D01*
X68300Y73309D01*
X67919Y72738D01*
X67729Y71786D01*
Y70833D01*
X67919Y70072D01*
X68300Y69691D01*
X68871Y69500D01*
X69062D01*
X69633Y69691D01*
X70014Y70072D01*
X70204Y70643D01*
Y70833D01*
X70014Y71405D01*
X69633Y71786D01*
X69062Y71976D01*
X68871D01*
X68300Y71786D01*
X67919Y71405D01*
X67729Y70833D01*
X77462Y177779D02*
Y174732D01*
X77271Y174161D01*
X77081Y173970D01*
X76700Y173780D01*
X76319D01*
X75938Y173970D01*
X75748Y174161D01*
X75558Y174732D01*
Y175113D01*
X78490Y177017D02*
X78871Y177208D01*
X79442Y177779D01*
Y173780D01*
X136500Y126386D02*
X140500D01*
X136500D02*
Y127719D01*
X136691Y128291D01*
X137072Y128672D01*
X137453Y128862D01*
X138024Y129052D01*
X138976D01*
X139547Y128862D01*
X139928Y128672D01*
X140309Y128291D01*
X140500Y127719D01*
Y126386D01*
X137453Y130138D02*
X137262D01*
X136881Y130328D01*
X136691Y130519D01*
X136500Y130900D01*
Y131661D01*
X136691Y132042D01*
X136881Y132233D01*
X137262Y132423D01*
X137643D01*
X138024Y132233D01*
X138595Y131852D01*
X140500Y129947D01*
Y132614D01*
X87243Y84000D02*
Y80000D01*
Y84000D02*
X88576D01*
X89148Y83809D01*
X89529Y83428D01*
X89719Y83047D01*
X89909Y82476D01*
Y81524D01*
X89719Y80953D01*
X89529Y80572D01*
X89148Y80191D01*
X88576Y80000D01*
X87243D01*
X90804Y83238D02*
X91185Y83428D01*
X91757Y84000D01*
Y80000D01*
X48253Y8047D02*
X48062Y8428D01*
X47681Y8809D01*
X47301Y9000D01*
X46539D01*
X46158Y8809D01*
X45777Y8428D01*
X45587Y8047D01*
X45396Y7476D01*
Y6524D01*
X45587Y5953D01*
X45777Y5572D01*
X46158Y5191D01*
X46539Y5000D01*
X47301D01*
X47681Y5191D01*
X48062Y5572D01*
X48253Y5953D01*
X49567Y8047D02*
Y8238D01*
X49757Y8619D01*
X49948Y8809D01*
X50329Y9000D01*
X51090D01*
X51471Y8809D01*
X51662Y8619D01*
X51852Y8238D01*
Y7857D01*
X51662Y7476D01*
X51281Y6905D01*
X49376Y5000D01*
X52043D01*
X53128Y8047D02*
Y8238D01*
X53318Y8619D01*
X53509Y8809D01*
X53890Y9000D01*
X54651D01*
X55032Y8809D01*
X55223Y8619D01*
X55413Y8238D01*
Y7857D01*
X55223Y7476D01*
X54842Y6905D01*
X52938Y5000D01*
X55604D01*
X49610Y20047D02*
X49419Y20428D01*
X49038Y20809D01*
X48658Y21000D01*
X47896D01*
X47515Y20809D01*
X47134Y20428D01*
X46944Y20047D01*
X46753Y19476D01*
Y18524D01*
X46944Y17953D01*
X47134Y17572D01*
X47515Y17191D01*
X47896Y17000D01*
X48658D01*
X49038Y17191D01*
X49419Y17572D01*
X49610Y17953D01*
X50924Y20047D02*
Y20238D01*
X51114Y20619D01*
X51305Y20809D01*
X51686Y21000D01*
X52447D01*
X52828Y20809D01*
X53019Y20619D01*
X53209Y20238D01*
Y19857D01*
X53019Y19476D01*
X52638Y18905D01*
X50733Y17000D01*
X53399D01*
X54295Y20238D02*
X54675Y20428D01*
X55247Y21000D01*
Y17000D01*
X16500Y82296D02*
X16310Y82677D01*
X15929Y83058D01*
X15548Y83249D01*
X14786D01*
X14405Y83058D01*
X14025Y82677D01*
X13834Y82296D01*
X13644Y81725D01*
Y80773D01*
X13834Y80202D01*
X14025Y79821D01*
X14405Y79440D01*
X14786Y79250D01*
X15548D01*
X15929Y79440D01*
X16310Y79821D01*
X16500Y80202D01*
X17814Y82296D02*
Y82487D01*
X18005Y82868D01*
X18195Y83058D01*
X18576Y83249D01*
X19338D01*
X19719Y83058D01*
X19909Y82868D01*
X20099Y82487D01*
Y82106D01*
X19909Y81725D01*
X19528Y81154D01*
X17624Y79250D01*
X20290D01*
X22328Y83249D02*
X21756Y83058D01*
X21375Y82487D01*
X21185Y81535D01*
Y80963D01*
X21375Y80011D01*
X21756Y79440D01*
X22328Y79250D01*
X22708D01*
X23280Y79440D01*
X23661Y80011D01*
X23851Y80963D01*
Y81535D01*
X23661Y82487D01*
X23280Y83058D01*
X22708Y83249D01*
X22328D01*
X16410Y73796D02*
X16219Y74177D01*
X15839Y74558D01*
X15458Y74749D01*
X14696D01*
X14315Y74558D01*
X13934Y74177D01*
X13744Y73796D01*
X13553Y73225D01*
Y72273D01*
X13744Y71702D01*
X13934Y71321D01*
X14315Y70940D01*
X14696Y70749D01*
X15458D01*
X15839Y70940D01*
X16219Y71321D01*
X16410Y71702D01*
X17533Y73987D02*
X17914Y74177D01*
X18486Y74749D01*
Y70749D01*
X22942Y73416D02*
X22751Y72844D01*
X22370Y72463D01*
X21799Y72273D01*
X21609D01*
X21037Y72463D01*
X20657Y72844D01*
X20466Y73416D01*
Y73606D01*
X20657Y74177D01*
X21037Y74558D01*
X21609Y74749D01*
X21799D01*
X22370Y74558D01*
X22751Y74177D01*
X22942Y73416D01*
Y72463D01*
X22751Y71511D01*
X22370Y70940D01*
X21799Y70749D01*
X21418D01*
X20847Y70940D01*
X20657Y71321D01*
X86851Y55228D02*
X86660Y55609D01*
X86279Y55990D01*
X85898Y56181D01*
X85137D01*
X84756Y55990D01*
X84375Y55609D01*
X84184Y55228D01*
X83994Y54657D01*
Y53705D01*
X84184Y53134D01*
X84375Y52753D01*
X84756Y52372D01*
X85137Y52181D01*
X85898D01*
X86279Y52372D01*
X86660Y52753D01*
X86851Y53134D01*
X87974Y55419D02*
X88355Y55609D01*
X88926Y56181D01*
Y52181D01*
X91859Y56181D02*
X91288Y55990D01*
X91097Y55609D01*
Y55228D01*
X91288Y54848D01*
X91669Y54657D01*
X92430Y54467D01*
X93002Y54276D01*
X93383Y53895D01*
X93573Y53514D01*
Y52943D01*
X93383Y52562D01*
X93192Y52372D01*
X92621Y52181D01*
X91859D01*
X91288Y52372D01*
X91097Y52562D01*
X90907Y52943D01*
Y53514D01*
X91097Y53895D01*
X91478Y54276D01*
X92049Y54467D01*
X92811Y54657D01*
X93192Y54848D01*
X93383Y55228D01*
Y55609D01*
X93192Y55990D01*
X92621Y56181D01*
X91859D01*
X119067Y141047D02*
X118877Y141428D01*
X118496Y141809D01*
X118115Y142000D01*
X117353D01*
X116972Y141809D01*
X116591Y141428D01*
X116401Y141047D01*
X116210Y140476D01*
Y139524D01*
X116401Y138953D01*
X116591Y138572D01*
X116972Y138191D01*
X117353Y138000D01*
X118115D01*
X118496Y138191D01*
X118877Y138572D01*
X119067Y138953D01*
X120191Y141238D02*
X120571Y141428D01*
X121143Y142000D01*
Y138000D01*
X125789Y142000D02*
X123885Y138000D01*
X123123Y142000D02*
X125789D01*
X119162Y147047D02*
X118972Y147428D01*
X118591Y147809D01*
X118210Y148000D01*
X117448D01*
X117068Y147809D01*
X116687Y147428D01*
X116496Y147047D01*
X116306Y146476D01*
Y145524D01*
X116496Y144953D01*
X116687Y144572D01*
X117068Y144191D01*
X117448Y144000D01*
X118210D01*
X118591Y144191D01*
X118972Y144572D01*
X119162Y144953D01*
X120286Y147238D02*
X120667Y147428D01*
X121238Y148000D01*
Y144000D01*
X125504Y147428D02*
X125313Y147809D01*
X124742Y148000D01*
X124361D01*
X123790Y147809D01*
X123409Y147238D01*
X123219Y146286D01*
Y145334D01*
X123409Y144572D01*
X123790Y144191D01*
X124361Y144000D01*
X124552D01*
X125123Y144191D01*
X125504Y144572D01*
X125694Y145143D01*
Y145334D01*
X125504Y145905D01*
X125123Y146286D01*
X124552Y146476D01*
X124361D01*
X123790Y146286D01*
X123409Y145905D01*
X123219Y145334D01*
X68567Y120547D02*
X68377Y120928D01*
X67996Y121309D01*
X67615Y121500D01*
X66853D01*
X66472Y121309D01*
X66091Y120928D01*
X65901Y120547D01*
X65711Y119976D01*
Y119024D01*
X65901Y118453D01*
X66091Y118072D01*
X66472Y117691D01*
X66853Y117500D01*
X67615D01*
X67996Y117691D01*
X68377Y118072D01*
X68567Y118453D01*
X69691Y120738D02*
X70072Y120928D01*
X70643Y121500D01*
Y117500D01*
X74909Y121500D02*
X73004D01*
X72814Y119786D01*
X73004Y119976D01*
X73576Y120167D01*
X74147D01*
X74718Y119976D01*
X75099Y119595D01*
X75289Y119024D01*
Y118643D01*
X75099Y118072D01*
X74718Y117691D01*
X74147Y117500D01*
X73576D01*
X73004Y117691D01*
X72814Y117881D01*
X72623Y118262D01*
X68472Y114547D02*
X68281Y114928D01*
X67901Y115309D01*
X67520Y115500D01*
X66758D01*
X66377Y115309D01*
X65996Y114928D01*
X65806Y114547D01*
X65615Y113976D01*
Y113024D01*
X65806Y112453D01*
X65996Y112072D01*
X66377Y111691D01*
X66758Y111500D01*
X67520D01*
X67901Y111691D01*
X68281Y112072D01*
X68472Y112453D01*
X69595Y114738D02*
X69976Y114928D01*
X70548Y115500D01*
Y111500D01*
X74432Y115500D02*
X72528Y112833D01*
X75385D01*
X74432Y115500D02*
Y111500D01*
X138086Y67146D02*
X137706Y66955D01*
X137325Y66575D01*
X137134Y66194D01*
Y65432D01*
X137325Y65051D01*
X137706Y64670D01*
X138086Y64480D01*
X138658Y64289D01*
X139610D01*
X140181Y64480D01*
X140562Y64670D01*
X140943Y65051D01*
X141133Y65432D01*
Y66194D01*
X140943Y66575D01*
X140562Y66955D01*
X140181Y67146D01*
X137896Y68269D02*
X137706Y68650D01*
X137134Y69222D01*
X141133D01*
X137134Y71583D02*
Y73678D01*
X138658Y72535D01*
Y73106D01*
X138848Y73487D01*
X139039Y73678D01*
X139610Y73868D01*
X139991D01*
X140562Y73678D01*
X140943Y73297D01*
X141133Y72726D01*
Y72154D01*
X140943Y71583D01*
X140752Y71393D01*
X140372Y71202D01*
X117453Y47567D02*
X117072Y47377D01*
X116691Y46996D01*
X116500Y46615D01*
Y45853D01*
X116691Y45472D01*
X117072Y45091D01*
X117453Y44901D01*
X118024Y44711D01*
X118976D01*
X119547Y44901D01*
X119928Y45091D01*
X120309Y45472D01*
X120500Y45853D01*
Y46615D01*
X120309Y46996D01*
X119928Y47377D01*
X119547Y47567D01*
X117262Y48691D02*
X117072Y49071D01*
X116500Y49643D01*
X120500D01*
X117453Y51814D02*
X117262D01*
X116881Y52004D01*
X116691Y52195D01*
X116500Y52575D01*
Y53337D01*
X116691Y53718D01*
X116881Y53909D01*
X117262Y54099D01*
X117643D01*
X118024Y53909D01*
X118595Y53528D01*
X120500Y51623D01*
Y54290D01*
X117453Y36924D02*
X117072Y36734D01*
X116691Y36353D01*
X116500Y35972D01*
Y35210D01*
X116691Y34829D01*
X117072Y34448D01*
X117453Y34258D01*
X118024Y34067D01*
X118976D01*
X119547Y34258D01*
X119928Y34448D01*
X120309Y34829D01*
X120500Y35210D01*
Y35972D01*
X120309Y36353D01*
X119928Y36734D01*
X119547Y36924D01*
X117262Y38048D02*
X117072Y38429D01*
X116500Y39000D01*
X120500D01*
X117262Y40980D02*
X117072Y41361D01*
X116500Y41932D01*
X120500D01*
X149953Y45567D02*
X149572Y45377D01*
X149191Y44996D01*
X149000Y44615D01*
Y43853D01*
X149191Y43472D01*
X149572Y43091D01*
X149953Y42901D01*
X150524Y42711D01*
X151476D01*
X152047Y42901D01*
X152428Y43091D01*
X152809Y43472D01*
X153000Y43853D01*
Y44615D01*
X152809Y44996D01*
X152428Y45377D01*
X152047Y45567D01*
X149762Y46691D02*
X149572Y47071D01*
X149000Y47643D01*
X153000D01*
X149000Y50766D02*
X149191Y50195D01*
X149762Y49814D01*
X150714Y49623D01*
X151286D01*
X152238Y49814D01*
X152809Y50195D01*
X153000Y50766D01*
Y51147D01*
X152809Y51718D01*
X152238Y52099D01*
X151286Y52289D01*
X150714D01*
X149762Y52099D01*
X149191Y51718D01*
X149000Y51147D01*
Y50766D01*
X109629Y52547D02*
X109438Y52928D01*
X109057Y53309D01*
X108677Y53500D01*
X107915D01*
X107534Y53309D01*
X107153Y52928D01*
X106963Y52547D01*
X106772Y51976D01*
Y51024D01*
X106963Y50453D01*
X107153Y50072D01*
X107534Y49691D01*
X107915Y49500D01*
X108677D01*
X109057Y49691D01*
X109438Y50072D01*
X109629Y50453D01*
X113228Y52166D02*
X113037Y51595D01*
X112657Y51214D01*
X112085Y51024D01*
X111895D01*
X111323Y51214D01*
X110943Y51595D01*
X110752Y52166D01*
Y52357D01*
X110943Y52928D01*
X111323Y53309D01*
X111895Y53500D01*
X112085D01*
X112657Y53309D01*
X113037Y52928D01*
X113228Y52166D01*
Y51214D01*
X113037Y50262D01*
X112657Y49691D01*
X112085Y49500D01*
X111704D01*
X111133Y49691D01*
X110943Y50072D01*
X144953Y63533D02*
X144572Y63343D01*
X144191Y62962D01*
X144000Y62581D01*
Y61819D01*
X144191Y61439D01*
X144572Y61058D01*
X144953Y60867D01*
X145524Y60677D01*
X146476D01*
X147047Y60867D01*
X147428Y61058D01*
X147809Y61439D01*
X148000Y61819D01*
Y62581D01*
X147809Y62962D01*
X147428Y63343D01*
X147047Y63533D01*
X144000Y65609D02*
X144191Y65038D01*
X144572Y64847D01*
X144953D01*
X145334Y65038D01*
X145524Y65419D01*
X145714Y66180D01*
X145905Y66752D01*
X146286Y67133D01*
X146667Y67323D01*
X147238D01*
X147619Y67133D01*
X147809Y66942D01*
X148000Y66371D01*
Y65609D01*
X147809Y65038D01*
X147619Y64847D01*
X147238Y64657D01*
X146667D01*
X146286Y64847D01*
X145905Y65228D01*
X145714Y65800D01*
X145524Y66561D01*
X145334Y66942D01*
X144953Y67133D01*
X144572D01*
X144191Y66942D01*
X144000Y66371D01*
Y65609D01*
X114533Y93047D02*
X114343Y93428D01*
X113962Y93809D01*
X113581Y94000D01*
X112820D01*
X112439Y93809D01*
X112058Y93428D01*
X111867Y93047D01*
X111677Y92476D01*
Y91524D01*
X111867Y90953D01*
X112058Y90572D01*
X112439Y90191D01*
X112820Y90000D01*
X113581D01*
X113962Y90191D01*
X114343Y90572D01*
X114533Y90953D01*
X118323Y94000D02*
X116419Y90000D01*
X115657Y94000D02*
X118323D01*
X110629Y138047D02*
X110438Y138428D01*
X110057Y138809D01*
X109677Y139000D01*
X108915D01*
X108534Y138809D01*
X108153Y138428D01*
X107963Y138047D01*
X107772Y137476D01*
Y136524D01*
X107963Y135953D01*
X108153Y135572D01*
X108534Y135191D01*
X108915Y135000D01*
X109677D01*
X110057Y135191D01*
X110438Y135572D01*
X110629Y135953D01*
X114037Y138428D02*
X113847Y138809D01*
X113276Y139000D01*
X112895D01*
X112323Y138809D01*
X111943Y138238D01*
X111752Y137286D01*
Y136334D01*
X111943Y135572D01*
X112323Y135191D01*
X112895Y135000D01*
X113085D01*
X113657Y135191D01*
X114037Y135572D01*
X114228Y136143D01*
Y136334D01*
X114037Y136905D01*
X113657Y137286D01*
X113085Y137476D01*
X112895D01*
X112323Y137286D01*
X111943Y136905D01*
X111752Y136334D01*
X70533Y102047D02*
X70343Y102428D01*
X69962Y102809D01*
X69581Y103000D01*
X68819D01*
X68439Y102809D01*
X68058Y102428D01*
X67867Y102047D01*
X67677Y101476D01*
Y100524D01*
X67867Y99953D01*
X68058Y99572D01*
X68439Y99191D01*
X68819Y99000D01*
X69581D01*
X69962Y99191D01*
X70343Y99572D01*
X70533Y99953D01*
X73942Y103000D02*
X72038D01*
X71847Y101286D01*
X72038Y101476D01*
X72609Y101666D01*
X73181D01*
X73752Y101476D01*
X74133Y101095D01*
X74323Y100524D01*
Y100143D01*
X74133Y99572D01*
X73752Y99191D01*
X73181Y99000D01*
X72609D01*
X72038Y99191D01*
X71847Y99381D01*
X71657Y99762D01*
X70438Y108047D02*
X70248Y108428D01*
X69867Y108809D01*
X69486Y109000D01*
X68724D01*
X68343Y108809D01*
X67963Y108428D01*
X67772Y108047D01*
X67582Y107476D01*
Y106524D01*
X67772Y105953D01*
X67963Y105572D01*
X68343Y105191D01*
X68724Y105000D01*
X69486D01*
X69867Y105191D01*
X70248Y105572D01*
X70438Y105953D01*
X73466Y109000D02*
X71562Y106333D01*
X74418D01*
X73466Y109000D02*
Y105000D01*
X117453Y132533D02*
X117072Y132343D01*
X116691Y131962D01*
X116500Y131581D01*
Y130819D01*
X116691Y130439D01*
X117072Y130058D01*
X117453Y129867D01*
X118024Y129677D01*
X118976D01*
X119547Y129867D01*
X119928Y130058D01*
X120309Y130439D01*
X120500Y130819D01*
Y131581D01*
X120309Y131962D01*
X119928Y132343D01*
X119547Y132533D01*
X116500Y134038D02*
Y136133D01*
X118024Y134990D01*
Y135561D01*
X118214Y135942D01*
X118405Y136133D01*
X118976Y136323D01*
X119357D01*
X119928Y136133D01*
X120309Y135752D01*
X120500Y135180D01*
Y134609D01*
X120309Y134038D01*
X120119Y133847D01*
X119738Y133657D01*
X123453Y132033D02*
X123072Y131843D01*
X122691Y131462D01*
X122500Y131081D01*
Y130319D01*
X122691Y129939D01*
X123072Y129558D01*
X123453Y129367D01*
X124024Y129177D01*
X124976D01*
X125547Y129367D01*
X125928Y129558D01*
X126309Y129939D01*
X126500Y130319D01*
Y131081D01*
X126309Y131462D01*
X125928Y131843D01*
X125547Y132033D01*
X123453Y133347D02*
X123262D01*
X122881Y133538D01*
X122691Y133728D01*
X122500Y134109D01*
Y134871D01*
X122691Y135252D01*
X122881Y135442D01*
X123262Y135633D01*
X123643D01*
X124024Y135442D01*
X124595Y135061D01*
X126500Y133157D01*
Y135823D01*
X129453Y132890D02*
X129072Y132700D01*
X128691Y132319D01*
X128500Y131938D01*
Y131176D01*
X128691Y130796D01*
X129072Y130415D01*
X129453Y130224D01*
X130024Y130034D01*
X130976D01*
X131547Y130224D01*
X131928Y130415D01*
X132309Y130796D01*
X132500Y131176D01*
Y131938D01*
X132309Y132319D01*
X131928Y132700D01*
X131547Y132890D01*
X129262Y134014D02*
X129072Y134395D01*
X128500Y134966D01*
X132500D01*
D16*
X138500Y114095D02*
D03*
D17*
X73595Y80500D02*
D03*
M02*
