G04*
G04 #@! TF.GenerationSoftware,Altium Limited,Altium Designer,23.8.1 (32)*
G04*
G04 Layer_Physical_Order=2*
G04 Layer_Color=16711833*
%FSLAX25Y25*%
%MOIN*%
G70*
G04*
G04 #@! TF.SameCoordinates,C2238681-CFA7-4295-91EC-4EAF016C526F*
G04*
G04*
G04 #@! TF.FilePolarity,Positive*
G04*
G01*
G75*
%ADD51C,0.15000*%
%ADD52C,0.01800*%
G36*
X198980Y1020D02*
X1020D01*
Y184980D01*
X97000D01*
Y170502D01*
X104000D01*
Y184980D01*
X198980D01*
Y1020D01*
D02*
G37*
%LPC*%
G36*
X87512Y139391D02*
X86488D01*
X85498Y139125D01*
X84611Y138613D01*
X83887Y137889D01*
X83375Y137002D01*
X83109Y136012D01*
Y134988D01*
X83375Y133998D01*
X83887Y133111D01*
X84611Y132387D01*
X85498Y131875D01*
X86488Y131609D01*
X87512D01*
X88502Y131875D01*
X89389Y132387D01*
X90113Y133111D01*
X90625Y133998D01*
X90891Y134988D01*
Y136012D01*
X90625Y137002D01*
X90113Y137889D01*
X89389Y138613D01*
X88502Y139125D01*
X87512Y139391D01*
D02*
G37*
G36*
X80891D02*
X73110D01*
Y131609D01*
X80891D01*
Y139391D01*
D02*
G37*
G36*
X138391Y109891D02*
X130609D01*
Y102110D01*
X138391D01*
Y109891D01*
D02*
G37*
G36*
X125012D02*
X123988D01*
X122998Y109625D01*
X122111Y109113D01*
X121387Y108389D01*
X120875Y107502D01*
X120609Y106512D01*
Y105488D01*
X120875Y104498D01*
X121387Y103611D01*
X122111Y102887D01*
X122998Y102375D01*
X123988Y102110D01*
X125012D01*
X126002Y102375D01*
X126889Y102887D01*
X127613Y103611D01*
X128125Y104498D01*
X128391Y105488D01*
Y106512D01*
X128125Y107502D01*
X127613Y108389D01*
X126889Y109113D01*
X126002Y109625D01*
X125012Y109891D01*
D02*
G37*
G36*
X89012Y95390D02*
X87988D01*
X86998Y95125D01*
X86111Y94613D01*
X85387Y93889D01*
X84875Y93002D01*
X84610Y92012D01*
Y90988D01*
X84875Y89998D01*
X85387Y89111D01*
X86111Y88387D01*
X86998Y87875D01*
X87988Y87609D01*
X89012D01*
X90002Y87875D01*
X90889Y88387D01*
X91613Y89111D01*
X92125Y89998D01*
X92391Y90988D01*
Y92012D01*
X92125Y93002D01*
X91613Y93889D01*
X90889Y94613D01*
X90002Y95125D01*
X89012Y95390D01*
D02*
G37*
G36*
X82390D02*
X74610D01*
Y87609D01*
X82390D01*
Y95390D01*
D02*
G37*
G36*
X55378Y83400D02*
X54622D01*
X53924Y83111D01*
X53575Y82762D01*
X53250Y82632D01*
X52925Y82762D01*
X52576Y83111D01*
X51878Y83400D01*
X51122D01*
X50424Y83111D01*
X50075Y82762D01*
X49750Y82632D01*
X49425Y82762D01*
X49076Y83111D01*
X48378Y83400D01*
X47622D01*
X46924Y83111D01*
X46575Y82762D01*
X46250Y82632D01*
X45925Y82762D01*
X45576Y83111D01*
X44878Y83400D01*
X44122D01*
X43424Y83111D01*
X43075Y82762D01*
X42750Y82632D01*
X42425Y82762D01*
X42076Y83111D01*
X41378Y83400D01*
X40622D01*
X39924Y83111D01*
X39389Y82576D01*
X39100Y81878D01*
Y81122D01*
X39389Y80424D01*
X39924Y79889D01*
X40210Y79771D01*
Y79229D01*
X39924Y79111D01*
X39389Y78576D01*
X39100Y77878D01*
Y77122D01*
X39389Y76424D01*
X39924Y75889D01*
X40210Y75771D01*
Y75229D01*
X39924Y75111D01*
X39389Y74576D01*
X39100Y73878D01*
Y73122D01*
X39389Y72424D01*
X39924Y71889D01*
X40622Y71600D01*
X41378D01*
X42076Y71889D01*
X42425Y72238D01*
X42750Y72368D01*
X43075Y72238D01*
X43424Y71889D01*
X44122Y71600D01*
X44878D01*
X45576Y71889D01*
X45925Y72238D01*
X46250Y72368D01*
X46575Y72238D01*
X46924Y71889D01*
X47622Y71600D01*
X48378D01*
X49076Y71889D01*
X49425Y72238D01*
X49750Y72368D01*
X50075Y72238D01*
X50424Y71889D01*
X51122Y71600D01*
X51878D01*
X52576Y71889D01*
X52925Y72238D01*
X53250Y72368D01*
X53575Y72238D01*
X53924Y71889D01*
X54622Y71600D01*
X55378D01*
X56076Y71889D01*
X56611Y72424D01*
X56900Y73122D01*
Y73878D01*
X56611Y74576D01*
X56076Y75111D01*
X55790Y75229D01*
Y75771D01*
X56076Y75889D01*
X56611Y76424D01*
X56900Y77122D01*
Y77878D01*
X56611Y78576D01*
X56076Y79111D01*
X55790Y79229D01*
Y79771D01*
X56076Y79889D01*
X56611Y80424D01*
X56900Y81122D01*
Y81878D01*
X56611Y82576D01*
X56076Y83111D01*
X55378Y83400D01*
D02*
G37*
G36*
X89012Y68891D02*
X87988D01*
X86998Y68625D01*
X86111Y68113D01*
X85387Y67389D01*
X84875Y66502D01*
X84610Y65512D01*
Y64488D01*
X84875Y63498D01*
X85387Y62611D01*
X86111Y61887D01*
X86998Y61375D01*
X87988Y61110D01*
X89012D01*
X90002Y61375D01*
X90889Y61887D01*
X91613Y62611D01*
X92125Y63498D01*
X92391Y64488D01*
Y65512D01*
X92125Y66502D01*
X91613Y67389D01*
X90889Y68113D01*
X90002Y68625D01*
X89012Y68891D01*
D02*
G37*
G36*
X82390D02*
X74610D01*
Y61110D01*
X82390D01*
Y68891D01*
D02*
G37*
G36*
X103878Y46400D02*
X103122D01*
X102424Y46111D01*
X102075Y45762D01*
X101750Y45632D01*
X101425Y45762D01*
X101076Y46111D01*
X100378Y46400D01*
X99622D01*
X98924Y46111D01*
X98575Y45762D01*
X98250Y45632D01*
X97925Y45762D01*
X97576Y46111D01*
X96878Y46400D01*
X96122D01*
X95424Y46111D01*
X94889Y45576D01*
X94600Y44878D01*
Y44122D01*
X94889Y43424D01*
X95424Y42889D01*
X95710Y42771D01*
Y42229D01*
X95424Y42111D01*
X94889Y41576D01*
X94600Y40878D01*
Y40122D01*
X94889Y39424D01*
X95424Y38889D01*
X96122Y38600D01*
X96878D01*
X97576Y38889D01*
X97925Y39238D01*
X98250Y39368D01*
X98575Y39238D01*
X98924Y38889D01*
X99622Y38600D01*
X100378D01*
X101076Y38889D01*
X101425Y39238D01*
X101750Y39368D01*
X102075Y39238D01*
X102424Y38889D01*
X103122Y38600D01*
X103878D01*
X104576Y38889D01*
X105111Y39424D01*
X105400Y40122D01*
Y40878D01*
X105111Y41576D01*
X104576Y42111D01*
X104290Y42229D01*
Y42771D01*
X104576Y42889D01*
X105111Y43424D01*
X105400Y44122D01*
Y44878D01*
X105111Y45576D01*
X104576Y46111D01*
X103878Y46400D01*
D02*
G37*
G36*
X146878Y45900D02*
X146122D01*
X145424Y45611D01*
X144889Y45076D01*
X144600Y44378D01*
Y43622D01*
X144889Y42924D01*
X145424Y42389D01*
X146122Y42100D01*
X146878D01*
X147576Y42389D01*
X148111Y42924D01*
X148400Y43622D01*
Y44378D01*
X148111Y45076D01*
X147576Y45611D01*
X146878Y45900D01*
D02*
G37*
G36*
X122378Y44235D02*
X121622D01*
X120924Y43945D01*
X120389Y43411D01*
X120100Y42713D01*
Y41957D01*
X120389Y41258D01*
X120924Y40724D01*
X121622Y40435D01*
X122378D01*
X123076Y40724D01*
X123611Y41258D01*
X123900Y41957D01*
Y42713D01*
X123611Y43411D01*
X123076Y43945D01*
X122378Y44235D01*
D02*
G37*
G36*
X135909Y35342D02*
X135154D01*
X134455Y35053D01*
X134000Y34597D01*
X133545Y35053D01*
X132846Y35342D01*
X132091D01*
X131392Y35053D01*
X130858Y34518D01*
X130569Y33820D01*
Y33064D01*
X130858Y32366D01*
X131392Y31831D01*
X132091Y31542D01*
X132846D01*
X133545Y31831D01*
X134000Y32286D01*
X134455Y31831D01*
X135154Y31542D01*
X135909D01*
X136608Y31831D01*
X137142Y32366D01*
X137432Y33064D01*
Y33820D01*
X137142Y34518D01*
X136608Y35053D01*
X135909Y35342D01*
D02*
G37*
G36*
X143878Y36597D02*
X143122D01*
X142424Y36308D01*
X141889Y35773D01*
X141600Y35075D01*
Y34319D01*
X141889Y33621D01*
X142424Y33086D01*
X143122Y32797D01*
X143878D01*
X144576Y33086D01*
X145111Y33621D01*
X145400Y34319D01*
Y35075D01*
X145111Y35773D01*
X144576Y36308D01*
X143878Y36597D01*
D02*
G37*
G36*
X57878Y32900D02*
X57122D01*
X56424Y32611D01*
X55889Y32076D01*
X55600Y31378D01*
Y30622D01*
X55889Y29924D01*
X56424Y29389D01*
X57122Y29100D01*
X57878D01*
X58576Y29389D01*
X59111Y29924D01*
X59400Y30622D01*
Y31378D01*
X59111Y32076D01*
X58576Y32611D01*
X57878Y32900D01*
D02*
G37*
%LPD*%
D51*
X187500Y173500D02*
D03*
Y12500D02*
D03*
X12500Y173500D02*
D03*
X12500Y12500D02*
D03*
D52*
X105823Y88839D02*
D03*
X104712Y99872D02*
D03*
X107066Y99380D02*
D03*
Y97180D02*
D03*
X105019Y97718D02*
D03*
X105823Y91039D02*
D03*
Y93239D02*
D03*
Y95439D02*
D03*
X107823Y89839D02*
D03*
Y92039D02*
D03*
Y94239D02*
D03*
X107066Y86997D02*
D03*
Y84798D02*
D03*
X97500Y94400D02*
D03*
Y92200D02*
D03*
Y90000D02*
D03*
X99500Y95600D02*
D03*
Y93400D02*
D03*
Y91200D02*
D03*
X100304Y97880D02*
D03*
X98257Y97341D02*
D03*
Y99541D02*
D03*
Y84959D02*
D03*
Y87159D02*
D03*
X105100Y169344D02*
D03*
X95899Y168911D02*
D03*
X102857Y168213D02*
D03*
X98143Y167811D02*
D03*
Y165611D02*
D03*
Y163411D02*
D03*
X102857Y166013D02*
D03*
Y163813D02*
D03*
X190000Y150000D02*
D03*
Y140000D02*
D03*
Y130000D02*
D03*
X180000Y150000D02*
D03*
Y140000D02*
D03*
Y130000D02*
D03*
X170000Y150000D02*
D03*
Y140000D02*
D03*
Y130000D02*
D03*
X160000Y150000D02*
D03*
Y140000D02*
D03*
Y130000D02*
D03*
X190000Y160000D02*
D03*
Y120000D02*
D03*
Y110000D02*
D03*
Y100000D02*
D03*
Y90000D02*
D03*
Y80000D02*
D03*
Y70000D02*
D03*
Y60000D02*
D03*
Y50000D02*
D03*
Y40000D02*
D03*
Y30000D02*
D03*
X180000Y160000D02*
D03*
Y120000D02*
D03*
Y110000D02*
D03*
Y100000D02*
D03*
Y90000D02*
D03*
Y80000D02*
D03*
Y70000D02*
D03*
Y60000D02*
D03*
Y50000D02*
D03*
Y40000D02*
D03*
Y30000D02*
D03*
Y20000D02*
D03*
X170000Y160000D02*
D03*
Y120000D02*
D03*
Y110000D02*
D03*
Y100000D02*
D03*
Y90000D02*
D03*
Y80000D02*
D03*
Y70000D02*
D03*
Y60000D02*
D03*
Y50000D02*
D03*
Y40000D02*
D03*
Y30000D02*
D03*
Y20000D02*
D03*
Y10000D02*
D03*
X160000Y170000D02*
D03*
Y160000D02*
D03*
Y120000D02*
D03*
Y110000D02*
D03*
Y100000D02*
D03*
Y90000D02*
D03*
Y80000D02*
D03*
Y70000D02*
D03*
Y60000D02*
D03*
Y50000D02*
D03*
Y40000D02*
D03*
Y30000D02*
D03*
Y20000D02*
D03*
Y10000D02*
D03*
X150000Y170000D02*
D03*
Y160000D02*
D03*
Y150000D02*
D03*
Y140000D02*
D03*
Y130000D02*
D03*
Y120000D02*
D03*
Y110000D02*
D03*
Y100000D02*
D03*
Y90000D02*
D03*
Y80000D02*
D03*
Y70000D02*
D03*
Y60000D02*
D03*
Y50000D02*
D03*
Y30000D02*
D03*
Y20000D02*
D03*
Y10000D02*
D03*
X140000Y170000D02*
D03*
Y160000D02*
D03*
Y150000D02*
D03*
Y140000D02*
D03*
Y130000D02*
D03*
Y100000D02*
D03*
Y20000D02*
D03*
Y10000D02*
D03*
X130000Y170000D02*
D03*
Y160000D02*
D03*
Y150000D02*
D03*
Y140000D02*
D03*
Y130000D02*
D03*
Y100000D02*
D03*
Y20000D02*
D03*
Y10000D02*
D03*
X120000Y170000D02*
D03*
Y160000D02*
D03*
Y150000D02*
D03*
Y140000D02*
D03*
Y130000D02*
D03*
Y120000D02*
D03*
Y110000D02*
D03*
Y20000D02*
D03*
Y10000D02*
D03*
X110000Y160000D02*
D03*
Y150000D02*
D03*
Y140000D02*
D03*
Y130000D02*
D03*
X100000Y70000D02*
D03*
X90000Y160000D02*
D03*
Y150000D02*
D03*
Y140000D02*
D03*
Y80000D02*
D03*
Y70000D02*
D03*
Y50000D02*
D03*
Y40000D02*
D03*
X80000Y170000D02*
D03*
Y160000D02*
D03*
Y150000D02*
D03*
Y60000D02*
D03*
X70000Y170000D02*
D03*
Y160000D02*
D03*
Y150000D02*
D03*
Y140000D02*
D03*
Y130000D02*
D03*
Y120000D02*
D03*
Y110000D02*
D03*
Y100000D02*
D03*
Y70000D02*
D03*
Y60000D02*
D03*
X60000Y170000D02*
D03*
Y160000D02*
D03*
Y150000D02*
D03*
Y140000D02*
D03*
Y130000D02*
D03*
Y120000D02*
D03*
Y110000D02*
D03*
Y100000D02*
D03*
X50000Y170000D02*
D03*
Y160000D02*
D03*
Y150000D02*
D03*
Y140000D02*
D03*
Y130000D02*
D03*
Y120000D02*
D03*
Y110000D02*
D03*
Y100000D02*
D03*
Y20000D02*
D03*
Y10000D02*
D03*
X40000Y170000D02*
D03*
Y160000D02*
D03*
Y150000D02*
D03*
Y140000D02*
D03*
Y130000D02*
D03*
Y120000D02*
D03*
Y110000D02*
D03*
Y100000D02*
D03*
Y20000D02*
D03*
Y10000D02*
D03*
X30000Y160000D02*
D03*
Y150000D02*
D03*
Y140000D02*
D03*
Y130000D02*
D03*
Y120000D02*
D03*
Y110000D02*
D03*
Y100000D02*
D03*
Y90000D02*
D03*
Y30000D02*
D03*
Y20000D02*
D03*
X20000Y160000D02*
D03*
Y150000D02*
D03*
Y140000D02*
D03*
Y130000D02*
D03*
Y120000D02*
D03*
Y110000D02*
D03*
Y100000D02*
D03*
Y90000D02*
D03*
Y80000D02*
D03*
Y70000D02*
D03*
Y60000D02*
D03*
Y50000D02*
D03*
Y40000D02*
D03*
Y30000D02*
D03*
Y20000D02*
D03*
X10000Y160000D02*
D03*
Y150000D02*
D03*
Y140000D02*
D03*
Y130000D02*
D03*
Y120000D02*
D03*
Y110000D02*
D03*
Y100000D02*
D03*
Y90000D02*
D03*
Y80000D02*
D03*
Y70000D02*
D03*
Y60000D02*
D03*
Y50000D02*
D03*
Y40000D02*
D03*
Y30000D02*
D03*
X100611Y100033D02*
D03*
X105019Y86459D02*
D03*
Y84259D02*
D03*
X100000Y79800D02*
D03*
Y82000D02*
D03*
X99500Y89000D02*
D03*
X100304Y84420D02*
D03*
Y86620D02*
D03*
X110500Y84500D02*
D03*
X95899Y166711D02*
D03*
Y164511D02*
D03*
Y162311D02*
D03*
Y160111D02*
D03*
Y157911D02*
D03*
Y155711D02*
D03*
Y153511D02*
D03*
Y151311D02*
D03*
Y149111D02*
D03*
Y146911D02*
D03*
Y144711D02*
D03*
Y142511D02*
D03*
X95899Y140300D02*
D03*
X95931Y135916D02*
D03*
X105164Y127618D02*
D03*
Y129818D02*
D03*
X105162Y132074D02*
D03*
X105058Y135313D02*
D03*
X105027Y138505D02*
D03*
X105101Y140713D02*
D03*
Y142913D02*
D03*
Y145113D02*
D03*
Y147313D02*
D03*
Y149513D02*
D03*
Y151713D02*
D03*
Y153913D02*
D03*
Y156113D02*
D03*
Y158313D02*
D03*
Y160513D02*
D03*
Y162713D02*
D03*
Y164913D02*
D03*
X105100Y167145D02*
D03*
X98143Y161211D02*
D03*
Y159011D02*
D03*
Y156811D02*
D03*
Y154611D02*
D03*
Y152411D02*
D03*
Y150211D02*
D03*
Y148011D02*
D03*
Y145811D02*
D03*
Y143611D02*
D03*
Y141411D02*
D03*
X97500Y138000D02*
D03*
X98206Y126055D02*
D03*
X102920Y126518D02*
D03*
Y128718D02*
D03*
Y130918D02*
D03*
X103500Y133500D02*
D03*
Y137000D02*
D03*
X102857Y141813D02*
D03*
Y144013D02*
D03*
Y146213D02*
D03*
Y148413D02*
D03*
Y150613D02*
D03*
Y152813D02*
D03*
Y155013D02*
D03*
Y157213D02*
D03*
Y159413D02*
D03*
Y161613D02*
D03*
X147000Y34697D02*
D03*
X123500Y33500D02*
D03*
X132866Y42921D02*
D03*
X127366Y62421D02*
D03*
X139366D02*
D03*
X132866Y48921D02*
D03*
X125197Y123000D02*
D03*
Y126500D02*
D03*
X130000Y121197D02*
D03*
X56000Y5000D02*
D03*
Y8500D02*
D03*
Y20500D02*
D03*
Y17000D02*
D03*
X115000Y56500D02*
D03*
X77500Y113500D02*
D03*
Y110000D02*
D03*
X76500Y104500D02*
D03*
Y100500D02*
D03*
X101500Y109000D02*
D03*
Y113500D02*
D03*
Y118000D02*
D03*
X106000Y113500D02*
D03*
X97000D02*
D03*
Y109000D02*
D03*
X106000D02*
D03*
Y118000D02*
D03*
X97000D02*
D03*
X144000Y115500D02*
D03*
X88500Y20500D02*
D03*
X112000Y166000D02*
D03*
X89500D02*
D03*
X111000Y20500D02*
D03*
X110000Y69000D02*
D03*
X106500D02*
D03*
X103000D02*
D03*
Y73000D02*
D03*
X106500D02*
D03*
X110000D02*
D03*
X81000Y41000D02*
D03*
M02*
