G04*
G04 #@! TF.GenerationSoftware,Altium Limited,Altium Designer,23.8.1 (32)*
G04*
G04 Layer_Color=8388736*
%FSLAX25Y25*%
%MOIN*%
G70*
G04*
G04 #@! TF.SameCoordinates,C2238681-CFA7-4295-91EC-4EAF016C526F*
G04*
G04*
G04 #@! TF.FilePolarity,Negative*
G04*
G01*
G75*
%ADD20R,0.09488X0.07008*%
%ADD21C,0.01181*%
%ADD22R,0.04331X0.10472*%
%ADD23R,0.01772X0.01772*%
%ADD24R,0.01772X0.01378*%
%ADD25R,0.03150X0.02953*%
%ADD26R,0.01181X0.01181*%
%ADD27R,0.05315X0.16535*%
%ADD28R,0.05000X0.14173*%
%ADD29R,0.29528X0.07087*%
%ADD30R,0.00942X0.03567*%
G04:AMPARAMS|DCode=31|XSize=35.67mil|YSize=9.42mil|CornerRadius=4.71mil|HoleSize=0mil|Usage=FLASHONLY|Rotation=90.000|XOffset=0mil|YOffset=0mil|HoleType=Round|Shape=RoundedRectangle|*
%AMROUNDEDRECTD31*
21,1,0.03567,0.00000,0,0,90.0*
21,1,0.02625,0.00942,0,0,90.0*
1,1,0.00942,0.00000,0.01313*
1,1,0.00942,0.00000,-0.01313*
1,1,0.00942,0.00000,-0.01313*
1,1,0.00942,0.00000,0.01313*
%
%ADD31ROUNDEDRECTD31*%
G04:AMPARAMS|DCode=32|XSize=9.42mil|YSize=35.67mil|CornerRadius=4.71mil|HoleSize=0mil|Usage=FLASHONLY|Rotation=90.000|XOffset=0mil|YOffset=0mil|HoleType=Round|Shape=RoundedRectangle|*
%AMROUNDEDRECTD32*
21,1,0.00942,0.02625,0,0,90.0*
21,1,0.00000,0.03567,0,0,90.0*
1,1,0.00942,0.01313,0.00000*
1,1,0.00942,0.01313,0.00000*
1,1,0.00942,-0.01313,0.00000*
1,1,0.00942,-0.01313,0.00000*
%
%ADD32ROUNDEDRECTD32*%
G04:AMPARAMS|DCode=33|XSize=49.38mil|YSize=20.95mil|CornerRadius=10.48mil|HoleSize=0mil|Usage=FLASHONLY|Rotation=270.000|XOffset=0mil|YOffset=0mil|HoleType=Round|Shape=RoundedRectangle|*
%AMROUNDEDRECTD33*
21,1,0.04938,0.00000,0,0,270.0*
21,1,0.02843,0.02095,0,0,270.0*
1,1,0.02095,0.00000,-0.01422*
1,1,0.02095,0.00000,0.01422*
1,1,0.02095,0.00000,0.01422*
1,1,0.02095,0.00000,-0.01422*
%
%ADD33ROUNDEDRECTD33*%
%ADD34R,0.02095X0.04938*%
%ADD35R,0.03963X0.03773*%
%ADD36R,0.06102X0.07480*%
%ADD37R,0.02559X0.04134*%
%ADD38R,0.02362X0.02165*%
%ADD39R,0.02362X0.02362*%
%ADD40R,0.02362X0.02362*%
%ADD41R,0.02953X0.03150*%
%ADD42R,0.02165X0.02362*%
%ADD44C,0.00776*%
%ADD45R,0.11051X0.44970*%
%ADD46R,0.02165X0.05906*%
%ADD47R,0.14961X0.14961*%
%ADD48C,0.08000*%
%ADD49C,0.06181*%
%ADD50R,0.06181X0.06181*%
%ADD51C,0.15000*%
%ADD52C,0.01800*%
G36*
X109073Y83500D02*
X96357D01*
Y98945D01*
X98344Y100932D01*
X109073D01*
Y83500D01*
D02*
G37*
G36*
X136311Y51433D02*
X138279D01*
Y50252D01*
X136311Y50247D01*
X136157Y50267D01*
X136013Y50327D01*
X135890Y50421D01*
X135795Y50545D01*
X135736Y50688D01*
X135715Y50842D01*
X135736Y50997D01*
X135795Y51140D01*
X135890Y51264D01*
X136013Y51358D01*
X136157Y51418D01*
X136311Y51438D01*
Y51433D01*
D02*
G37*
G36*
X129575Y51418D02*
X129719Y51358D01*
X129842Y51264D01*
X129937Y51140D01*
X129997Y50997D01*
X130017Y50842D01*
X129997Y50688D01*
X129937Y50545D01*
X129842Y50421D01*
X129719Y50327D01*
X129575Y50267D01*
X129421Y50247D01*
Y50252D01*
X127453D01*
Y51433D01*
X129421Y51438D01*
X129575Y51418D01*
D02*
G37*
G36*
X136311Y49465D02*
X138279D01*
Y48283D01*
X136311Y48278D01*
X136157Y48299D01*
X136013Y48358D01*
X135890Y48453D01*
X135795Y48576D01*
X135736Y48720D01*
X135715Y48874D01*
X135736Y49028D01*
X135795Y49172D01*
X135890Y49295D01*
X136013Y49390D01*
X136157Y49449D01*
X136311Y49470D01*
Y49465D01*
D02*
G37*
G36*
X129575Y49449D02*
X129719Y49390D01*
X129842Y49295D01*
X129937Y49172D01*
X129997Y49028D01*
X130017Y48874D01*
X129997Y48720D01*
X129937Y48576D01*
X129842Y48453D01*
X129719Y48358D01*
X129575Y48299D01*
X129421Y48278D01*
Y48283D01*
X127453D01*
Y49465D01*
X129421Y49470D01*
X129575Y49449D01*
D02*
G37*
G36*
X136311Y47496D02*
X138279D01*
Y46315D01*
X136311Y46310D01*
X136157Y46330D01*
X136013Y46390D01*
X135890Y46484D01*
X135795Y46608D01*
X135736Y46751D01*
X135715Y46905D01*
X135736Y47060D01*
X135795Y47203D01*
X135890Y47327D01*
X136013Y47421D01*
X136157Y47481D01*
X136311Y47501D01*
Y47496D01*
D02*
G37*
G36*
X129575Y47481D02*
X129719Y47421D01*
X129842Y47327D01*
X129937Y47203D01*
X129997Y47060D01*
X130017Y46905D01*
X129997Y46751D01*
X129937Y46608D01*
X129842Y46484D01*
X129719Y46390D01*
X129575Y46330D01*
X129421Y46310D01*
Y46315D01*
X127453D01*
Y47496D01*
X129421Y47501D01*
X129575Y47481D01*
D02*
G37*
G36*
X136311Y45528D02*
X138279D01*
Y44346D01*
X136311Y44341D01*
X136157Y44362D01*
X136013Y44421D01*
X135890Y44516D01*
X135795Y44639D01*
X135736Y44783D01*
X135715Y44937D01*
X135736Y45091D01*
X135795Y45235D01*
X135890Y45358D01*
X136013Y45453D01*
X136157Y45512D01*
X136311Y45533D01*
Y45528D01*
D02*
G37*
G36*
X129575Y45512D02*
X129719Y45453D01*
X129842Y45358D01*
X129937Y45235D01*
X129997Y45091D01*
X130017Y44937D01*
X129997Y44783D01*
X129937Y44639D01*
X129842Y44516D01*
X129719Y44421D01*
X129575Y44362D01*
X129421Y44341D01*
Y44346D01*
X127453D01*
Y45528D01*
X129421Y45533D01*
X129575Y45512D01*
D02*
G37*
G36*
X136311Y43559D02*
X138279D01*
Y42378D01*
X136311Y42373D01*
X136157Y42393D01*
X136013Y42453D01*
X135890Y42547D01*
X135795Y42671D01*
X135736Y42814D01*
X135715Y42968D01*
X135736Y43123D01*
X135795Y43266D01*
X135890Y43390D01*
X136013Y43484D01*
X136157Y43544D01*
X136311Y43564D01*
Y43559D01*
D02*
G37*
G36*
X129575Y43544D02*
X129719Y43484D01*
X129842Y43390D01*
X129937Y43266D01*
X129997Y43123D01*
X130017Y42968D01*
X129997Y42814D01*
X129937Y42671D01*
X129842Y42547D01*
X129719Y42453D01*
X129575Y42393D01*
X129421Y42373D01*
Y42378D01*
X127453D01*
Y43559D01*
X129421Y43564D01*
X129575Y43544D01*
D02*
G37*
G36*
X136311Y41591D02*
X138279D01*
Y40409D01*
X136311Y40404D01*
X136157Y40425D01*
X136013Y40484D01*
X135890Y40579D01*
X135795Y40702D01*
X135736Y40846D01*
X135715Y41000D01*
X135736Y41154D01*
X135795Y41298D01*
X135890Y41421D01*
X136013Y41516D01*
X136157Y41575D01*
X136311Y41596D01*
Y41591D01*
D02*
G37*
G36*
X129575Y41575D02*
X129719Y41516D01*
X129842Y41421D01*
X129937Y41298D01*
X129997Y41154D01*
X130017Y41000D01*
X129997Y40846D01*
X129937Y40702D01*
X129842Y40579D01*
X129719Y40484D01*
X129575Y40425D01*
X129421Y40404D01*
Y40409D01*
X127453D01*
Y41591D01*
X129421Y41596D01*
X129575Y41575D01*
D02*
G37*
D20*
X106500Y71000D02*
D03*
D21*
X137000Y42968D02*
D03*
Y44937D02*
D03*
Y46905D02*
D03*
Y48874D02*
D03*
Y50842D02*
D03*
X128732D02*
D03*
Y48874D02*
D03*
Y46905D02*
D03*
Y44937D02*
D03*
Y42968D02*
D03*
Y41000D02*
D03*
X137000D02*
D03*
D22*
X132866Y45921D02*
D03*
D23*
X60425Y27500D02*
D03*
X63575D02*
D03*
D24*
X63279Y31000D02*
D03*
X60720D02*
D03*
D25*
X138500Y117342D02*
D03*
Y122658D02*
D03*
D26*
X98138Y130000D02*
D03*
X100500D02*
D03*
D27*
X88878Y8508D02*
D03*
X111122D02*
D03*
X89378Y177492D02*
D03*
X111622D02*
D03*
D28*
X100000Y7721D02*
D03*
X100500Y178279D02*
D03*
D29*
X48000Y62024D02*
D03*
Y39976D02*
D03*
D30*
X94657Y103500D02*
D03*
D31*
X96626D02*
D03*
X98594D02*
D03*
X100563D02*
D03*
X102532D02*
D03*
X104500D02*
D03*
X106468D02*
D03*
X108437D02*
D03*
Y123209D02*
D03*
X106468D02*
D03*
X104500D02*
D03*
X102532D02*
D03*
X100563D02*
D03*
X98594D02*
D03*
X96626D02*
D03*
X94657D02*
D03*
D32*
X111402Y106465D02*
D03*
Y108433D02*
D03*
Y110402D02*
D03*
Y112370D02*
D03*
Y114339D02*
D03*
Y116307D02*
D03*
Y118276D02*
D03*
Y120244D02*
D03*
X91693D02*
D03*
Y118276D02*
D03*
Y116307D02*
D03*
Y114339D02*
D03*
Y112370D02*
D03*
Y110402D02*
D03*
Y108433D02*
D03*
Y106465D02*
D03*
D33*
X77240Y34365D02*
D03*
X73500D02*
D03*
X69760D02*
D03*
Y42635D02*
D03*
X73500D02*
D03*
D34*
X77240D02*
D03*
D35*
X79283Y54181D02*
D03*
X73568D02*
D03*
D36*
X62693Y19000D02*
D03*
X74307D02*
D03*
X62693Y7000D02*
D03*
X74307D02*
D03*
D37*
X34846Y81500D02*
D03*
X28153D02*
D03*
X34846Y73000D02*
D03*
X28153D02*
D03*
D38*
X144000Y118032D02*
D03*
Y121968D02*
D03*
X143500Y37031D02*
D03*
Y40968D02*
D03*
X147000D02*
D03*
Y37031D02*
D03*
X127366Y59890D02*
D03*
Y55953D02*
D03*
D39*
X122665Y123000D02*
D03*
X118335D02*
D03*
X79835Y104500D02*
D03*
X84165D02*
D03*
X79835Y100500D02*
D03*
X84165D02*
D03*
X107835Y56500D02*
D03*
X112165D02*
D03*
X80835Y110000D02*
D03*
X85165D02*
D03*
X80835Y113500D02*
D03*
X85165D02*
D03*
X122665Y126500D02*
D03*
X118335D02*
D03*
D40*
X130000Y118665D02*
D03*
Y114335D02*
D03*
X124500Y118665D02*
D03*
Y114335D02*
D03*
X118500Y118665D02*
D03*
Y114335D02*
D03*
X100500Y138165D02*
D03*
Y133835D02*
D03*
X102661Y89335D02*
D03*
Y93665D02*
D03*
X143000Y51835D02*
D03*
Y56165D02*
D03*
X144000Y44000D02*
D03*
Y48331D02*
D03*
X123500Y35835D02*
D03*
Y40165D02*
D03*
Y50165D02*
D03*
Y45835D02*
D03*
X139000Y55835D02*
D03*
Y60165D02*
D03*
D41*
X76842Y80500D02*
D03*
X82157D02*
D03*
D42*
X128532Y37000D02*
D03*
X132468D02*
D03*
X139469D02*
D03*
X135531D02*
D03*
X78031Y76000D02*
D03*
X81968D02*
D03*
X134335Y55921D02*
D03*
X130398D02*
D03*
D44*
X102661Y79661D02*
Y89173D01*
X102532Y93697D02*
Y103500D01*
X100563Y123209D02*
Y133772D01*
X100500Y138165D02*
Y171500D01*
D45*
X100525Y148015D02*
D03*
D46*
X110339Y79661D02*
D03*
X105220D02*
D03*
X102661D02*
D03*
X107780D02*
D03*
Y62339D02*
D03*
X110339D02*
D03*
X102661D02*
D03*
X105220D02*
D03*
D47*
X101547Y113355D02*
D03*
D48*
X170000Y176000D02*
D03*
X30000D02*
D03*
X30000Y10000D02*
D03*
D49*
X87000Y135500D02*
D03*
X88500Y65000D02*
D03*
X124500Y106000D02*
D03*
X88500Y91500D02*
D03*
D50*
X77000Y135500D02*
D03*
X78500Y65000D02*
D03*
X134500Y106000D02*
D03*
X78500Y91500D02*
D03*
D51*
X187500Y173500D02*
D03*
Y12500D02*
D03*
X12500Y173500D02*
D03*
X12500Y12500D02*
D03*
D52*
X132866Y42921D02*
D03*
Y48921D02*
D03*
X101500Y109000D02*
D03*
Y113500D02*
D03*
Y118000D02*
D03*
X106000Y113500D02*
D03*
X97000D02*
D03*
Y109000D02*
D03*
X106000D02*
D03*
Y118000D02*
D03*
X97000D02*
D03*
X110000Y69000D02*
D03*
X106500D02*
D03*
X103000D02*
D03*
Y73000D02*
D03*
X106500D02*
D03*
X110000D02*
D03*
M02*
