G04*
G04 #@! TF.GenerationSoftware,Altium Limited,Altium Designer,23.8.1 (32)*
G04*
G04 Layer_Color=65535*
%FSLAX25Y25*%
%MOIN*%
G70*
G04*
G04 #@! TF.SameCoordinates,C2238681-CFA7-4295-91EC-4EAF016C526F*
G04*
G04*
G04 #@! TF.FilePolarity,Positive*
G04*
G01*
G75*
%ADD12C,0.00787*%
D12*
X85827Y240D02*
X114173D01*
X87244Y-37496D02*
Y496D01*
Y-37496D02*
X112756D01*
Y496D01*
X87244D02*
X112756D01*
X31858Y34858D02*
X64142D01*
Y67142D01*
X31858D02*
X64142D01*
X31858Y34858D02*
Y67142D01*
X71016Y130303D02*
Y140697D01*
Y130303D02*
X92984D01*
Y140697D01*
X71016D02*
X92984D01*
X91705Y103512D02*
Y123197D01*
X111390D01*
Y103512D02*
Y123197D01*
X91705Y103512D02*
X111390D01*
X67791Y41650D02*
X79209D01*
X67791Y35350D02*
Y41650D01*
Y35350D02*
X79209D01*
Y41650D01*
X73276Y52606D02*
Y55756D01*
Y52606D02*
X79576D01*
Y55756D01*
X73276D02*
X79576D01*
X87744Y185504D02*
X113256D01*
X87744D02*
Y223496D01*
X113256D01*
Y185504D02*
Y223496D01*
X86327Y185760D02*
X114673D01*
X72516Y70197D02*
X94484D01*
Y59803D02*
Y70197D01*
X72516Y59803D02*
X94484D01*
X72516D02*
Y70197D01*
X140484Y100803D02*
Y111197D01*
X118516D02*
X140484D01*
X118516Y100803D02*
Y111197D01*
Y100803D02*
X140484D01*
X72516Y86303D02*
Y96697D01*
Y86303D02*
X94484D01*
Y96697D01*
X72516D02*
X94484D01*
M02*
