G04*
G04 #@! TF.GenerationSoftware,Altium Limited,Altium Designer,23.8.1 (32)*
G04*
G04 Layer_Color=128*
%FSLAX25Y25*%
%MOIN*%
G70*
G04*
G04 #@! TF.SameCoordinates,C2238681-CFA7-4295-91EC-4EAF016C526F*
G04*
G04*
G04 #@! TF.FilePolarity,Positive*
G04*
G01*
G75*
%ADD62C,0.00200*%
D62*
X84992Y135500D02*
X89008D01*
X87000Y133492D02*
Y137508D01*
X74992Y135500D02*
X79008D01*
X77000Y133492D02*
Y137508D01*
X76492Y65000D02*
X80508D01*
X78500Y62992D02*
Y67008D01*
X86492Y65000D02*
X90508D01*
X88500Y62992D02*
Y67008D01*
X122492Y106000D02*
X126508D01*
X124500Y103992D02*
Y108008D01*
X132492Y106000D02*
X136508D01*
X134500Y103992D02*
Y108008D01*
X86492Y91500D02*
X90508D01*
X88500Y89492D02*
Y93508D01*
X76492Y91500D02*
X80508D01*
X78500Y89492D02*
Y93508D01*
X181250Y173500D02*
X193750D01*
X187500Y167250D02*
Y179750D01*
X181250Y12500D02*
X193750D01*
X187500Y6250D02*
Y18750D01*
X6250Y173500D02*
X18750D01*
X12500Y167250D02*
Y179750D01*
X6250Y12500D02*
X18750D01*
X12500Y6250D02*
Y18750D01*
X105323Y88839D02*
X106323D01*
X105823Y88339D02*
Y89339D01*
X104212Y99872D02*
X105212D01*
X104712Y99372D02*
Y100372D01*
X106566Y99380D02*
X107566D01*
X107066Y98880D02*
Y99880D01*
X106566Y97180D02*
X107566D01*
X107066Y96680D02*
Y97680D01*
X104519Y97718D02*
X105519D01*
X105019Y97218D02*
Y98218D01*
X105323Y91039D02*
X106323D01*
X105823Y90539D02*
Y91539D01*
X105323Y93239D02*
X106323D01*
X105823Y92739D02*
Y93739D01*
X105323Y95439D02*
X106323D01*
X105823Y94939D02*
Y95939D01*
X107323Y89839D02*
X108323D01*
X107823Y89339D02*
Y90339D01*
X107323Y92039D02*
X108323D01*
X107823Y91539D02*
Y92539D01*
X107323Y94239D02*
X108323D01*
X107823Y93739D02*
Y94739D01*
X106566Y86997D02*
X107566D01*
X107066Y86497D02*
Y87498D01*
X106566Y84798D02*
X107566D01*
X107066Y84298D02*
Y85298D01*
X97000Y94400D02*
X98000D01*
X97500Y93900D02*
Y94900D01*
X97000Y92200D02*
X98000D01*
X97500Y91700D02*
Y92700D01*
X97000Y90000D02*
X98000D01*
X97500Y89500D02*
Y90500D01*
X99000Y95600D02*
X100000D01*
X99500Y95100D02*
Y96100D01*
X99000Y93400D02*
X100000D01*
X99500Y92900D02*
Y93900D01*
X99000Y91200D02*
X100000D01*
X99500Y90700D02*
Y91700D01*
X99804Y97880D02*
X100804D01*
X100304Y97380D02*
Y98380D01*
X97757Y97341D02*
X98757D01*
X98257Y96841D02*
Y97841D01*
X97757Y99541D02*
X98757D01*
X98257Y99041D02*
Y100041D01*
X97757Y84959D02*
X98757D01*
X98257Y84459D02*
Y85459D01*
X97757Y87159D02*
X98757D01*
X98257Y86659D02*
Y87659D01*
X104600Y169344D02*
X105600D01*
X105100Y168844D02*
Y169844D01*
X95399Y168911D02*
X96399D01*
X95899Y168411D02*
Y169411D01*
X102357Y168213D02*
X103357D01*
X102857Y167713D02*
Y168713D01*
X97643Y167811D02*
X98643D01*
X98143Y167311D02*
Y168311D01*
X97643Y165611D02*
X98643D01*
X98143Y165111D02*
Y166111D01*
X97643Y163411D02*
X98643D01*
X98143Y162911D02*
Y163911D01*
X102357Y166013D02*
X103357D01*
X102857Y165513D02*
Y166513D01*
X102357Y163813D02*
X103357D01*
X102857Y163313D02*
Y164313D01*
X189500Y150000D02*
X190500D01*
X190000Y149500D02*
Y150500D01*
X189500Y140000D02*
X190500D01*
X190000Y139500D02*
Y140500D01*
X189500Y130000D02*
X190500D01*
X190000Y129500D02*
Y130500D01*
X179500Y150000D02*
X180500D01*
X180000Y149500D02*
Y150500D01*
X179500Y140000D02*
X180500D01*
X180000Y139500D02*
Y140500D01*
X179500Y130000D02*
X180500D01*
X180000Y129500D02*
Y130500D01*
X169500Y150000D02*
X170500D01*
X170000Y149500D02*
Y150500D01*
X169500Y140000D02*
X170500D01*
X170000Y139500D02*
Y140500D01*
X169500Y130000D02*
X170500D01*
X170000Y129500D02*
Y130500D01*
X159500Y150000D02*
X160500D01*
X160000Y149500D02*
Y150500D01*
X159500Y140000D02*
X160500D01*
X160000Y139500D02*
Y140500D01*
X159500Y130000D02*
X160500D01*
X160000Y129500D02*
Y130500D01*
X189500Y160000D02*
X190500D01*
X190000Y159500D02*
Y160500D01*
X189500Y120000D02*
X190500D01*
X190000Y119500D02*
Y120500D01*
X189500Y110000D02*
X190500D01*
X190000Y109500D02*
Y110500D01*
X189500Y100000D02*
X190500D01*
X190000Y99500D02*
Y100500D01*
X189500Y90000D02*
X190500D01*
X190000Y89500D02*
Y90500D01*
X189500Y80000D02*
X190500D01*
X190000Y79500D02*
Y80500D01*
X189500Y70000D02*
X190500D01*
X190000Y69500D02*
Y70500D01*
X189500Y60000D02*
X190500D01*
X190000Y59500D02*
Y60500D01*
X189500Y50000D02*
X190500D01*
X190000Y49500D02*
Y50500D01*
X189500Y40000D02*
X190500D01*
X190000Y39500D02*
Y40500D01*
X189500Y30000D02*
X190500D01*
X190000Y29500D02*
Y30500D01*
X179500Y160000D02*
X180500D01*
X180000Y159500D02*
Y160500D01*
X179500Y120000D02*
X180500D01*
X180000Y119500D02*
Y120500D01*
X179500Y110000D02*
X180500D01*
X180000Y109500D02*
Y110500D01*
X179500Y100000D02*
X180500D01*
X180000Y99500D02*
Y100500D01*
X179500Y90000D02*
X180500D01*
X180000Y89500D02*
Y90500D01*
X179500Y80000D02*
X180500D01*
X180000Y79500D02*
Y80500D01*
X179500Y70000D02*
X180500D01*
X180000Y69500D02*
Y70500D01*
X179500Y60000D02*
X180500D01*
X180000Y59500D02*
Y60500D01*
X179500Y50000D02*
X180500D01*
X180000Y49500D02*
Y50500D01*
X179500Y40000D02*
X180500D01*
X180000Y39500D02*
Y40500D01*
X179500Y30000D02*
X180500D01*
X180000Y29500D02*
Y30500D01*
X179500Y20000D02*
X180500D01*
X180000Y19500D02*
Y20500D01*
X169500Y160000D02*
X170500D01*
X170000Y159500D02*
Y160500D01*
X169500Y120000D02*
X170500D01*
X170000Y119500D02*
Y120500D01*
X169500Y110000D02*
X170500D01*
X170000Y109500D02*
Y110500D01*
X169500Y100000D02*
X170500D01*
X170000Y99500D02*
Y100500D01*
X169500Y90000D02*
X170500D01*
X170000Y89500D02*
Y90500D01*
X169500Y80000D02*
X170500D01*
X170000Y79500D02*
Y80500D01*
X169500Y70000D02*
X170500D01*
X170000Y69500D02*
Y70500D01*
X169500Y60000D02*
X170500D01*
X170000Y59500D02*
Y60500D01*
X169500Y50000D02*
X170500D01*
X170000Y49500D02*
Y50500D01*
X169500Y40000D02*
X170500D01*
X170000Y39500D02*
Y40500D01*
X169500Y30000D02*
X170500D01*
X170000Y29500D02*
Y30500D01*
X169500Y20000D02*
X170500D01*
X170000Y19500D02*
Y20500D01*
X169500Y10000D02*
X170500D01*
X170000Y9500D02*
Y10500D01*
X159500Y170000D02*
X160500D01*
X160000Y169500D02*
Y170500D01*
X159500Y160000D02*
X160500D01*
X160000Y159500D02*
Y160500D01*
X159500Y120000D02*
X160500D01*
X160000Y119500D02*
Y120500D01*
X159500Y110000D02*
X160500D01*
X160000Y109500D02*
Y110500D01*
X159500Y100000D02*
X160500D01*
X160000Y99500D02*
Y100500D01*
X159500Y90000D02*
X160500D01*
X160000Y89500D02*
Y90500D01*
X159500Y80000D02*
X160500D01*
X160000Y79500D02*
Y80500D01*
X159500Y70000D02*
X160500D01*
X160000Y69500D02*
Y70500D01*
X159500Y60000D02*
X160500D01*
X160000Y59500D02*
Y60500D01*
X159500Y50000D02*
X160500D01*
X160000Y49500D02*
Y50500D01*
X159500Y40000D02*
X160500D01*
X160000Y39500D02*
Y40500D01*
X159500Y30000D02*
X160500D01*
X160000Y29500D02*
Y30500D01*
X159500Y20000D02*
X160500D01*
X160000Y19500D02*
Y20500D01*
X159500Y10000D02*
X160500D01*
X160000Y9500D02*
Y10500D01*
X149500Y170000D02*
X150500D01*
X150000Y169500D02*
Y170500D01*
X149500Y160000D02*
X150500D01*
X150000Y159500D02*
Y160500D01*
X149500Y150000D02*
X150500D01*
X150000Y149500D02*
Y150500D01*
X149500Y140000D02*
X150500D01*
X150000Y139500D02*
Y140500D01*
X149500Y130000D02*
X150500D01*
X150000Y129500D02*
Y130500D01*
X149500Y120000D02*
X150500D01*
X150000Y119500D02*
Y120500D01*
X149500Y110000D02*
X150500D01*
X150000Y109500D02*
Y110500D01*
X149500Y100000D02*
X150500D01*
X150000Y99500D02*
Y100500D01*
X149500Y90000D02*
X150500D01*
X150000Y89500D02*
Y90500D01*
X149500Y80000D02*
X150500D01*
X150000Y79500D02*
Y80500D01*
X149500Y70000D02*
X150500D01*
X150000Y69500D02*
Y70500D01*
X149500Y60000D02*
X150500D01*
X150000Y59500D02*
Y60500D01*
X149500Y50000D02*
X150500D01*
X150000Y49500D02*
Y50500D01*
X149500Y30000D02*
X150500D01*
X150000Y29500D02*
Y30500D01*
X149500Y20000D02*
X150500D01*
X150000Y19500D02*
Y20500D01*
X149500Y10000D02*
X150500D01*
X150000Y9500D02*
Y10500D01*
X139500Y170000D02*
X140500D01*
X140000Y169500D02*
Y170500D01*
X139500Y160000D02*
X140500D01*
X140000Y159500D02*
Y160500D01*
X139500Y150000D02*
X140500D01*
X140000Y149500D02*
Y150500D01*
X139500Y140000D02*
X140500D01*
X140000Y139500D02*
Y140500D01*
X139500Y130000D02*
X140500D01*
X140000Y129500D02*
Y130500D01*
X139500Y100000D02*
X140500D01*
X140000Y99500D02*
Y100500D01*
X139500Y20000D02*
X140500D01*
X140000Y19500D02*
Y20500D01*
X139500Y10000D02*
X140500D01*
X140000Y9500D02*
Y10500D01*
X129500Y170000D02*
X130500D01*
X130000Y169500D02*
Y170500D01*
X129500Y160000D02*
X130500D01*
X130000Y159500D02*
Y160500D01*
X129500Y150000D02*
X130500D01*
X130000Y149500D02*
Y150500D01*
X129500Y140000D02*
X130500D01*
X130000Y139500D02*
Y140500D01*
X129500Y130000D02*
X130500D01*
X130000Y129500D02*
Y130500D01*
X129500Y100000D02*
X130500D01*
X130000Y99500D02*
Y100500D01*
X129500Y20000D02*
X130500D01*
X130000Y19500D02*
Y20500D01*
X129500Y10000D02*
X130500D01*
X130000Y9500D02*
Y10500D01*
X119500Y170000D02*
X120500D01*
X120000Y169500D02*
Y170500D01*
X119500Y160000D02*
X120500D01*
X120000Y159500D02*
Y160500D01*
X119500Y150000D02*
X120500D01*
X120000Y149500D02*
Y150500D01*
X119500Y140000D02*
X120500D01*
X120000Y139500D02*
Y140500D01*
X119500Y130000D02*
X120500D01*
X120000Y129500D02*
Y130500D01*
X119500Y120000D02*
X120500D01*
X120000Y119500D02*
Y120500D01*
X119500Y110000D02*
X120500D01*
X120000Y109500D02*
Y110500D01*
X119500Y20000D02*
X120500D01*
X120000Y19500D02*
Y20500D01*
X119500Y10000D02*
X120500D01*
X120000Y9500D02*
Y10500D01*
X109500Y160000D02*
X110500D01*
X110000Y159500D02*
Y160500D01*
X109500Y150000D02*
X110500D01*
X110000Y149500D02*
Y150500D01*
X109500Y140000D02*
X110500D01*
X110000Y139500D02*
Y140500D01*
X109500Y130000D02*
X110500D01*
X110000Y129500D02*
Y130500D01*
X99500Y70000D02*
X100500D01*
X100000Y69500D02*
Y70500D01*
X89500Y160000D02*
X90500D01*
X90000Y159500D02*
Y160500D01*
X89500Y150000D02*
X90500D01*
X90000Y149500D02*
Y150500D01*
X89500Y140000D02*
X90500D01*
X90000Y139500D02*
Y140500D01*
X89500Y80000D02*
X90500D01*
X90000Y79500D02*
Y80500D01*
X89500Y70000D02*
X90500D01*
X90000Y69500D02*
Y70500D01*
X89500Y50000D02*
X90500D01*
X90000Y49500D02*
Y50500D01*
X89500Y40000D02*
X90500D01*
X90000Y39500D02*
Y40500D01*
X79500Y170000D02*
X80500D01*
X80000Y169500D02*
Y170500D01*
X79500Y160000D02*
X80500D01*
X80000Y159500D02*
Y160500D01*
X79500Y150000D02*
X80500D01*
X80000Y149500D02*
Y150500D01*
X79500Y60000D02*
X80500D01*
X80000Y59500D02*
Y60500D01*
X69500Y170000D02*
X70500D01*
X70000Y169500D02*
Y170500D01*
X69500Y160000D02*
X70500D01*
X70000Y159500D02*
Y160500D01*
X69500Y150000D02*
X70500D01*
X70000Y149500D02*
Y150500D01*
X69500Y140000D02*
X70500D01*
X70000Y139500D02*
Y140500D01*
X69500Y130000D02*
X70500D01*
X70000Y129500D02*
Y130500D01*
X69500Y120000D02*
X70500D01*
X70000Y119500D02*
Y120500D01*
X69500Y110000D02*
X70500D01*
X70000Y109500D02*
Y110500D01*
X69500Y100000D02*
X70500D01*
X70000Y99500D02*
Y100500D01*
X69500Y70000D02*
X70500D01*
X70000Y69500D02*
Y70500D01*
X69500Y60000D02*
X70500D01*
X70000Y59500D02*
Y60500D01*
X59500Y170000D02*
X60500D01*
X60000Y169500D02*
Y170500D01*
X59500Y160000D02*
X60500D01*
X60000Y159500D02*
Y160500D01*
X59500Y150000D02*
X60500D01*
X60000Y149500D02*
Y150500D01*
X59500Y140000D02*
X60500D01*
X60000Y139500D02*
Y140500D01*
X59500Y130000D02*
X60500D01*
X60000Y129500D02*
Y130500D01*
X59500Y120000D02*
X60500D01*
X60000Y119500D02*
Y120500D01*
X59500Y110000D02*
X60500D01*
X60000Y109500D02*
Y110500D01*
X59500Y100000D02*
X60500D01*
X60000Y99500D02*
Y100500D01*
X49500Y170000D02*
X50500D01*
X50000Y169500D02*
Y170500D01*
X49500Y160000D02*
X50500D01*
X50000Y159500D02*
Y160500D01*
X49500Y150000D02*
X50500D01*
X50000Y149500D02*
Y150500D01*
X49500Y140000D02*
X50500D01*
X50000Y139500D02*
Y140500D01*
X49500Y130000D02*
X50500D01*
X50000Y129500D02*
Y130500D01*
X49500Y120000D02*
X50500D01*
X50000Y119500D02*
Y120500D01*
X49500Y110000D02*
X50500D01*
X50000Y109500D02*
Y110500D01*
X49500Y100000D02*
X50500D01*
X50000Y99500D02*
Y100500D01*
X49500Y20000D02*
X50500D01*
X50000Y19500D02*
Y20500D01*
X49500Y10000D02*
X50500D01*
X50000Y9500D02*
Y10500D01*
X39500Y170000D02*
X40500D01*
X40000Y169500D02*
Y170500D01*
X39500Y160000D02*
X40500D01*
X40000Y159500D02*
Y160500D01*
X39500Y150000D02*
X40500D01*
X40000Y149500D02*
Y150500D01*
X39500Y140000D02*
X40500D01*
X40000Y139500D02*
Y140500D01*
X39500Y130000D02*
X40500D01*
X40000Y129500D02*
Y130500D01*
X39500Y120000D02*
X40500D01*
X40000Y119500D02*
Y120500D01*
X39500Y110000D02*
X40500D01*
X40000Y109500D02*
Y110500D01*
X39500Y100000D02*
X40500D01*
X40000Y99500D02*
Y100500D01*
X39500Y20000D02*
X40500D01*
X40000Y19500D02*
Y20500D01*
X39500Y10000D02*
X40500D01*
X40000Y9500D02*
Y10500D01*
X29500Y160000D02*
X30500D01*
X30000Y159500D02*
Y160500D01*
X29500Y150000D02*
X30500D01*
X30000Y149500D02*
Y150500D01*
X29500Y140000D02*
X30500D01*
X30000Y139500D02*
Y140500D01*
X29500Y130000D02*
X30500D01*
X30000Y129500D02*
Y130500D01*
X29500Y120000D02*
X30500D01*
X30000Y119500D02*
Y120500D01*
X29500Y110000D02*
X30500D01*
X30000Y109500D02*
Y110500D01*
X29500Y100000D02*
X30500D01*
X30000Y99500D02*
Y100500D01*
X29500Y90000D02*
X30500D01*
X30000Y89500D02*
Y90500D01*
X29500Y30000D02*
X30500D01*
X30000Y29500D02*
Y30500D01*
X29500Y20000D02*
X30500D01*
X30000Y19500D02*
Y20500D01*
X19500Y160000D02*
X20500D01*
X20000Y159500D02*
Y160500D01*
X19500Y150000D02*
X20500D01*
X20000Y149500D02*
Y150500D01*
X19500Y140000D02*
X20500D01*
X20000Y139500D02*
Y140500D01*
X19500Y130000D02*
X20500D01*
X20000Y129500D02*
Y130500D01*
X19500Y120000D02*
X20500D01*
X20000Y119500D02*
Y120500D01*
X19500Y110000D02*
X20500D01*
X20000Y109500D02*
Y110500D01*
X19500Y100000D02*
X20500D01*
X20000Y99500D02*
Y100500D01*
X19500Y90000D02*
X20500D01*
X20000Y89500D02*
Y90500D01*
X19500Y80000D02*
X20500D01*
X20000Y79500D02*
Y80500D01*
X19500Y70000D02*
X20500D01*
X20000Y69500D02*
Y70500D01*
X19500Y60000D02*
X20500D01*
X20000Y59500D02*
Y60500D01*
X19500Y50000D02*
X20500D01*
X20000Y49500D02*
Y50500D01*
X19500Y40000D02*
X20500D01*
X20000Y39500D02*
Y40500D01*
X19500Y30000D02*
X20500D01*
X20000Y29500D02*
Y30500D01*
X19500Y20000D02*
X20500D01*
X20000Y19500D02*
Y20500D01*
X9500Y160000D02*
X10500D01*
X10000Y159500D02*
Y160500D01*
X9500Y150000D02*
X10500D01*
X10000Y149500D02*
Y150500D01*
X9500Y140000D02*
X10500D01*
X10000Y139500D02*
Y140500D01*
X9500Y130000D02*
X10500D01*
X10000Y129500D02*
Y130500D01*
X9500Y120000D02*
X10500D01*
X10000Y119500D02*
Y120500D01*
X9500Y110000D02*
X10500D01*
X10000Y109500D02*
Y110500D01*
X9500Y100000D02*
X10500D01*
X10000Y99500D02*
Y100500D01*
X9500Y90000D02*
X10500D01*
X10000Y89500D02*
Y90500D01*
X9500Y80000D02*
X10500D01*
X10000Y79500D02*
Y80500D01*
X9500Y70000D02*
X10500D01*
X10000Y69500D02*
Y70500D01*
X9500Y60000D02*
X10500D01*
X10000Y59500D02*
Y60500D01*
X9500Y50000D02*
X10500D01*
X10000Y49500D02*
Y50500D01*
X9500Y40000D02*
X10500D01*
X10000Y39500D02*
Y40500D01*
X9500Y30000D02*
X10500D01*
X10000Y29500D02*
Y30500D01*
X146000Y44000D02*
X147000D01*
X146500Y43500D02*
Y44500D01*
X100111Y100033D02*
X101111D01*
X100611Y99533D02*
Y100533D01*
X104519Y86459D02*
X105519D01*
X105019Y85959D02*
Y86959D01*
X104519Y84259D02*
X105519D01*
X105019Y83759D02*
Y84759D01*
X99500Y79800D02*
X100500D01*
X100000Y79300D02*
Y80300D01*
X99500Y82000D02*
X100500D01*
X100000Y81500D02*
Y82500D01*
X99000Y89000D02*
X100000D01*
X99500Y88500D02*
Y89500D01*
X99804Y84420D02*
X100804D01*
X100304Y83920D02*
Y84920D01*
X99804Y86620D02*
X100804D01*
X100304Y86120D02*
Y87120D01*
X110000Y84500D02*
X111000D01*
X110500Y84000D02*
Y85000D01*
X95399Y166711D02*
X96399D01*
X95899Y166211D02*
Y167211D01*
X95399Y164511D02*
X96399D01*
X95899Y164011D02*
Y165011D01*
X95399Y162311D02*
X96399D01*
X95899Y161811D02*
Y162811D01*
X95399Y160111D02*
X96399D01*
X95899Y159611D02*
Y160611D01*
X95399Y157911D02*
X96399D01*
X95899Y157411D02*
Y158411D01*
X95399Y155711D02*
X96399D01*
X95899Y155211D02*
Y156211D01*
X95399Y153511D02*
X96399D01*
X95899Y153011D02*
Y154011D01*
X95399Y151311D02*
X96399D01*
X95899Y150811D02*
Y151811D01*
X95399Y149111D02*
X96399D01*
X95899Y148611D02*
Y149611D01*
X95399Y146911D02*
X96399D01*
X95899Y146411D02*
Y147411D01*
X95399Y144711D02*
X96399D01*
X95899Y144211D02*
Y145211D01*
X95399Y142511D02*
X96399D01*
X95899Y142011D02*
Y143011D01*
X95399Y140300D02*
X96399D01*
X95899Y139800D02*
Y140800D01*
X95431Y135916D02*
X96431D01*
X95931Y135416D02*
Y136416D01*
X104664Y127618D02*
X105664D01*
X105164Y127118D02*
Y128118D01*
X104664Y129818D02*
X105664D01*
X105164Y129318D02*
Y130318D01*
X104662Y132074D02*
X105662D01*
X105162Y131574D02*
Y132574D01*
X104558Y135313D02*
X105558D01*
X105058Y134813D02*
Y135813D01*
X104527Y138505D02*
X105527D01*
X105027Y138005D02*
Y139005D01*
X104601Y140713D02*
X105601D01*
X105101Y140213D02*
Y141213D01*
X104601Y142913D02*
X105601D01*
X105101Y142413D02*
Y143413D01*
X104601Y145113D02*
X105601D01*
X105101Y144613D02*
Y145613D01*
X104601Y147313D02*
X105601D01*
X105101Y146813D02*
Y147813D01*
X104601Y149513D02*
X105601D01*
X105101Y149013D02*
Y150013D01*
X104601Y151713D02*
X105601D01*
X105101Y151213D02*
Y152213D01*
X104601Y153913D02*
X105601D01*
X105101Y153413D02*
Y154413D01*
X104601Y156113D02*
X105601D01*
X105101Y155613D02*
Y156613D01*
X104601Y158313D02*
X105601D01*
X105101Y157813D02*
Y158813D01*
X104601Y160513D02*
X105601D01*
X105101Y160013D02*
Y161013D01*
X104601Y162713D02*
X105601D01*
X105101Y162213D02*
Y163213D01*
X104601Y164913D02*
X105601D01*
X105101Y164413D02*
Y165413D01*
X104600Y167145D02*
X105600D01*
X105100Y166645D02*
Y167645D01*
X97643Y161211D02*
X98643D01*
X98143Y160711D02*
Y161711D01*
X97643Y159011D02*
X98643D01*
X98143Y158511D02*
Y159511D01*
X97643Y156811D02*
X98643D01*
X98143Y156311D02*
Y157311D01*
X97643Y154611D02*
X98643D01*
X98143Y154111D02*
Y155111D01*
X97643Y152411D02*
X98643D01*
X98143Y151911D02*
Y152911D01*
X97643Y150211D02*
X98643D01*
X98143Y149711D02*
Y150711D01*
X97643Y148011D02*
X98643D01*
X98143Y147511D02*
Y148511D01*
X97643Y145811D02*
X98643D01*
X98143Y145311D02*
Y146311D01*
X97643Y143611D02*
X98643D01*
X98143Y143111D02*
Y144111D01*
X97643Y141411D02*
X98643D01*
X98143Y140911D02*
Y141911D01*
X97000Y138000D02*
X98000D01*
X97500Y137500D02*
Y138500D01*
X97706Y126055D02*
X98706D01*
X98206Y125555D02*
Y126555D01*
X102420Y126518D02*
X103420D01*
X102920Y126018D02*
Y127018D01*
X102420Y128718D02*
X103420D01*
X102920Y128218D02*
Y129218D01*
X102420Y130918D02*
X103420D01*
X102920Y130418D02*
Y131418D01*
X103000Y133500D02*
X104000D01*
X103500Y133000D02*
Y134000D01*
X103000Y137000D02*
X104000D01*
X103500Y136500D02*
Y137500D01*
X102357Y141813D02*
X103357D01*
X102857Y141313D02*
Y142313D01*
X102357Y144013D02*
X103357D01*
X102857Y143513D02*
Y144513D01*
X102357Y146213D02*
X103357D01*
X102857Y145713D02*
Y146713D01*
X102357Y148413D02*
X103357D01*
X102857Y147913D02*
Y148913D01*
X102357Y150613D02*
X103357D01*
X102857Y150113D02*
Y151113D01*
X102357Y152813D02*
X103357D01*
X102857Y152313D02*
Y153313D01*
X102357Y155013D02*
X103357D01*
X102857Y154513D02*
Y155513D01*
X102357Y157213D02*
X103357D01*
X102857Y156713D02*
Y157713D01*
X102357Y159413D02*
X103357D01*
X102857Y158913D02*
Y159913D01*
X102357Y161613D02*
X103357D01*
X102857Y161113D02*
Y162113D01*
X96000Y44500D02*
X97000D01*
X96500Y44000D02*
Y45000D01*
X96000Y40500D02*
X97000D01*
X96500Y40000D02*
Y41000D01*
X103000Y44500D02*
X104000D01*
X103500Y44000D02*
Y45000D01*
X99500Y44500D02*
X100500D01*
X100000Y44000D02*
Y45000D01*
X99500Y40500D02*
X100500D01*
X100000Y40000D02*
Y41000D01*
X103000Y40500D02*
X104000D01*
X103500Y40000D02*
Y41000D01*
X121500Y42335D02*
X122500D01*
X122000Y41835D02*
Y42835D01*
X143000Y34697D02*
X144000D01*
X143500Y34197D02*
Y35197D01*
X146500Y34697D02*
X147500D01*
X147000Y34197D02*
Y35197D01*
X123000Y33500D02*
X124000D01*
X123500Y33000D02*
Y34000D01*
X131968Y33442D02*
X132968D01*
X132468Y32942D02*
Y33942D01*
X135031Y33442D02*
X136031D01*
X135531Y32942D02*
Y33942D01*
X132366Y42921D02*
X133366D01*
X132866Y42421D02*
Y43421D01*
X126866Y62421D02*
X127866D01*
X127366Y61921D02*
Y62921D01*
X138866Y62421D02*
X139866D01*
X139366Y61921D02*
Y62921D01*
X132366Y48921D02*
X133366D01*
X132866Y48421D02*
Y49421D01*
X40500Y81500D02*
X41500D01*
X41000Y81000D02*
Y82000D01*
X44000Y81500D02*
X45000D01*
X44500Y81000D02*
Y82000D01*
X47500Y81500D02*
X48500D01*
X48000Y81000D02*
Y82000D01*
X54500Y81500D02*
X55500D01*
X55000Y81000D02*
Y82000D01*
X51000Y81500D02*
X52000D01*
X51500Y81000D02*
Y82000D01*
X54500Y73500D02*
X55500D01*
X55000Y73000D02*
Y74000D01*
X51000Y73500D02*
X52000D01*
X51500Y73000D02*
Y74000D01*
X51000Y77500D02*
X52000D01*
X51500Y77000D02*
Y78000D01*
X54500Y77500D02*
X55500D01*
X55000Y77000D02*
Y78000D01*
X47500Y77500D02*
X48500D01*
X48000Y77000D02*
Y78000D01*
X44000Y77500D02*
X45000D01*
X44500Y77000D02*
Y78000D01*
X40500Y77500D02*
X41500D01*
X41000Y77000D02*
Y78000D01*
X40500Y73500D02*
X41500D01*
X41000Y73000D02*
Y74000D01*
X44000Y73500D02*
X45000D01*
X44500Y73000D02*
Y74000D01*
X47500Y73500D02*
X48500D01*
X48000Y73000D02*
Y74000D01*
X57000Y31000D02*
X58000D01*
X57500Y30500D02*
Y31500D01*
X124697Y123000D02*
X125697D01*
X125197Y122500D02*
Y123500D01*
X124697Y126500D02*
X125697D01*
X125197Y126000D02*
Y127000D01*
X129500Y121197D02*
X130500D01*
X130000Y120697D02*
Y121697D01*
X55500Y5000D02*
X56500D01*
X56000Y4500D02*
Y5500D01*
X55500Y8500D02*
X56500D01*
X56000Y8000D02*
Y9000D01*
X55500Y20500D02*
X56500D01*
X56000Y20000D02*
Y21000D01*
X55500Y17000D02*
X56500D01*
X56000Y16500D02*
Y17500D01*
X114500Y56500D02*
X115500D01*
X115000Y56000D02*
Y57000D01*
X77000Y113500D02*
X78000D01*
X77500Y113000D02*
Y114000D01*
X77000Y110000D02*
X78000D01*
X77500Y109500D02*
Y110500D01*
X76000Y104500D02*
X77000D01*
X76500Y104000D02*
Y105000D01*
X76000Y100500D02*
X77000D01*
X76500Y100000D02*
Y101000D01*
X101000Y109000D02*
X102000D01*
X101500Y108500D02*
Y109500D01*
X101000Y113500D02*
X102000D01*
X101500Y113000D02*
Y114000D01*
X101000Y118000D02*
X102000D01*
X101500Y117500D02*
Y118500D01*
X105500Y113500D02*
X106500D01*
X106000Y113000D02*
Y114000D01*
X96500Y113500D02*
X97500D01*
X97000Y113000D02*
Y114000D01*
X96500Y109000D02*
X97500D01*
X97000Y108500D02*
Y109500D01*
X105500Y109000D02*
X106500D01*
X106000Y108500D02*
Y109500D01*
X105500Y118000D02*
X106500D01*
X106000Y117500D02*
Y118500D01*
X96500Y118000D02*
X97500D01*
X97000Y117500D02*
Y118500D01*
X143500Y115500D02*
X144500D01*
X144000Y115000D02*
Y116000D01*
X88000Y20500D02*
X89000D01*
X88500Y20000D02*
Y21000D01*
X111500Y166000D02*
X112500D01*
X112000Y165500D02*
Y166500D01*
X89000Y166000D02*
X90000D01*
X89500Y165500D02*
Y166500D01*
X110500Y20500D02*
X111500D01*
X111000Y20000D02*
Y21000D01*
X109500Y69000D02*
X110500D01*
X110000Y68500D02*
Y69500D01*
X106000Y69000D02*
X107000D01*
X106500Y68500D02*
Y69500D01*
X102500Y69000D02*
X103500D01*
X103000Y68500D02*
Y69500D01*
X102500Y73000D02*
X103500D01*
X103000Y72500D02*
Y73500D01*
X106000Y73000D02*
X107000D01*
X106500Y72500D02*
Y73500D01*
X109500Y73000D02*
X110500D01*
X110000Y72500D02*
Y73500D01*
X80500Y41000D02*
X81500D01*
X81000Y40500D02*
Y41500D01*
M02*
