%TF.GenerationSoftware,Altium Limited,Altium Designer,24.8.2 (39)*%
G04 Layer_Color=65535*
%FSLAX45Y45*%
%MOMM*%
%TF.SameCoordinates,91815F7F-820D-4149-A860-4F3A114B284D*%
%TF.FilePolarity,Positive*%
%TF.FileFunction,Legend,Top*%
%TF.Part,Single*%
G01*
G75*
%TA.AperFunction,NonConductor*%
%ADD17C,0.25000*%
%ADD18C,0.20000*%
%ADD19C,0.25400*%
D17*
X-2357500Y495000D02*
G03*
X-2357500Y495000I-12500J0D01*
G01*
X-747500Y370000D02*
G03*
X-747500Y370000I-12500J0D01*
G01*
X-1712500Y527500D02*
G03*
X-1712500Y527500I-12500J0D01*
G01*
D18*
X-2660000Y720000D02*
X-2537500D01*
X-2942500Y272500D02*
Y592500D01*
X-2660000Y145000D02*
X-2537500D01*
Y302500D01*
Y562500D02*
Y720000D01*
X-592500Y145000D02*
X-470000D01*
X-187500Y272500D02*
Y592500D01*
X-592500Y720000D02*
X-470000D01*
X-592500Y562500D02*
Y720000D01*
Y145000D02*
Y302500D01*
X-1525000Y282500D02*
Y582500D01*
Y282500D02*
X-1455000D01*
Y582500D01*
X-1525000D02*
X-1455000D01*
X-1112500Y425000D02*
Y440000D01*
X-967500Y425000D02*
Y440000D01*
X-2062500Y425000D02*
Y440000D01*
X-1917500Y425000D02*
Y440000D01*
D19*
X-2690000Y958675D02*
X-2740783D01*
X-2715392D01*
Y831716D01*
X-2740783Y806325D01*
X-2766175D01*
X-2791567Y831716D01*
X-2639216Y806325D02*
X-2588433D01*
X-2613824D01*
Y958675D01*
X-2639216Y933283D01*
X-515392Y958675D02*
X-566175D01*
X-540784D01*
Y831716D01*
X-566175Y806325D01*
X-591567D01*
X-616959Y831716D01*
X-363041Y806325D02*
X-464608D01*
X-363041Y907892D01*
Y933283D01*
X-388433Y958675D01*
X-439216D01*
X-464608Y933283D01*
X-1591567Y808675D02*
Y681716D01*
X-1566175Y656325D01*
X-1515392D01*
X-1490000Y681716D01*
Y808675D01*
X-1439216Y656325D02*
X-1388433D01*
X-1413824D01*
Y808675D01*
X-1439216Y783283D01*
X-1028293Y804879D02*
X-1053685Y830271D01*
X-1104468D01*
X-1129860Y804879D01*
Y703312D01*
X-1104468Y677920D01*
X-1053685D01*
X-1028293Y703312D01*
X-875942Y677920D02*
X-977509D01*
X-875942Y779487D01*
Y804879D01*
X-901334Y830271D01*
X-952117D01*
X-977509Y804879D01*
X-1978253D02*
X-2003645Y830271D01*
X-2054428D01*
X-2079820Y804879D01*
Y703312D01*
X-2054428Y677920D01*
X-2003645D01*
X-1978253Y703312D01*
X-1927469Y677920D02*
X-1876686D01*
X-1902077D01*
Y830271D01*
X-1927469Y804879D01*
%TF.MD5,b37f3211dde505a8d8597eb7aff5d0f5*%
M02*
