%TF.GenerationSoftware,Altium Limited,Altium Designer,24.8.2 (39)*%
G04 Layer_Physical_Order=1*
G04 Layer_Color=255*
%FSLAX45Y45*%
%MOMM*%
%TF.SameCoordinates,91815F7F-820D-4149-A860-4F3A114B284D*%
%TF.FilePolarity,Positive*%
%TF.FileFunction,Copper,L1,Top,Signal*%
%TF.Part,Single*%
G01*
G75*
%TA.AperFunction,SMDPad,CuDef*%
%ADD10R,1.70000X0.60000*%
%ADD11R,2.70000X1.00000*%
%ADD12R,1.00000X0.66000*%
%ADD13R,1.40000X0.95000*%
%TA.AperFunction,Conductor*%
%ADD14C,0.30000*%
%ADD15C,0.50000*%
%TA.AperFunction,ViaPad*%
%ADD16C,0.70000*%
D10*
X-2512500Y370000D02*
D03*
Y495000D02*
D03*
X-617500D02*
D03*
Y370000D02*
D03*
D11*
X-2832500Y185000D02*
D03*
Y680000D02*
D03*
X-297500D02*
D03*
Y185000D02*
D03*
D12*
X-1360000Y527500D02*
D03*
Y337500D02*
D03*
X-1620000D02*
D03*
Y432500D02*
D03*
Y527500D02*
D03*
D13*
X-1040000Y340000D02*
D03*
Y525000D02*
D03*
X-1990000Y340000D02*
D03*
Y525000D02*
D03*
D14*
X-1692500Y432500D02*
X-1620000D01*
X-1040000Y262500D02*
Y340000D01*
X-1990000Y255000D02*
Y340000D01*
X-617500Y495000D02*
X-490000D01*
X-2512500Y370000D02*
X-2375000D01*
D15*
X-1610000Y517500D02*
X-1525000D01*
X-1990000Y525000D02*
X-1987500Y527500D01*
X-2236250Y525000D02*
X-1990000D01*
X-1525000Y517500D02*
X-1490000Y482500D01*
X-2512500Y495000D02*
X-2266250D01*
X-2236250Y525000D01*
X-1490000Y382500D02*
Y482500D01*
X-1535000Y337500D02*
X-1490000Y382500D01*
X-1620000Y337500D02*
X-1535000D01*
X-1620000Y527500D02*
X-1610000Y517500D01*
X-1987500Y527500D02*
X-1620000D01*
X-827500Y525000D02*
X-672500Y370000D01*
X-617500D01*
X-1040000Y525000D02*
X-827500D01*
X-1360000Y527500D02*
X-1042500D01*
X-1040000Y525000D01*
D16*
X-2375000Y370000D02*
D03*
X-1040000Y262500D02*
D03*
X-1692500Y432500D02*
D03*
X-1990000Y255000D02*
D03*
X-490000Y495000D02*
D03*
%TF.MD5,6eb8851e5ed93a0178e9a8d2c3130af5*%
M02*
