%TF.GenerationSoftware,Altium Limited,Altium Designer,24.8.2 (39)*%
G04 Layer_Physical_Order=2*
G04 Layer_Color=16711680*
%FSLAX45Y45*%
%MOMM*%
%TF.SameCoordinates,91815F7F-820D-4149-A860-4F3A114B284D*%
%TF.FilePolarity,Positive*%
%TF.FileFunction,Copper,L2,Bot,Signal*%
%TF.Part,Single*%
G01*
G75*
%TA.AperFunction,ViaPad*%
%ADD16C,0.70000*%
G36*
X-50355Y1017855D02*
X-41949Y1009448D01*
X-28738Y989677D01*
X-19639Y967710D01*
X-15000Y944389D01*
Y932500D01*
Y82500D01*
X-72322Y25177D01*
X-76526Y20974D01*
X-86411Y14369D01*
X-97395Y9819D01*
X-109056Y7500D01*
X-2961103D01*
X-2994084Y14060D01*
X-3025151Y26929D01*
X-3046386Y41117D01*
X-3065000Y57500D01*
Y972145D01*
Y980551D01*
X-3061720Y997042D01*
X-3055286Y1012575D01*
X-3045945Y1026555D01*
X-3040000Y1032500D01*
Y1032500D01*
X-3032678Y1039822D01*
X-3028475Y1044025D01*
X-3018589Y1050631D01*
X-3007605Y1055180D01*
X-2995945Y1057500D01*
X-90000D01*
X-50355Y1017855D01*
D02*
G37*
%LPC*%
G36*
X-477300Y555116D02*
Y507700D01*
X-429884D01*
X-438795Y529214D01*
X-455786Y546205D01*
X-477300Y555116D01*
D02*
G37*
G36*
X-502700D02*
X-524214Y546205D01*
X-541205Y529214D01*
X-550116Y507700D01*
X-502700D01*
Y555116D01*
D02*
G37*
G36*
X-1679800Y492616D02*
Y445200D01*
X-1632384D01*
X-1641295Y466714D01*
X-1658286Y483705D01*
X-1679800Y492616D01*
D02*
G37*
G36*
X-1705200D02*
X-1726714Y483705D01*
X-1743705Y466714D01*
X-1752616Y445200D01*
X-1705200D01*
Y492616D01*
D02*
G37*
G36*
X-429884Y482300D02*
X-477300D01*
Y434884D01*
X-455786Y443795D01*
X-438795Y460786D01*
X-429884Y482300D01*
D02*
G37*
G36*
X-502700D02*
X-550116D01*
X-541205Y460786D01*
X-524214Y443795D01*
X-502700Y434884D01*
Y482300D01*
D02*
G37*
G36*
X-2362300Y430116D02*
Y382700D01*
X-2314884D01*
X-2323795Y404214D01*
X-2340786Y421205D01*
X-2362300Y430116D01*
D02*
G37*
G36*
X-2387700D02*
X-2409214Y421205D01*
X-2426205Y404214D01*
X-2435116Y382700D01*
X-2387700D01*
Y430116D01*
D02*
G37*
G36*
X-1632384Y419800D02*
X-1679800D01*
Y372384D01*
X-1658286Y381295D01*
X-1641295Y398286D01*
X-1632384Y419800D01*
D02*
G37*
G36*
X-1705200D02*
X-1752616D01*
X-1743705Y398286D01*
X-1726714Y381295D01*
X-1705200Y372384D01*
Y419800D01*
D02*
G37*
G36*
X-2314884Y357300D02*
X-2362300D01*
Y309884D01*
X-2340786Y318795D01*
X-2323795Y335786D01*
X-2314884Y357300D01*
D02*
G37*
G36*
X-2387700D02*
X-2435116D01*
X-2426205Y335786D01*
X-2409214Y318795D01*
X-2387700Y309884D01*
Y357300D01*
D02*
G37*
G36*
X-1027300Y322616D02*
Y275200D01*
X-979884D01*
X-988795Y296714D01*
X-1005786Y313704D01*
X-1027300Y322616D01*
D02*
G37*
G36*
X-1052700D02*
X-1074214Y313704D01*
X-1091205Y296714D01*
X-1100116Y275200D01*
X-1052700D01*
Y322616D01*
D02*
G37*
G36*
X-1977300Y315116D02*
Y267700D01*
X-1929884D01*
X-1938795Y289214D01*
X-1955786Y306205D01*
X-1977300Y315116D01*
D02*
G37*
G36*
X-2002700D02*
X-2024214Y306205D01*
X-2041205Y289214D01*
X-2050116Y267700D01*
X-2002700D01*
Y315116D01*
D02*
G37*
G36*
X-979884Y249800D02*
X-1027300D01*
Y202384D01*
X-1005786Y211295D01*
X-988795Y228286D01*
X-979884Y249800D01*
D02*
G37*
G36*
X-1052700D02*
X-1100116D01*
X-1091205Y228286D01*
X-1074214Y211295D01*
X-1052700Y202384D01*
Y249800D01*
D02*
G37*
G36*
X-1929884Y242300D02*
X-1977300D01*
Y194884D01*
X-1955786Y203795D01*
X-1938795Y220786D01*
X-1929884Y242300D01*
D02*
G37*
G36*
X-2002700D02*
X-2050116D01*
X-2041205Y220786D01*
X-2024214Y203795D01*
X-2002700Y194884D01*
Y242300D01*
D02*
G37*
%LPD*%
D16*
X-2375000Y370000D02*
D03*
X-1040000Y262500D02*
D03*
X-1692500Y432500D02*
D03*
X-1990000Y255000D02*
D03*
X-490000Y495000D02*
D03*
%TF.MD5,6c11603e14f590a6be7147c00f475027*%
M02*
